# Made in Blockbench 4.7.4
mtllib Bin.mtl

o cube
v 0.375 0.75 0.375
v 0.375 0.75 -0.375
v 0.375 0 0.375
v 0.375 0 -0.375
v -0.375 0.75 0.375
v -0.375 0.75 -0.375
v -0.375 0 0.375
v -0.375 0 -0.375
v 0.3125 0.75 -0.3125
v -0.3125 0.75 -0.3125
v 0.3125 0.75 0.3125
v -0.3125 0.75 0.3125
v 0.3125 0.0625 -0.3125
v -0.3125 0.0625 -0.3125
v 0.3125 0.0625 0.3125
v -0.3125 0.0625 0.3125
vt 0.875 0.5
vt 0.875 0.625
vt 0.75 0.625
vt 0.75 0.5
vt 0.875 0.5
vt 0.875 0.625
vt 0.75 0.625
vt 0.75 0.5
vt 0.875 0.5
vt 0.875 0.625
vt 0.75 0.625
vt 0.75 0.5
vt 0.875 0.5
vt 0.875 0.625
vt 0.75 0.625
vt 0.75 0.5
vt 0.875 0.5
vt 0.875 0.625
vt 0.75 0.625
vt 0.75 0.5
vt 0.875 0.5
vt 0.875 0.625
vt 0.75 0.625
vt 0.75 0.5
vt 0.875 0.5625
vt 0.75 0.5625
vt 0.75 0.5
vt 0.875 0.5
vt 0.875 0.625
vt 0.75 0.625
vt 0.75 0.5625
vt 0.875 0.5625
vt 0.875 0.5625
vt 0.75 0.5625
vt 0.75 0.5
vt 0.875 0.5
vt 0.875 0.625
vt 0.75 0.625
vt 0.75 0.5625
vt 0.875 0.5625
vt 0.875 0.5625
vt 0.75 0.5625
vt 0.75 0.5
vt 0.875 0.5
vt 0.875 0.625
vt 0.75 0.625
vt 0.75 0.5625
vt 0.875 0.5625
vt 0.875 0.5625
vt 0.75 0.5625
vt 0.75 0.5
vt 0.875 0.5
vt 0.875 0.625
vt 0.75 0.625
vt 0.75 0.5625
vt 0.875 0.5625
vn 1 0 0
vn -1 0 0
vn 0 1 0
vn 0 -1 0
vn 0 0 1
vn 0 0 -1
vn 0 1 0
vn 0 1 0
vn 0 1 0
vn 0 1 0
vn -1 0 0
vn 0 0 1
vn 1 0 0
vn 0 0 -1
usemtl m_bf3d503d-6e6c-856f-d9f0-c18bf06c456f
f 4/1/1 2/2/1 1/3/1 3/4/1
f 7/5/2 5/6/2 6/7/2 8/8/2
f 15/9/3 13/10/3 14/11/3 16/12/3
f 4/13/4 3/14/4 7/15/4 8/16/4
f 3/17/5 1/18/5 5/19/5 7/20/5
f 8/21/6 6/22/6 2/23/6 4/24/6
f 9/25/7 11/26/7 1/27/7 2/28/7
f 10/29/8 9/30/8 2/31/8 6/32/8
f 12/33/9 10/34/9 6/35/9 5/36/9
f 11/37/10 12/38/10 5/39/10 1/40/10
f 13/41/11 15/42/11 11/43/11 9/44/11
f 14/45/12 13/46/12 9/47/12 10/48/12
f 16/49/13 14/50/13 10/51/13 12/52/13
f 15/53/14 16/54/14 12/55/14 11/56/14
o cube
v 0.4375 0.4375 0.4375
v 0.4375 0.4375 -0.4375
v 0.4375 0.3125 0.4375
v 0.4375 0.3125 -0.4375
v 0.375 0.4375 -0.4375
v 0.375 0.4375 0.4375
v 0.375 0.3125 -0.4375
v 0.375 0.3125 0.4375
vt 0.875 0.625
vt 1 0.625
vt 1 0.5
vt 0.875 0.5
vt 0.875 0.625
vt 1 0.625
vt 1 0.5
vt 0.875 0.5
vt 0.875 0.625
vt 1 0.625
vt 1 0.5
vt 0.875 0.5
vt 0.875 0.625
vt 1 0.625
vt 1 0.5
vt 0.875 0.5
vt 0.875 0.625
vt 1 0.625
vt 1 0.5
vt 0.875 0.5
vt 0.875 0.625
vt 1 0.625
vt 1 0.5
vt 0.875 0.5
vn 0 0 -1
vn 1 0 0
vn 0 0 1
vn -1 0 0
vn 0 1 0
vn 0 -1 0
usemtl m_bf3d503d-6e6c-856f-d9f0-c18bf06c456f
f 20/60/15 23/59/15 21/58/15 18/57/15
f 19/64/16 20/63/16 18/62/16 17/61/16
f 24/68/17 19/67/17 17/66/17 22/65/17
f 23/72/18 24/71/18 22/70/18 21/69/18
f 22/76/19 17/75/19 18/74/19 21/73/19
f 23/80/20 20/79/20 19/78/20 24/77/20
o cube
v 0.4375 0.6875 0.4375
v 0.4375 0.6875 -0.4375
v 0.4375 0.5625 0.4375
v 0.4375 0.5625 -0.4375
v 0.375 0.6875 -0.4375
v 0.375 0.6875 0.4375
v 0.375 0.5625 -0.4375
v 0.375 0.5625 0.4375
vt 0.875 0.625
vt 1 0.625
vt 1 0.5
vt 0.875 0.5
vt 0.875 0.625
vt 1 0.625
vt 1 0.5
vt 0.875 0.5
vt 0.875 0.625
vt 1 0.625
vt 1 0.5
vt 0.875 0.5
vt 0.875 0.625
vt 1 0.625
vt 1 0.5
vt 0.875 0.5
vt 0.875 0.625
vt 1 0.625
vt 1 0.5
vt 0.875 0.5
vt 0.875 0.625
vt 1 0.625
vt 1 0.5
vt 0.875 0.5
vn 0 0 -1
vn 1 0 0
vn 0 0 1
vn -1 0 0
vn 0 1 0
vn 0 -1 0
usemtl m_bf3d503d-6e6c-856f-d9f0-c18bf06c456f
f 28/84/21 31/83/21 29/82/21 26/81/21
f 27/88/22 28/87/22 26/86/22 25/85/22
f 32/92/23 27/91/23 25/90/23 30/89/23
f 31/96/24 32/95/24 30/94/24 29/93/24
f 30/100/25 25/99/25 26/98/25 29/97/25
f 31/104/26 28/103/26 27/102/26 32/101/26
o cube
v 0.4375 0.1875 0.4375
v 0.4375 0.1875 -0.4375
v 0.4375 0.0625 0.4375
v 0.4375 0.0625 -0.4375
v 0.375 0.1875 -0.4375
v 0.375 0.1875 0.4375
v 0.375 0.0625 -0.4375
v 0.375 0.0625 0.4375
vt 0.875 0.625
vt 1 0.625
vt 1 0.5
vt 0.875 0.5
vt 0.875 0.625
vt 1 0.625
vt 1 0.5
vt 0.875 0.5
vt 0.875 0.625
vt 1 0.625
vt 1 0.5
vt 0.875 0.5
vt 0.875 0.625
vt 1 0.625
vt 1 0.5
vt 0.875 0.5
vt 0.875 0.625
vt 1 0.625
vt 1 0.5
vt 0.875 0.5
vt 0.875 0.625
vt 1 0.625
vt 1 0.5
vt 0.875 0.5
vn 0 0 -1
vn 1 0 0
vn 0 0 1
vn -1 0 0
vn 0 1 0
vn 0 -1 0
usemtl m_bf3d503d-6e6c-856f-d9f0-c18bf06c456f
f 36/108/27 39/107/27 37/106/27 34/105/27
f 35/112/28 36/111/28 34/110/28 33/109/28
f 40/116/29 35/115/29 33/114/29 38/113/29
f 39/120/30 40/119/30 38/118/30 37/117/30
f 38/124/31 33/123/31 34/122/31 37/121/31
f 39/128/32 36/127/32 35/126/32 40/125/32
o cube
v -0.375 0.1875 0.4375
v -0.375 0.1875 -0.4375
v -0.375 0.0625 0.4375
v -0.375 0.0625 -0.4375
v -0.4375 0.1875 -0.4375
v -0.4375 0.1875 0.4375
v -0.4375 0.0625 -0.4375
v -0.4375 0.0625 0.4375
vt 0.875 0.625
vt 1 0.625
vt 1 0.5
vt 0.875 0.5
vt 0.875 0.625
vt 1 0.625
vt 1 0.5
vt 0.875 0.5
vt 0.875 0.625
vt 1 0.625
vt 1 0.5
vt 0.875 0.5
vt 0.875 0.625
vt 1 0.625
vt 1 0.5
vt 0.875 0.5
vt 0.875 0.625
vt 1 0.625
vt 1 0.5
vt 0.875 0.5
vt 0.875 0.625
vt 1 0.625
vt 1 0.5
vt 0.875 0.5
vn 0 0 -1
vn 1 0 0
vn 0 0 1
vn -1 0 0
vn 0 1 0
vn 0 -1 0
usemtl m_bf3d503d-6e6c-856f-d9f0-c18bf06c456f
f 44/132/33 47/131/33 45/130/33 42/129/33
f 43/136/34 44/135/34 42/134/34 41/133/34
f 48/140/35 43/139/35 41/138/35 46/137/35
f 47/144/36 48/143/36 46/142/36 45/141/36
f 46/148/37 41/147/37 42/146/37 45/145/37
f 47/152/38 44/151/38 43/150/38 48/149/38
o cube
v -0.375 0.4375 0.4375
v -0.375 0.4375 -0.4375
v -0.375 0.3125 0.4375
v -0.375 0.3125 -0.4375
v -0.4375 0.4375 -0.4375
v -0.4375 0.4375 0.4375
v -0.4375 0.3125 -0.4375
v -0.4375 0.3125 0.4375
vt 0.875 0.625
vt 1 0.625
vt 1 0.5
vt 0.875 0.5
vt 0.875 0.625
vt 1 0.625
vt 1 0.5
vt 0.875 0.5
vt 0.875 0.625
vt 1 0.625
vt 1 0.5
vt 0.875 0.5
vt 0.875 0.625
vt 1 0.625
vt 1 0.5
vt 0.875 0.5
vt 0.875 0.625
vt 1 0.625
vt 1 0.5
vt 0.875 0.5
vt 0.875 0.625
vt 1 0.625
vt 1 0.5
vt 0.875 0.5
vn 0 0 -1
vn 1 0 0
vn 0 0 1
vn -1 0 0
vn 0 1 0
vn 0 -1 0
usemtl m_bf3d503d-6e6c-856f-d9f0-c18bf06c456f
f 52/156/39 55/155/39 53/154/39 50/153/39
f 51/160/40 52/159/40 50/158/40 49/157/40
f 56/164/41 51/163/41 49/162/41 54/161/41
f 55/168/42 56/167/42 54/166/42 53/165/42
f 54/172/43 49/171/43 50/170/43 53/169/43
f 55/176/44 52/175/44 51/174/44 56/173/44
o cube
v -0.375 0.6875 0.4375
v -0.375 0.6875 -0.4375
v -0.375 0.5625 0.4375
v -0.375 0.5625 -0.4375
v -0.4375 0.6875 -0.4375
v -0.4375 0.6875 0.4375
v -0.4375 0.5625 -0.4375
v -0.4375 0.5625 0.4375
vt 0.875 0.625
vt 1 0.625
vt 1 0.5
vt 0.875 0.5
vt 0.875 0.625
vt 1 0.625
vt 1 0.5
vt 0.875 0.5
vt 0.875 0.625
vt 1 0.625
vt 1 0.5
vt 0.875 0.5
vt 0.875 0.625
vt 1 0.625
vt 1 0.5
vt 0.875 0.5
vt 0.875 0.625
vt 1 0.625
vt 1 0.5
vt 0.875 0.5
vt 0.875 0.625
vt 1 0.625
vt 1 0.5
vt 0.875 0.5
vn 0 0 -1
vn 1 0 0
vn 0 0 1
vn -1 0 0
vn 0 1 0
vn 0 -1 0
usemtl m_bf3d503d-6e6c-856f-d9f0-c18bf06c456f
f 60/180/45 63/179/45 61/178/45 58/177/45
f 59/184/46 60/183/46 58/182/46 57/181/46
f 64/188/47 59/187/47 57/186/47 62/185/47
f 63/192/48 64/191/48 62/190/48 61/189/48
f 62/196/49 57/195/49 58/194/49 61/193/49
f 63/200/50 60/199/50 59/198/50 64/197/50
o cube
v 0.3750000000000001 0.1875 -0.4374999999999999
v -0.3749999999999999 0.1875 -0.4375000000000001
v 0.3750000000000001 0.0625 -0.4374999999999999
v -0.3749999999999999 0.0625 -0.4375000000000001
v -0.3749999999999999 0.1875 -0.3750000000000001
v 0.3750000000000001 0.1875 -0.3749999999999999
v -0.3749999999999999 0.0625 -0.3750000000000001
v 0.3750000000000001 0.0625 -0.3749999999999999
vt 0.875 0.625
vt 1 0.625
vt 1 0.5
vt 0.875 0.5
vt 0.875 0.625
vt 1 0.625
vt 1 0.5
vt 0.875 0.5
vt 0.875 0.625
vt 1 0.625
vt 1 0.5
vt 0.875 0.5
vt 0.875 0.625
vt 1 0.625
vt 1 0.5
vt 0.875 0.5
vt 0.875 0.625
vt 1 0.625
vt 1 0.5
vt 0.875 0.5
vt 0.875 0.625
vt 1 0.625
vt 1 0.5
vt 0.875 0.5
vn -1 0 -2.220446049250313e-16
vn 2.220446049250313e-16 0 -1
vn 1 0 2.220446049250313e-16
vn -2.220446049250313e-16 0 1
vn 0 1 0
vn 0 -1 0
usemtl m_bf3d503d-6e6c-856f-d9f0-c18bf06c456f
f 68/204/51 71/203/51 69/202/51 66/201/51
f 67/208/52 68/207/52 66/206/52 65/205/52
f 72/212/53 67/211/53 65/210/53 70/209/53
f 71/216/54 72/215/54 70/214/54 69/213/54
f 70/220/55 65/219/55 66/218/55 69/217/55
f 71/224/56 68/223/56 67/222/56 72/221/56
o cube
v 0.3750000000000001 0.4375 -0.4374999999999999
v -0.3749999999999999 0.4375 -0.4375000000000001
v 0.3750000000000001 0.3125 -0.4374999999999999
v -0.3749999999999999 0.3125 -0.4375000000000001
v -0.3749999999999999 0.4375 -0.3750000000000001
v 0.3750000000000001 0.4375 -0.3749999999999999
v -0.3749999999999999 0.3125 -0.3750000000000001
v 0.3750000000000001 0.3125 -0.3749999999999999
vt 0.875 0.625
vt 1 0.625
vt 1 0.5
vt 0.875 0.5
vt 0.875 0.625
vt 1 0.625
vt 1 0.5
vt 0.875 0.5
vt 0.875 0.625
vt 1 0.625
vt 1 0.5
vt 0.875 0.5
vt 0.875 0.625
vt 1 0.625
vt 1 0.5
vt 0.875 0.5
vt 0.875 0.625
vt 1 0.625
vt 1 0.5
vt 0.875 0.5
vt 0.875 0.625
vt 1 0.625
vt 1 0.5
vt 0.875 0.5
vn -1 0 -2.220446049250313e-16
vn 2.220446049250313e-16 0 -1
vn 1 0 2.220446049250313e-16
vn -2.220446049250313e-16 0 1
vn 0 1 0
vn 0 -1 0
usemtl m_bf3d503d-6e6c-856f-d9f0-c18bf06c456f
f 76/228/57 79/227/57 77/226/57 74/225/57
f 75/232/58 76/231/58 74/230/58 73/229/58
f 80/236/59 75/235/59 73/234/59 78/233/59
f 79/240/60 80/239/60 78/238/60 77/237/60
f 78/244/61 73/243/61 74/242/61 77/241/61
f 79/248/62 76/247/62 75/246/62 80/245/62
o cube
v 0.3750000000000001 0.6875 -0.4374999999999999
v -0.3749999999999999 0.6875 -0.4375000000000001
v 0.3750000000000001 0.5625 -0.4374999999999999
v -0.3749999999999999 0.5625 -0.4375000000000001
v -0.3749999999999999 0.6875 -0.3750000000000001
v 0.3750000000000001 0.6875 -0.3749999999999999
v -0.3749999999999999 0.5625 -0.3750000000000001
v 0.3750000000000001 0.5625 -0.3749999999999999
vt 0.875 0.625
vt 1 0.625
vt 1 0.5
vt 0.875 0.5
vt 0.875 0.625
vt 1 0.625
vt 1 0.5
vt 0.875 0.5
vt 0.875 0.625
vt 1 0.625
vt 1 0.5
vt 0.875 0.5
vt 0.875 0.625
vt 1 0.625
vt 1 0.5
vt 0.875 0.5
vt 0.875 0.625
vt 1 0.625
vt 1 0.5
vt 0.875 0.5
vt 0.875 0.625
vt 1 0.625
vt 1 0.5
vt 0.875 0.5
vn -1 0 -2.220446049250313e-16
vn 2.220446049250313e-16 0 -1
vn 1 0 2.220446049250313e-16
vn -2.220446049250313e-16 0 1
vn 0 1 0
vn 0 -1 0
usemtl m_bf3d503d-6e6c-856f-d9f0-c18bf06c456f
f 84/252/63 87/251/63 85/250/63 82/249/63
f 83/256/64 84/255/64 82/254/64 81/253/64
f 88/260/65 83/259/65 81/258/65 86/257/65
f 87/264/66 88/263/66 86/262/66 85/261/66
f 86/268/67 81/267/67 82/266/67 85/265/67
f 87/272/68 84/271/68 83/270/68 88/269/68
o cube
v 0.3749999999999999 0.1875 0.3750000000000001
v -0.3750000000000001 0.1875 0.3749999999999999
v 0.3749999999999999 0.0625 0.3750000000000001
v -0.3750000000000001 0.0625 0.3749999999999999
v -0.3750000000000001 0.1875 0.4374999999999999
v 0.3749999999999999 0.1875 0.4375000000000001
v -0.3750000000000001 0.0625 0.4374999999999999
v 0.3749999999999999 0.0625 0.4375000000000001
vt 0.875 0.625
vt 1 0.625
vt 1 0.5
vt 0.875 0.5
vt 0.875 0.625
vt 1 0.625
vt 1 0.5
vt 0.875 0.5
vt 0.875 0.625
vt 1 0.625
vt 1 0.5
vt 0.875 0.5
vt 0.875 0.625
vt 1 0.625
vt 1 0.5
vt 0.875 0.5
vt 0.875 0.625
vt 1 0.625
vt 1 0.5
vt 0.875 0.5
vt 0.875 0.625
vt 1 0.625
vt 1 0.5
vt 0.875 0.5
vn -1 0 -2.220446049250313e-16
vn 2.220446049250313e-16 0 -1
vn 1 0 2.220446049250313e-16
vn -2.220446049250313e-16 0 1
vn 0 1 0
vn 0 -1 0
usemtl m_bf3d503d-6e6c-856f-d9f0-c18bf06c456f
f 92/276/69 95/275/69 93/274/69 90/273/69
f 91/280/70 92/279/70 90/278/70 89/277/70
f 96/284/71 91/283/71 89/282/71 94/281/71
f 95/288/72 96/287/72 94/286/72 93/285/72
f 94/292/73 89/291/73 90/290/73 93/289/73
f 95/296/74 92/295/74 91/294/74 96/293/74
o cube
v 0.3749999999999999 0.4375 0.3750000000000001
v -0.3750000000000001 0.4375 0.3749999999999999
v 0.3749999999999999 0.3125 0.3750000000000001
v -0.3750000000000001 0.3125 0.3749999999999999
v -0.3750000000000001 0.4375 0.4374999999999999
v 0.3749999999999999 0.4375 0.4375000000000001
v -0.3750000000000001 0.3125 0.4374999999999999
v 0.3749999999999999 0.3125 0.4375000000000001
vt 0.875 0.625
vt 1 0.625
vt 1 0.5
vt 0.875 0.5
vt 0.875 0.625
vt 1 0.625
vt 1 0.5
vt 0.875 0.5
vt 0.875 0.625
vt 1 0.625
vt 1 0.5
vt 0.875 0.5
vt 0.875 0.625
vt 1 0.625
vt 1 0.5
vt 0.875 0.5
vt 0.875 0.625
vt 1 0.625
vt 1 0.5
vt 0.875 0.5
vt 0.875 0.625
vt 1 0.625
vt 1 0.5
vt 0.875 0.5
vn -1 0 -2.220446049250313e-16
vn 2.220446049250313e-16 0 -1
vn 1 0 2.220446049250313e-16
vn -2.220446049250313e-16 0 1
vn 0 1 0
vn 0 -1 0
usemtl m_bf3d503d-6e6c-856f-d9f0-c18bf06c456f
f 100/300/75 103/299/75 101/298/75 98/297/75
f 99/304/76 100/303/76 98/302/76 97/301/76
f 104/308/77 99/307/77 97/306/77 102/305/77
f 103/312/78 104/311/78 102/310/78 101/309/78
f 102/316/79 97/315/79 98/314/79 101/313/79
f 103/320/80 100/319/80 99/318/80 104/317/80
o cube
v 0.3749999999999999 0.6875 0.3750000000000001
v -0.3750000000000001 0.6875 0.3749999999999999
v 0.3749999999999999 0.5625 0.3750000000000001
v -0.3750000000000001 0.5625 0.3749999999999999
v -0.3750000000000001 0.6875 0.4374999999999999
v 0.3749999999999999 0.6875 0.4375000000000001
v -0.3750000000000001 0.5625 0.4374999999999999
v 0.3749999999999999 0.5625 0.4375000000000001
vt 0.875 0.625
vt 1 0.625
vt 1 0.5
vt 0.875 0.5
vt 0.875 0.625
vt 1 0.625
vt 1 0.5
vt 0.875 0.5
vt 0.875 0.625
vt 1 0.625
vt 1 0.5
vt 0.875 0.5
vt 0.875 0.625
vt 1 0.625
vt 1 0.5
vt 0.875 0.5
vt 0.875 0.625
vt 1 0.625
vt 1 0.5
vt 0.875 0.5
vt 0.875 0.625
vt 1 0.625
vt 1 0.5
vt 0.875 0.5
vn -1 0 -2.220446049250313e-16
vn 2.220446049250313e-16 0 -1
vn 1 0 2.220446049250313e-16
vn -2.220446049250313e-16 0 1
vn 0 1 0
vn 0 -1 0
usemtl m_bf3d503d-6e6c-856f-d9f0-c18bf06c456f
f 108/324/81 111/323/81 109/322/81 106/321/81
f 107/328/82 108/327/82 106/326/82 105/325/82
f 112/332/83 107/331/83 105/330/83 110/329/83
f 111/336/84 112/335/84 110/334/84 109/333/84
f 110/340/85 105/339/85 106/338/85 109/337/85
f 111/344/86 108/343/86 107/342/86 112/341/86