# Made in Blockbench 4.7.4
mtllib CampFire.mtl

o cube
v 0 0.125 0.375
v 0 0.125 -0.375
v 0 0 0.375
v 0 0 -0.375
v -0.125 0.125 -0.375
v -0.125 0.125 0.375
v -0.125 0 -0.375
v -0.125 0 0.375
vt 0.875 0.625
vt 1 0.625
vt 1 0.5
vt 0.875 0.5
vt 0.875 0.625
vt 1 0.625
vt 1 0.5
vt 0.875 0.5
vt 0.875 0.625
vt 1 0.625
vt 1 0.5
vt 0.875 0.5
vt 0.875 0.625
vt 1 0.625
vt 1 0.5
vt 0.875 0.5
vt 0.875 0.625
vt 1 0.625
vt 1 0.5
vt 0.875 0.5
vt 0.875 0.625
vt 1 0.625
vt 1 0.5
vt 0.875 0.5
vn 0 0 -1
vn 1 0 0
vn 0 0 1
vn -1 0 0
vn 0 1 0
vn 0 -1 0
usemtl m_c4124e23-0f8b-22db-88e3-60ec5576598e
f 4/4/1 7/3/1 5/2/1 2/1/1
f 3/8/2 4/7/2 2/6/2 1/5/2
f 8/12/3 3/11/3 1/10/3 6/9/3
f 7/16/4 8/15/4 6/14/4 5/13/4
f 6/20/5 1/19/5 2/18/5 5/17/5
f 7/24/6 4/23/6 3/22/6 8/21/6
o cube
v -0.15539077282396752 0.12351278452921854 0.3741170800538205
v -0.22061418211528216 0.12648285624481626 -0.37303557205578813
v -0.15488829535434268 -0.0014850358577988554 0.3735763260548044
v -0.22011170464565732 0.0014850358577987999 -0.37357632605480434
v -0.34513959423293306 0.1259352599868706 -0.3621671832484489
v -0.2799161849416184 0.1229651882712729 0.3849854688611598
v -0.3446371167633082 0.0009374395998531515 -0.36270793724746514
v -0.27941370747199357 -0.0020326321157445593 0.3844447148621435
vt 0.875 0.625
vt 1 0.625
vt 1 0.5
vt 0.875 0.5
vt 0.875 0.625
vt 1 0.625
vt 1 0.5
vt 0.875 0.5
vt 0.875 0.625
vt 1 0.625
vt 1 0.5
vt 0.875 0.5
vt 0.875 0.625
vt 1 0.625
vt 1 0.5
vt 0.875 0.5
vt 0.875 0.625
vt 1 0.625
vt 1 0.5
vt 0.875 0.5
vt 0.875 0.625
vt 1 0.625
vt 1 0.5
vt 0.875 0.5
vn -0.08696454572175284 0.0039600956207969445 -0.996203536146145
vn 0.996203296941207 0.004380770063565571 -0.08694711045871373
vn 0.08696454572175284 -0.0039600956207969445 0.996203536146145
vn -0.996203296941207 -0.004380770063565571 0.08694711045871373
vn -0.004019819756998693 0.9999825630961394 0.004326031992129784
vn 0.004019819756998693 -0.9999825630961394 -0.004326031992129784
usemtl m_c4124e23-0f8b-22db-88e3-60ec5576598e
f 12/28/7 15/27/7 13/26/7 10/25/7
f 11/32/8 12/31/8 10/30/8 9/29/8
f 16/36/9 11/35/9 9/34/9 14/33/9
f 15/40/10 16/39/10 14/38/10 13/37/10
f 14/44/11 9/43/11 10/42/11 13/41/11
f 15/48/12 12/47/12 11/46/12 16/45/12
o cube
v 0.375 0.125 0.375
v 0.375 0.125 -0.375
v 0.375 0 0.375
v 0.375 0 -0.375
v 0.25 0.125 -0.375
v 0.25 0.125 0.375
v 0.25 0 -0.375
v 0.25 0 0.375
vt 0.875 0.625
vt 1 0.625
vt 1 0.5
vt 0.875 0.5
vt 0.875 0.625
vt 1 0.625
vt 1 0.5
vt 0.875 0.5
vt 0.875 0.625
vt 1 0.625
vt 1 0.5
vt 0.875 0.5
vt 0.875 0.625
vt 1 0.625
vt 1 0.5
vt 0.875 0.5
vt 0.875 0.625
vt 1 0.625
vt 1 0.5
vt 0.875 0.5
vt 0.875 0.625
vt 1 0.625
vt 1 0.5
vt 0.875 0.5
vn 0 0 -1
vn 1 0 0
vn 0 0 1
vn -1 0 0
vn 0 1 0
vn 0 -1 0
usemtl m_c4124e23-0f8b-22db-88e3-60ec5576598e
f 20/52/13 23/51/13 21/50/13 18/49/13
f 19/56/14 20/55/14 18/54/14 17/53/14
f 24/60/15 19/59/15 17/58/15 22/57/15
f 23/64/16 24/63/16 22/62/16 21/61/16
f 22/68/17 17/67/17 18/66/17 21/65/17
f 23/72/18 20/71/18 19/70/18 24/69/18
o cube
v 0.23323914866264084 0.12499994678460413 0.3228445168908438
v 0.135344504497652 0.12500004450634727 -0.42073912913951417
v 0.2332391450976764 -5.321539481295545e-8 0.3228445009326836
v 0.13534450093268757 4.450634838448764e-8 -0.4207391450976744
v 0.011413896825924641 0.12500004595785508 -0.40442335511201566
v 0.10930854099091347 0.12499994823611182 0.3391602909183423
v 0.011413893260960206 4.5957856076306314e-8 -0.4044233710701759
v 0.10930853742594904 -5.1763887065625624e-8 0.3391602749601821
vt 0.875 0.625
vt 1 0.625
vt 1 0.5
vt 0.875 0.5
vt 0.875 0.625
vt 1 0.625
vt 1 0.5
vt 0.875 0.5
vt 0.875 0.625
vt 1 0.625
vt 1 0.5
vt 0.875 0.5
vt 0.875 0.625
vt 1 0.625
vt 1 0.5
vt 0.875 0.5
vt 0.875 0.625
vt 1 0.625
vt 1 0.5
vt 0.875 0.5
vt 0.875 0.625
vt 1 0.625
vt 1 0.5
vt 0.875 0.5
vn -0.13052619221998513 1.3029565755701103e-7 -0.9914448613738106
vn 0.9914448613738188 -1.1612061979205813e-8 -0.1305261922199877
vn 0.13052619221998513 -1.3029565755701103e-7 0.9914448613738106
vn -0.9914448613738188 1.1612061979205813e-8 0.1305261922199877
vn 2.851971522295393e-8 0.9999999999999916 1.276652819102532e-7
vn -2.851971522295393e-8 -0.9999999999999916 -1.276652819102532e-7
usemtl m_c4124e23-0f8b-22db-88e3-60ec5576598e
f 28/76/19 31/75/19 29/74/19 26/73/19
f 27/80/20 28/79/20 26/78/20 25/77/20
f 32/84/21 27/83/21 25/82/21 30/81/21
f 31/88/22 32/87/22 30/86/22 29/85/22
f 30/92/23 25/91/23 26/90/23 29/89/23
f 31/96/24 28/95/24 27/94/24 32/93/24
o cube
v 0.29863591206575146 0.25 0.04419417382415913
v -0.05491747852752238 0.25 -0.30935921676911454
v 0.29863591206575146 0.125 0.04419417382415913
v -0.05491747852752238 0.125 -0.30935921676911454
v -0.1433058261758408 0.25 -0.2209708691207961
v 0.21024756441743297 0.25 0.13258252147247762
v -0.1433058261758408 0.125 -0.2209708691207961
v 0.21024756441743297 0.125 0.13258252147247762
vt 0.875 0.5
vt 1 0.5
vt 1 0.375
vt 0.875 0.375
vt 0.875 0.5
vt 1 0.5
vt 1 0.375
vt 0.875 0.375
vt 0.875 0.5
vt 1 0.5
vt 1 0.375
vt 0.875 0.375
vt 0.875 0.5
vt 1 0.5
vt 1 0.375
vt 0.875 0.375
vt 0.875 0.5
vt 1 0.5
vt 1 0.375
vt 0.875 0.375
vt 0.875 0.5
vt 1 0.5
vt 1 0.375
vt 0.875 0.375
vn -0.7071067811865476 0 -0.7071067811865475
vn 0.7071067811865475 0 -0.7071067811865476
vn 0.7071067811865476 0 0.7071067811865475
vn -0.7071067811865475 0 0.7071067811865476
vn 0 1 0
vn 0 -1 0
usemtl m_c4124e23-0f8b-22db-88e3-60ec5576598e
f 36/100/25 39/99/25 37/98/25 34/97/25
f 35/104/26 36/103/26 34/102/26 33/101/26
f 40/108/27 35/107/27 33/106/27 38/105/27
f 39/112/28 40/111/28 38/110/28 37/109/28
f 38/116/29 33/115/29 34/114/29 37/113/29
f 39/120/30 36/119/30 35/118/30 40/117/30
o cube
v 0.16605339059327373 0.25 0.26516504294495524
v -0.1875 0.25 -0.08838834764831843
v 0.16605339059327373 0.125 0.26516504294495524
v -0.1875 0.125 -0.08838834764831843
v -0.27588834764831843 0.25 0
v 0.07766504294495535 0.25 0.35355339059327373
v -0.27588834764831843 0.125 0
v 0.07766504294495535 0.125 0.35355339059327373
vt 0.875 0.5
vt 1 0.5
vt 1 0.375
vt 0.875 0.375
vt 0.875 0.5
vt 1 0.5
vt 1 0.375
vt 0.875 0.375
vt 0.875 0.5
vt 1 0.5
vt 1 0.375
vt 0.875 0.375
vt 0.875 0.5
vt 1 0.5
vt 1 0.375
vt 0.875 0.375
vt 0.875 0.5
vt 1 0.5
vt 1 0.375
vt 0.875 0.375
vt 0.875 0.5
vt 1 0.5
vt 1 0.375
vt 0.875 0.375
vn -0.7071067811865476 0 -0.7071067811865475
vn 0.7071067811865475 0 -0.7071067811865476
vn 0.7071067811865476 0 0.7071067811865475
vn -0.7071067811865475 0 0.7071067811865476
vn 0 1 0
vn 0 -1 0
usemtl m_c4124e23-0f8b-22db-88e3-60ec5576598e
f 44/124/31 47/123/31 45/122/31 42/121/31
f 43/128/32 44/127/32 42/126/32 41/125/32
f 48/132/33 43/131/33 41/130/33 46/129/33
f 47/136/34 48/135/34 46/134/34 45/133/34
f 46/140/35 41/139/35 42/138/35 45/137/35
f 47/144/36 44/143/36 43/142/36 48/141/36