# Made in Blockbench 4.7.4
mtllib Crate.mtl

o cube
v 0.5 1 0.5
v 0.5 1 -0.5
v 0.5 0 0.5
v 0.5 0 -0.5
v -0.5 1 0.5
v -0.5 1 -0.5
v -0.5 0 0.5
v -0.5 0 -0.5
v -0.5 0.875 -0.5
v 0.5 0.875 -0.5
v 0.5 0.875 0.5
v -0.5 0.875 0.5
v -0.5 0.125 -0.5
v 0.5 0.125 -0.5
v 0.5 0.125 0.5
v -0.5 0.125 0.5
v 0.5 1 -0.375
v -0.5 1 -0.375
v -0.5 0.875 -0.375
v -0.5 0.125 -0.375
v -0.5 0 -0.375
v 0.5 0 -0.375
v 0.5 0.125 -0.375
v 0.5 0.875 -0.375
v 0.5 1 0.375
v -0.5 1 0.375
v -0.5 0.875 0.375
v -0.5 0.125 0.375
v -0.5 0 0.375
v 0.5 0 0.375
v 0.5 0.125 0.375
v 0.5 0.875 0.375
v 0.375 0.125 0.5
v 0.375 0.875 0.5
v 0.375 1 0.5
v 0.375 1 0.375
v 0.375 1 -0.375
v 0.375 1 -0.5
v 0.375 0.875 -0.5
v 0.375 0.125 -0.5
v 0.375 0 -0.5
v 0.375 0 -0.375
v 0.375 0 0.375
v 0.375 0 0.5
v -0.375 0.125 0.5
v -0.375 0.875 0.5
v -0.375 1 0.5
v -0.375 1 0.375
v -0.375 1 -0.375
v -0.375 1 -0.5
v -0.375 0.875 -0.5
v -0.375 0.125 -0.5
v -0.375 0 -0.5
v -0.375 0 -0.375
v -0.375 0 0.375
v -0.375 0 0.5
v 0.375 0.9375 -0.375
v -0.375 0.9375 0.375
v -0.375 0.9375 -0.375
v 0.375 0.9375 0.375
v 0.375 0.125 -0.4375
v -0.375 0.875 -0.4375
v -0.375 0.125 -0.4375
v 0.375 0.875 -0.4375
v -0.4375 0.125 -0.375
v -0.4375 0.875 0.375
v -0.4375 0.125 0.375
v -0.4375 0.875 -0.375
v 0.375 0.875 0.4375
v -0.375 0.125 0.4375
v -0.375 0.875 0.4375
v 0.375 0.125 0.4375
v 0.4375 0.875 -0.375
v 0.4375 0.125 0.375
v 0.4375 0.875 0.375
v 0.4375 0.125 -0.375
v 0.375 0.0625 0.375
v -0.375 0.0625 -0.375
v -0.375 0.0625 0.375
v 0.375 0.0625 -0.375
vt 0.96875 0.53125
vt 0.96875 0.53125
vt 0.96875 0.53125
vt 0.96875 0.53125
vt 0.96875 0.53125
vt 0.96875 0.53125
vt 0.96875 0.53125
vt 0.96875 0.53125
vt 0.96875 0.53125
vt 0.96875 0.53125
vt 0.96875 0.53125
vt 0.96875 0.53125
vt 0.96875 0.53125
vt 0.96875 0.53125
vt 0.96875 0.53125
vt 0.96875 0.53125
vt 0.96875 0.53125
vt 0.96875 0.53125
vt 0.96875 0.53125
vt 0.96875 0.53125
vt 0.96875 0.53125
vt 0.96875 0.53125
vt 0.96875 0.53125
vt 0.96875 0.53125
vt 0.96875 0.53125
vt 0.96875 0.53125
vt 0.96875 0.53125
vt 0.96875 0.53125
vt 0.96875 0.53125
vt 0.96875 0.53125
vt 0.96875 0.53125
vt 0.96875 0.53125
vt 0.96875 0.53125
vt 0.96875 0.53125
vt 0.96875 0.53125
vt 0.96875 0.53125
vt 0.96875 0.53125
vt 0.96875 0.53125
vt 0.96875 0.53125
vt 0.96875 0.53125
vt 0.96875 0.53125
vt 0.96875 0.53125
vt 0.96875 0.53125
vt 0.96875 0.53125
vt 0.96875 0.53125
vt 0.96875 0.53125
vt 0.96875 0.53125
vt 0.96875 0.53125
vt 0.96875 0.53125
vt 0.96875 0.53125
vt 0.96875 0.53125
vt 0.96875 0.53125
vt 0.96875 0.53125
vt 0.96875 0.53125
vt 0.96875 0.53125
vt 0.96875 0.53125
vt 0.96875 0.53125
vt 0.96875 0.53125
vt 0.96875 0.53125
vt 0.96875 0.53125
vt 0.96875 0.53125
vt 0.96875 0.53125
vt 0.96875 0.53125
vt 0.96875 0.53125
vt 0.75 0.5
vt 0.875 0.5
vt 0.875 0.625
vt 0.75 0.625
vt 0.96875 0.53125
vt 0.96875 0.53125
vt 0.96875 0.53125
vt 0.96875 0.53125
vt 0.96875 0.53125
vt 0.96875 0.53125
vt 0.96875 0.53125
vt 0.96875 0.53125
vt 0.96875 0.53125
vt 0.96875 0.53125
vt 0.96875 0.53125
vt 0.96875 0.53125
vt 0.875 0.625
vt 0.75 0.625
vt 0.75 0.5
vt 0.875 0.5
vt 0.96875 0.53125
vt 0.96875 0.53125
vt 0.96875 0.53125
vt 0.96875 0.53125
vt 0.96875 0.53125
vt 0.96875 0.53125
vt 0.96875 0.53125
vt 0.96875 0.53125
vt 0.96875 0.53125
vt 0.96875 0.53125
vt 0.96875 0.53125
vt 0.96875 0.53125
vt 0.96875 0.53125
vt 0.96875 0.53125
vt 0.96875 0.53125
vt 0.96875 0.53125
vt 0.96875 0.53125
vt 0.96875 0.53125
vt 0.96875 0.53125
vt 0.96875 0.53125
vt 0.96875 0.53125
vt 0.96875 0.53125
vt 0.96875 0.53125
vt 0.96875 0.53125
vt 0.96875 0.53125
vt 0.96875 0.53125
vt 0.96875 0.53125
vt 0.96875 0.53125
vt 0.96875 0.53125
vt 0.96875 0.53125
vt 0.96875 0.53125
vt 0.96875 0.53125
vt 0.96875 0.53125
vt 0.96875 0.53125
vt 0.96875 0.53125
vt 0.96875 0.53125
vt 0.875 0.625
vt 0.75 0.625
vt 0.75 0.5
vt 0.875 0.5
vt 0.96875 0.53125
vt 0.96875 0.53125
vt 0.96875 0.53125
vt 0.96875 0.53125
vt 0.96875 0.53125
vt 0.96875 0.53125
vt 0.96875 0.53125
vt 0.96875 0.53125
vt 0.875 0.625
vt 0.75 0.625
vt 0.75 0.5
vt 0.875 0.5
vt 0.96875 0.53125
vt 0.96875 0.53125
vt 0.96875 0.53125
vt 0.96875 0.53125
vt 0.96875 0.53125
vt 0.96875 0.53125
vt 0.96875 0.53125
vt 0.96875 0.53125
vt 0.75 0.5
vt 0.875 0.5
vt 0.875 0.625
vt 0.75 0.625
vt 0.96875 0.53125
vt 0.96875 0.53125
vt 0.96875 0.53125
vt 0.96875 0.53125
vt 0.96875 0.53125
vt 0.96875 0.53125
vt 0.96875 0.53125
vt 0.96875 0.53125
vt 0.875 0.625
vt 0.75 0.625
vt 0.75 0.5
vt 0.875 0.5
vt 0.96875 0.53125
vt 0.96875 0.53125
vt 0.96875 0.53125
vt 0.96875 0.53125
vt 0.96875 0.53125
vt 0.96875 0.53125
vt 0.96875 0.53125
vt 0.96875 0.53125
vt 0.96875 0.53125
vt 0.96875 0.53125
vt 0.96875 0.53125
vt 0.96875 0.53125
vt 0.96875 0.53125
vt 0.96875 0.53125
vt 0.96875 0.53125
vt 0.96875 0.53125
vt 0.96875 0.53125
vt 0.96875 0.53125
vt 0.96875 0.53125
vt 0.96875 0.53125
vt 0.96875 0.53125
vt 0.96875 0.53125
vt 0.96875 0.53125
vt 0.96875 0.53125
vt 0.96875 0.53125
vt 0.96875 0.53125
vt 0.96875 0.53125
vt 0.96875 0.53125
vt 0.96875 0.53125
vt 0.96875 0.53125
vt 0.96875 0.53125
vt 0.96875 0.53125
vt 0.96875 0.53125
vt 0.96875 0.53125
vt 0.96875 0.53125
vt 0.96875 0.53125
vt 0.96875 0.53125
vt 0.96875 0.53125
vt 0.96875 0.53125
vt 0.96875 0.53125
vt 0.96875 0.53125
vt 0.96875 0.53125
vt 0.96875 0.53125
vt 0.96875 0.53125
vt 0.96875 0.53125
vt 0.96875 0.53125
vt 0.96875 0.53125
vt 0.96875 0.53125
vt 0.96875 0.53125
vt 0.96875 0.53125
vt 0.96875 0.53125
vt 0.96875 0.53125
vt 0.96875 0.53125
vt 0.96875 0.53125
vt 0.96875 0.53125
vt 0.96875 0.53125
vt 0.96875 0.53125
vt 0.96875 0.53125
vt 0.96875 0.53125
vt 0.96875 0.53125
vt 0.96875 0.53125
vt 0.96875 0.53125
vt 0.96875 0.53125
vt 0.96875 0.53125
vt 0.96875 0.53125
vt 0.96875 0.53125
vt 0.96875 0.53125
vt 0.96875 0.53125
vt 0.96875 0.53125
vt 0.96875 0.53125
vt 0.96875 0.53125
vt 0.96875 0.53125
vt 0.96875 0.53125
vt 0.96875 0.53125
vt 0.96875 0.53125
vt 0.96875 0.53125
vt 0.96875 0.53125
vt 0.96875 0.53125
vt 0.96875 0.53125
vt 0.96875 0.53125
vt 0.96875 0.53125
vt 0.96875 0.53125
vt 0.96875 0.53125
vt 0.96875 0.53125
vt 0.96875 0.53125
vt 0.96875 0.53125
vt 0.96875 0.53125
vt 0.96875 0.53125
vt 0.96875 0.53125
vt 0.96875 0.53125
vt 0.96875 0.53125
vt 0.96875 0.53125
vt 0.96875 0.53125
vt 0.96875 0.53125
vt 0.96875 0.53125
vt 0.96875 0.53125
vt 0.96875 0.53125
vt 0.96875 0.53125
vt 0.96875 0.53125
vt 0.96875 0.53125
vt 0.96875 0.53125
vt 0.96875 0.53125
vt 0.96875 0.53125
vt 0.96875 0.53125
vt 0.96875 0.53125
vt 0.96875 0.53125
vt 0.96875 0.53125
vt 0.96875 0.53125
vt 0.96875 0.53125
vt 0.96875 0.53125
vt 0.96875 0.53125
vt 0.96875 0.53125
vt 0.96875 0.53125
vt 0.96875 0.53125
vt 0.96875 0.53125
vt 0.96875 0.53125
vt 0.96875 0.53125
vt 0.96875 0.53125
vt 0.96875 0.53125
vt 0.96875 0.53125
vt 0.96875 0.53125
vt 0.96875 0.53125
vt 0.96875 0.53125
vt 0.96875 0.53125
vt 0.96875 0.53125
vt 0.96875 0.53125
vt 0.96875 0.53125
vt 0.96875 0.53125
vt 0.96875 0.53125
vt 0.96875 0.53125
vt 0.96875 0.53125
vt 0.96875 0.53125
vt 0.96875 0.53125
vt 0.96875 0.53125
vt 0.96875 0.53125
vt 0.96875 0.53125
vt 0.96875 0.53125
vt 0.96875 0.53125
vt 0.96875 0.53125
vt 0.96875 0.53125
vt 0.96875 0.53125
vt 0.96875 0.53125
vt 0.96875 0.53125
vt 0.96875 0.53125
vt 0.96875 0.53125
vt 0.96875 0.53125
vt 0.96875 0.53125
vt 0.96875 0.53125
vt 0.96875 0.53125
vt 0.96875 0.53125
vt 0.96875 0.53125
vt 0.96875 0.53125
vn 1 0 0
vn -1 0 0
vn 0 1 0
vn 0 -1 0
vn 0 0 1
vn 0 0 -1
vn 0 0 -1
vn 1 0 0
vn 0 0 1
vn -1 0 0
vn 0 0 -1
vn 1 0 0
vn 0 0 1
vn -1 0 0
vn 0 1 0
vn -1 0 0
vn -1 0 0
vn -1 0 0
vn 0 -1 0
vn 1 0 0
vn 1 0 0
vn 1 0 0
vn 0 1 0
vn -1 0 0
vn -1 0 0
vn -1 0 0
vn 0 -1 0
vn 1 0 0
vn 1 0 0
vn 1 0 0
vn 0 0 1
vn 0 0 1
vn 0 1 0
vn 0 1 0
vn 0 1 0
vn 0 0 -1
vn 0 0 -1
vn 0 0 -1
vn 0 -1 0
vn 0 -1 0
vn 0 -1 0
vn 0 0 1
vn 0 0 1
vn 0 0 1
vn 0 1 0
vn 0 1 0
vn 0 1 0
vn 0 0 -1
vn 0 0 -1
vn 0 0 -1
vn 0 -1 0
vn 0 -1 0
vn 0 -1 0
vn 0 0 1
vn 0 0 1
vn 1 0 0
vn 0 0 -1
vn -1 0 0
vn 0 1 0
vn 1 0 0
vn 0 -1 0
vn -1 0 0
vn 0 1 0
vn 0 0 -1
vn 0 -1 0
vn 0 0 1
vn 0 -1 0
vn 1 0 0
vn 0 1 0
vn -1 0 0
vn 0 -1 0
vn 0 0 -1
vn 0 1 0
vn 0 0 1
vn 0 0 -1
vn 1 0 0
vn 0 0 1
vn -1 0 0
usemtl m_f51b9e50-bad3-9dfe-4774-4cbe77cbbce4
f 2/1/1 17/2/1 24/3/1 10/4/1
f 9/5/2 19/6/2 18/7/2 6/8/2
f 2/9/3 38/10/3 37/11/3 17/12/3
f 22/13/4 42/14/4 41/15/4 4/16/4
f 1/17/5 35/18/5 34/19/5 11/20/5
f 10/21/6 39/22/6 38/23/6 2/24/6
f 14/25/7 40/26/7 39/27/7 10/28/7
f 10/29/8 24/30/8 23/31/8 14/32/8
f 11/33/9 34/34/9 33/35/9 15/36/9
f 13/37/10 20/38/10 19/39/10 9/40/10
f 4/41/11 41/42/11 40/43/11 14/44/11
f 14/45/12 23/46/12 22/47/12 4/48/12
f 15/49/13 33/50/13 44/51/13 3/52/13
f 8/53/14 21/54/14 20/55/14 13/56/14
f 17/57/15 37/58/15 36/59/15 25/60/15
f 19/61/16 27/62/16 26/63/16 18/64/16
f 65/65/17 67/66/17 66/67/17 68/68/17
f 21/69/18 29/70/18 28/71/18 20/72/18
f 30/73/19 43/74/19 42/75/19 22/76/19
f 23/77/20 31/78/20 30/79/20 22/80/20
f 73/81/21 75/82/21 74/83/21 76/84/21
f 17/85/22 25/86/22 32/87/22 24/88/22
f 25/89/23 36/90/23 35/91/23 1/92/23
f 5/93/24 26/94/24 27/95/24 12/96/24
f 12/97/25 27/98/25 28/99/25 16/100/25
f 16/101/26 28/102/26 29/103/26 7/104/26
f 3/105/27 44/106/27 43/107/27 30/108/27
f 3/109/28 30/110/28 31/111/28 15/112/28
f 15/113/29 31/114/29 32/115/29 11/116/29
f 11/117/30 32/118/30 25/119/30 1/120/30
f 69/121/31 71/122/31 70/123/31 72/124/31
f 35/125/32 47/126/32 46/127/32 34/128/32
f 36/129/33 48/130/33 47/131/33 35/132/33
f 57/133/34 59/134/34 58/135/34 60/136/34
f 38/137/35 50/138/35 49/139/35 37/140/35
f 39/141/36 51/142/36 50/143/36 38/144/36
f 61/145/37 63/146/37 62/147/37 64/148/37
f 41/149/38 53/150/38 52/151/38 40/152/38
f 42/153/39 54/154/39 53/155/39 41/156/39
f 77/157/40 79/158/40 78/159/40 80/160/40
f 44/161/41 56/162/41 55/163/41 43/164/41
f 33/165/42 45/166/42 56/167/42 44/168/42
f 16/169/43 45/170/43 46/171/43 12/172/43
f 12/173/44 46/174/44 47/175/44 5/176/44
f 5/177/45 47/178/45 48/179/45 26/180/45
f 26/181/46 48/182/46 49/183/46 18/184/46
f 18/185/47 49/186/47 50/187/47 6/188/47
f 6/189/48 50/190/48 51/191/48 9/192/48
f 9/193/49 51/194/49 52/195/49 13/196/49
f 13/197/50 52/198/50 53/199/50 8/200/50
f 8/201/51 53/202/51 54/203/51 21/204/51
f 21/205/52 54/206/52 55/207/52 29/208/52
f 29/209/53 55/210/53 56/211/53 7/212/53
f 7/213/54 56/214/54 45/215/54 16/216/54
f 59/217/55 57/218/55 37/219/55 49/220/55
f 58/221/56 59/222/56 49/223/56 48/224/56
f 60/225/57 58/226/57 48/227/57 36/228/57
f 57/229/58 60/230/58 36/231/58 37/232/58
f 63/233/59 61/234/59 40/235/59 52/236/59
f 62/237/60 63/238/60 52/239/60 51/240/60
f 64/241/61 62/242/61 51/243/61 39/244/61
f 61/245/62 64/246/62 39/247/62 40/248/62
f 67/249/63 65/250/63 20/251/63 28/252/63
f 66/253/64 67/254/64 28/255/64 27/256/64
f 68/257/65 66/258/65 27/259/65 19/260/65
f 65/261/66 68/262/66 19/263/66 20/264/66
f 71/265/67 69/266/67 34/267/67 46/268/67
f 70/269/68 71/270/68 46/271/68 45/272/68
f 72/273/69 70/274/69 45/275/69 33/276/69
f 69/277/70 72/278/70 33/279/70 34/280/70
f 75/281/71 73/282/71 24/283/71 32/284/71
f 74/285/72 75/286/72 32/287/72 31/288/72
f 76/289/73 74/290/73 31/291/73 23/292/73
f 73/293/74 76/294/74 23/295/74 24/296/74
f 79/297/75 77/298/75 43/299/75 55/300/75
f 78/301/76 79/302/76 55/303/76 54/304/76
f 80/305/77 78/306/77 54/307/77 42/308/77
f 77/309/78 80/310/78 42/311/78 43/312/78
o Plank
v -0.4375 0.25 0.375
v -0.4375 0.875 -0.25
v -0.4375 0.125 0.25
v -0.4375 0.75 -0.375
v -0.5 0.25 0.375
v -0.5 0.875 -0.25
v -0.5 0.125 0.25
v -0.5 0.75 -0.375
v -0.5 0.125 0.375
v -0.5 0.875 -0.375
v -0.4375 0.875 -0.375
v -0.4375 0.125 0.375
vt 0.875 0.625
vt 0.875 0.5625
vt 1 0.5625
vt 1 0.625
vt 0.875 0.625
vt 0.875 0.5625
vt 1 0.5625
vt 1 0.625
vt 0.9375 0.5
vt 0.9375 0.625
vt 0.875 0.625
vt 0.875 0.5
vt 0.9375 0.5
vt 0.9375 0.625
vt 0.875 0.625
vt 0.875 0.5
vt 0.875 0.625
vt 0.875 0.5625
vt 0.9375 0.5625
vt 0.9375 0.625
vt 0.875 0.625
vt 0.875 0.5625
vt 0.9375 0.5625
vt 0.9375 0.625
vt 1 0.5
vt 1 0.5625
vt 0.875 0.5625
vt 0.875 0.5
vt 0.9375 0.5
vt 0.9375 0.5625
vt 0.875 0.5625
vt 0.875 0.5
vt 1 0.5
vt 1 0.5625
vt 0.875 0.5625
vt 0.875 0.5
vt 0.9375 0.5
vt 0.9375 0.5625
vt 0.875 0.5625
vt 0.875 0.5
vn 1 0 0
vn -1 0 0
vn 0 0.7071067811865476 0.7071067811865476
vn 0 -0.7071067811865476 -0.7071067811865476
vn 0 0 1
vn 0 1 0
vn -1 0 0
vn 0 0 -1
vn 1 0 0
vn 0 -1 0
usemtl m_f51b9e50-bad3-9dfe-4774-4cbe77cbbce4
f 81/313/79 92/314/79 91/315/79 82/316/79
f 86/317/80 90/318/80 89/319/80 85/320/80
f 81/321/81 82/322/81 86/323/81 85/324/81
f 84/325/82 83/326/82 87/327/82 88/328/82
f 85/329/83 89/330/83 92/331/83 81/332/83
f 82/333/84 91/334/84 90/335/84 86/336/84
f 87/337/85 89/338/85 90/339/85 88/340/85
f 88/341/86 90/342/86 91/343/86 84/344/86
f 84/345/87 91/346/87 92/347/87 83/348/87
f 83/349/88 92/350/88 89/351/88 87/352/88
o Plank
v -0.3750000000000001 0.25 -0.4374999999999999
v 0.2499999999999999 0.875 -0.43750000000000006
v -0.2500000000000001 0.125 -0.43749999999999994
v 0.3749999999999999 0.75 -0.4375000000000001
v -0.3750000000000001 0.25 -0.4999999999999999
v 0.2499999999999999 0.875 -0.5
v -0.2500000000000001 0.125 -0.49999999999999994
v 0.3749999999999999 0.75 -0.5000000000000001
v -0.3750000000000001 0.125 -0.4999999999999999
v 0.3749999999999999 0.875 -0.5000000000000001
v 0.3749999999999999 0.875 -0.4375000000000001
v -0.3750000000000001 0.125 -0.4374999999999999
vt 0.875 0.625
vt 0.875 0.5625
vt 1 0.5625
vt 1 0.625
vt 0.875 0.625
vt 0.875 0.5625
vt 1 0.5625
vt 1 0.625
vt 0.9375 0.5
vt 0.9375 0.625
vt 0.875 0.625
vt 0.875 0.5
vt 0.9375 0.5
vt 0.9375 0.625
vt 0.875 0.625
vt 0.875 0.5
vt 0.875 0.625
vt 0.875 0.5625
vt 0.9375 0.5625
vt 0.9375 0.625
vt 0.875 0.625
vt 0.875 0.5625
vt 0.9375 0.5625
vt 0.9375 0.625
vt 1 0.5
vt 1 0.5625
vt 0.875 0.5625
vt 0.875 0.5
vt 0.9375 0.5
vt 0.9375 0.5625
vt 0.875 0.5625
vt 0.875 0.5
vt 1 0.5
vt 1 0.5625
vt 0.875 0.5625
vt 0.875 0.5
vt 0.9375 0.5
vt 0.9375 0.5625
vt 0.875 0.5625
vt 0.875 0.5
vn 2.220446049250313e-16 0 1
vn -2.220446049250313e-16 0 -1
vn -0.7071067811865476 0.7071067811865476 1.5700924586837752e-16
vn 0.7071067811865476 -0.7071067811865476 -1.5700924586837752e-16
vn -1 0 2.220446049250313e-16
vn 0 1 0
vn -2.220446049250313e-16 0 -1
vn 1 0 -2.220446049250313e-16
vn 2.220446049250313e-16 0 1
vn 0 -1 0
usemtl m_f51b9e50-bad3-9dfe-4774-4cbe77cbbce4
f 93/353/89 104/354/89 103/355/89 94/356/89
f 98/357/90 102/358/90 101/359/90 97/360/90
f 93/361/91 94/362/91 98/363/91 97/364/91
f 96/365/92 95/366/92 99/367/92 100/368/92
f 97/369/93 101/370/93 104/371/93 93/372/93
f 94/373/94 103/374/94 102/375/94 98/376/94
f 99/377/95 101/378/95 102/379/95 100/380/95
f 100/381/96 102/382/96 103/383/96 96/384/96
f 96/385/97 103/386/97 104/387/97 95/388/97
f 95/389/98 104/390/98 101/391/98 99/392/98
o Plank
v 0.43749999999999994 0.25 -0.37500000000000006
v 0.43750000000000006 0.875 0.24999999999999994
v 0.43749999999999994 0.125 -0.25000000000000006
v 0.43750000000000006 0.75 0.37499999999999994
v 0.49999999999999994 0.25 -0.37500000000000006
v 0.5 0.875 0.24999999999999994
v 0.49999999999999994 0.125 -0.25000000000000006
v 0.5 0.75 0.37499999999999994
v 0.49999999999999994 0.125 -0.37500000000000006
v 0.5 0.875 0.37499999999999994
v 0.43750000000000006 0.875 0.37499999999999994
v 0.43749999999999994 0.125 -0.37500000000000006
vt 0.875 0.625
vt 0.875 0.5625
vt 1 0.5625
vt 1 0.625
vt 0.875 0.625
vt 0.875 0.5625
vt 1 0.5625
vt 1 0.625
vt 0.9375 0.5
vt 0.9375 0.625
vt 0.875 0.625
vt 0.875 0.5
vt 0.9375 0.5
vt 0.9375 0.625
vt 0.875 0.625
vt 0.875 0.5
vt 0.875 0.625
vt 0.875 0.5625
vt 0.9375 0.5625
vt 0.9375 0.625
vt 0.875 0.625
vt 0.875 0.5625
vt 0.9375 0.5625
vt 0.9375 0.625
vt 1 0.5
vt 1 0.5625
vt 0.875 0.5625
vt 0.875 0.5
vt 0.9375 0.5
vt 0.9375 0.5625
vt 0.875 0.5625
vt 0.875 0.5
vt 1 0.5
vt 1 0.5625
vt 0.875 0.5625
vt 0.875 0.5
vt 0.9375 0.5
vt 0.9375 0.5625
vt 0.875 0.5625
vt 0.875 0.5
vn -1 0 1.2246467991473532e-16
vn 1 0 -1.2246467991473532e-16
vn -8.659560562354934e-17 0.7071067811865476 -0.7071067811865476
vn 8.659560562354934e-17 -0.7071067811865476 0.7071067811865476
vn -1.2246467991473532e-16 0 -1
vn 0 1 0
vn 1 0 -1.2246467991473532e-16
vn 1.2246467991473532e-16 0 1
vn -1 0 1.2246467991473532e-16
vn 0 -1 0
usemtl m_f51b9e50-bad3-9dfe-4774-4cbe77cbbce4
f 105/393/99 116/394/99 115/395/99 106/396/99
f 110/397/100 114/398/100 113/399/100 109/400/100
f 105/401/101 106/402/101 110/403/101 109/404/101
f 108/405/102 107/406/102 111/407/102 112/408/102
f 109/409/103 113/410/103 116/411/103 105/412/103
f 106/413/104 115/414/104 114/415/104 110/416/104
f 111/417/105 113/418/105 114/419/105 112/420/105
f 112/421/106 114/422/106 115/423/106 108/424/106
f 108/425/107 115/426/107 116/427/107 107/428/107
f 107/429/108 116/430/108 113/431/108 111/432/108
o Plank
v 0.3749999999999999 0.25 0.4375000000000001
v -0.2500000000000001 0.875 0.43749999999999994
v 0.2499999999999999 0.125 0.43750000000000006
v -0.3750000000000001 0.75 0.4374999999999999
v 0.3749999999999999 0.25 0.5000000000000001
v -0.2500000000000001 0.875 0.49999999999999994
v 0.2499999999999999 0.125 0.5
v -0.3750000000000001 0.75 0.4999999999999999
v 0.3749999999999999 0.125 0.5000000000000001
v -0.3750000000000001 0.875 0.4999999999999999
v -0.3750000000000001 0.875 0.4374999999999999
v 0.3749999999999999 0.125 0.4375000000000001
vt 0.875 0.625
vt 0.875 0.5625
vt 1 0.5625
vt 1 0.625
vt 0.875 0.625
vt 0.875 0.5625
vt 1 0.5625
vt 1 0.625
vt 0.9375 0.5
vt 0.9375 0.625
vt 0.875 0.625
vt 0.875 0.5
vt 0.9375 0.5
vt 0.9375 0.625
vt 0.875 0.625
vt 0.875 0.5
vt 0.875 0.625
vt 0.875 0.5625
vt 0.9375 0.5625
vt 0.9375 0.625
vt 0.875 0.625
vt 0.875 0.5625
vt 0.9375 0.5625
vt 0.9375 0.625
vt 1 0.5
vt 1 0.5625
vt 0.875 0.5625
vt 0.875 0.5
vt 0.9375 0.5
vt 0.9375 0.5625
vt 0.875 0.5625
vt 0.875 0.5
vt 1 0.5
vt 1 0.5625
vt 0.875 0.5625
vt 0.875 0.5
vt 0.9375 0.5
vt 0.9375 0.5625
vt 0.875 0.5625
vt 0.875 0.5
vn 2.220446049250313e-16 0 -1
vn -2.220446049250313e-16 0 1
vn 0.7071067811865476 0.7071067811865476 1.5700924586837752e-16
vn -0.7071067811865476 -0.7071067811865476 -1.5700924586837752e-16
vn 1 0 2.220446049250313e-16
vn 0 1 0
vn -2.220446049250313e-16 0 1
vn -1 0 -2.220446049250313e-16
vn 2.220446049250313e-16 0 -1
vn 0 -1 0
usemtl m_f51b9e50-bad3-9dfe-4774-4cbe77cbbce4
f 117/433/109 128/434/109 127/435/109 118/436/109
f 122/437/110 126/438/110 125/439/110 121/440/110
f 117/441/111 118/442/111 122/443/111 121/444/111
f 120/445/112 119/446/112 123/447/112 124/448/112
f 121/449/113 125/450/113 128/451/113 117/452/113
f 118/453/114 127/454/114 126/455/114 122/456/114
f 123/457/115 125/458/115 126/459/115 124/460/115
f 124/461/116 126/462/116 127/463/116 120/464/116
f 120/465/117 127/466/117 128/467/117 119/468/117
f 119/469/118 128/470/118 125/471/118 123/472/118
o Plank
v 0.37499999078037677 0.9375000079025341 0.24999999999999992
v -0.2500000092196231 0.9374999947316438 -0.37499999999999994
v 0.24999999078037682 0.937500005268356 0.37499999999999994
v -0.37500000921962306 0.9374999920974657 -0.2499999999999999
v 0.3749999894632877 1.0000000079025342 0.24999999999999992
v -0.2500000105367121 0.9999999947316438 -0.37499999999999994
v 0.2499999894632878 1.000000005268356 0.37499999999999994
v -0.37500001053671206 0.9999999920974657 -0.2499999999999999
v 0.3749999894632877 1.0000000079025342 0.3749999999999999
v -0.37500001053671206 0.9999999920974657 -0.3749999999999999
v -0.37500000921962306 0.9374999920974657 -0.3749999999999999
v 0.37499999078037677 0.9375000079025341 0.3749999999999999
vt 0.875 0.625
vt 0.875 0.5625
vt 1 0.5625
vt 1 0.625
vt 0.875 0.625
vt 0.875 0.5625
vt 1 0.5625
vt 1 0.625
vt 0.9375 0.5
vt 0.9375 0.625
vt 0.875 0.625
vt 0.875 0.5
vt 0.9375 0.5
vt 0.9375 0.625
vt 0.875 0.625
vt 0.875 0.5
vt 0.875 0.625
vt 0.875 0.5625
vt 0.9375 0.5625
vt 0.9375 0.625
vt 0.875 0.625
vt 0.875 0.5625
vt 0.9375 0.5625
vt 0.9375 0.625
vt 1 0.5
vt 1 0.5625
vt 0.875 0.5625
vt 0.875 0.5
vt 0.9375 0.5
vt 0.9375 0.5625
vt 0.875 0.5625
vt 0.875 0.5
vt 1 0.5
vt 1 0.5625
vt 0.875 0.5625
vt 0.875 0.5
vt 0.9375 0.5
vt 0.9375 0.5625
vt 0.875 0.5625
vt 0.875 0.5
vn 2.1073424449902234e-8 -0.9999999999999998 -1.1698100515990092e-24
vn -2.1073424449902234e-8 0.9999999999999998 1.1698100515990092e-24
vn 0.7071067811865474 1.4901161292095947e-8 -0.7071067811865476
vn -0.7071067811865474 -1.4901161292095947e-8 0.7071067811865476
vn 0.9999999999999998 2.107342433887993e-8 -5.5511151231257815e-17
vn -2.2204460609484133e-16 5.551114655201763e-17 -1
vn -2.1073424449902234e-8 0.9999999999999998 1.1698100515990092e-24
vn -0.9999999999999998 -2.107342433887993e-8 5.5511151231257815e-17
vn 2.1073424449902234e-8 -0.9999999999999998 -1.1698100515990092e-24
vn 2.2204460609484133e-16 -5.551114655201763e-17 1
usemtl m_f51b9e50-bad3-9dfe-4774-4cbe77cbbce4
f 129/473/119 140/474/119 139/475/119 130/476/119
f 134/477/120 138/478/120 137/479/120 133/480/120
f 129/481/121 130/482/121 134/483/121 133/484/121
f 132/485/122 131/486/122 135/487/122 136/488/122
f 133/489/123 137/490/123 140/491/123 129/492/123
f 130/493/124 139/494/124 138/495/124 134/496/124
f 135/497/125 137/498/125 138/499/125 136/500/125
f 136/501/126 138/502/126 139/503/126 132/504/126
f 132/505/127 139/506/127 140/507/127 131/508/127
f 131/509/128 140/510/128 137/511/128 135/512/128
o Plank
v 0.3749999999999999 0.06249999999999989 -0.2499999999999999
v -0.2500000000000001 0.06250000000000017 0.3750000000000001
v 0.2499999999999999 0.06249999999999983 -0.3749999999999999
v -0.3750000000000001 0.06250000000000011 0.2500000000000001
v 0.3749999999999999 -1.1102230246251565e-16 -0.2499999999999999
v -0.2500000000000001 1.6653345369377348e-16 0.3750000000000001
v 0.2499999999999999 -2.220446049250313e-16 -0.3749999999999999
v -0.3750000000000001 1.1102230246251565e-16 0.2500000000000001
v 0.3749999999999999 -2.220446049250313e-16 -0.3749999999999999
v -0.3750000000000001 2.220446049250313e-16 0.3750000000000001
v -0.3750000000000001 0.06250000000000022 0.3750000000000001
v 0.3749999999999999 0.06249999999999978 -0.3749999999999999
vt 0.875 0.625
vt 0.875 0.5625
vt 1 0.5625
vt 1 0.625
vt 0.875 0.625
vt 0.875 0.5625
vt 1 0.5625
vt 1 0.625
vt 0.9375 0.5
vt 0.9375 0.625
vt 0.875 0.625
vt 0.875 0.5
vt 0.9375 0.5
vt 0.9375 0.625
vt 0.875 0.625
vt 0.875 0.5
vt 0.875 0.625
vt 0.875 0.5625
vt 0.9375 0.5625
vt 0.9375 0.625
vt 0.875 0.625
vt 0.875 0.5625
vt 0.9375 0.5625
vt 0.9375 0.625
vt 1 0.5
vt 1 0.5625
vt 0.875 0.5625
vt 0.875 0.5
vt 0.9375 0.5
vt 0.9375 0.5625
vt 0.875 0.5625
vt 0.875 0.5
vt 1 0.5
vt 1 0.5625
vt 0.875 0.5625
vt 0.875 0.5
vt 0.9375 0.5
vt 0.9375 0.5625
vt 0.875 0.5625
vt 0.875 0.5
vn 2.220446049250313e-16 1 -2.220446049250313e-16
vn -2.220446049250313e-16 -1 2.220446049250313e-16
vn 0.7071067811865476 0 0.7071067811865476
vn -0.7071067811865476 0 -0.7071067811865476
vn 1 -2.220446049250313e-16 4.930380657631324e-32
vn 4.930380657631324e-32 2.220446049250313e-16 1
vn -2.220446049250313e-16 -1 2.220446049250313e-16
vn -1 2.220446049250313e-16 -4.930380657631324e-32
vn 2.220446049250313e-16 1 -2.220446049250313e-16
vn -4.930380657631324e-32 -2.220446049250313e-16 -1
usemtl m_f51b9e50-bad3-9dfe-4774-4cbe77cbbce4
f 141/513/129 152/514/129 151/515/129 142/516/129
f 146/517/130 150/518/130 149/519/130 145/520/130
f 141/521/131 142/522/131 146/523/131 145/524/131
f 144/525/132 143/526/132 147/527/132 148/528/132
f 145/529/133 149/530/133 152/531/133 141/532/133
f 142/533/134 151/534/134 150/535/134 146/536/134
f 147/537/135 149/538/135 150/539/135 148/540/135
f 148/541/136 150/542/136 151/543/136 144/544/136
f 144/545/137 151/546/137 152/547/137 143/548/137
f 143/549/138 152/550/138 149/551/138 147/552/138