# Made in Blockbench 4.8.1
mtllib FistHatchet.mtl

o cube
v 0.09375 0.046875 0.15625
v 0.09375 0.046875 -0.15625
v 0.09375 0.015625 0.15625
v 0.09375 0.015625 -0.15625
v -0.09375 0.08437499999999999 0.09375
v -0.09375 0.08437499999999999 -0.09375
v -0.09375 -0.02187499999999999 0.09375
v -0.09375 -0.02187499999999999 -0.09375
vt 0.8124999999999998 0.9375
vt 0.8124999999999998 0.9375
vt 0.8124999999999998 0.9375
vt 0.8124999999999998 0.9375
vt 0.8124999999999998 0.9375
vt 0.8124999999999998 0.9375
vt 0.8124999999999998 0.9375
vt 0.8124999999999998 0.9375
vt 0.8124999999999998 0.9375
vt 0.8124999999999998 0.9375
vt 0.8124999999999998 0.9375
vt 0.8124999999999998 0.9375
vt 0.8124999999999998 0.9375
vt 0.8124999999999998 0.9375
vt 0.8124999999999998 0.9375
vt 0.8124999999999998 0.9375
vt 0.8124999999999998 0.9375
vt 0.8124999999999998 0.9375
vt 0.8124999999999998 0.9375
vt 0.8124999999999998 0.9375
vt 0.8124999999999998 0.9375
vt 0.8124999999999998 0.9375
vt 0.8124999999999998 0.9375
vt 0.8124999999999998 0.9375
vn 1 0 0
vn -1 0 0
vn 0.19611613513818402 0.9805806756909203 0
vn 0.19611613513818402 -0.9805806756909203 0
vn -0.316227766016838 0 0.948683298050514
vn -0.31622776601683794 0 -0.9486832980505139
usemtl m_235d5d15-2b69-8440-5cd9-7444df83173c
f 4/1/1 2/2/1 1/3/1 3/4/1
f 7/5/2 5/6/2 6/7/2 8/8/2
f 1/9/3 2/10/3 6/11/3 5/12/3
f 4/13/4 3/14/4 7/15/4 8/16/4
f 3/17/5 1/18/5 5/19/5 7/20/5
f 8/21/6 6/22/6 2/23/6 4/24/6