# Made in Blockbench 4.7.4
mtllib Grass.mtl

o cube
v -0.11076351007455781 0.3742095353251975 -0.04625379860828138
v -0.11182832800302445 0.37686622076030796 -0.1086882296962483
v -0.06223493911783512 0.0027350791778110173 -0.06288828780698413
v -0.06329975704630175 0.005391764612921457 -0.12532271889495106
v -0.17379363183888763 0.3687393769695755 -0.10797722299431317
v -0.17272881391042094 0.36608269153446504 -0.04554279190634625
v -0.12526506088216488 -0.0027350791778110173 -0.12461171219301587
v -0.12420024295369825 -0.005391764612921457 -0.062177281105049
vt 0.75 0.875
vt 0.8125 0.875
vt 0.8125 0.75
vt 0.75 0.75
vt 0.75 0.875
vt 0.8125 0.875
vt 0.8125 0.75
vt 0.75 0.75
vt 0.75 0.875
vt 0.8125 0.875
vt 0.8125 0.75
vt 0.75 0.75
vt 0.75 0.875
vt 0.8125 0.875
vt 0.8125 0.75
vt 0.75 0.75
vt 0.75 0.875
vt 0.8125 0.875
vt 0.8125 0.8125
vt 0.75 0.8125
vt 0.75 0.875
vt 0.8125 0.875
vt 0.8125 0.8125
vt 0.75 0.8125
vn -0.01703708685546605 0.042506966961767804 -0.9989508974074705
vn 0.9914448613738104 0.13002950065171964 -0.011376107230962183
vn 0.01703708685546605 -0.042506966961767804 0.9989508974074705
vn -0.9914448613738104 -0.13002950065171964 0.011376107230962183
vn -0.1294095225512606 0.990598549726364 0.04435863786320725
vn 0.1294095225512606 -0.990598549726364 -0.04435863786320725
usemtl m_fe60af19-8a71-645f-a485-e2c5e2ddbaae
f 4/4/1 7/3/1 5/2/1 2/1/1
f 3/8/2 4/7/2 2/6/2 1/5/2
f 8/12/3 3/11/3 1/10/3 6/9/3
f 7/16/4 8/15/4 6/14/4 5/13/4
f 6/20/5 1/19/5 2/18/5 5/17/5
f 7/24/6 4/23/6 3/22/6 8/21/6
o cube
v -0.263727733837367 0.31509867474801156 -0.21485508529327613
v -0.26349012883086553 0.3096566253859683 -0.2771172539240102
v -0.25014854557881766 0.004084130536188391 -0.18761891568463296
v -0.24991094057231622 -0.0013579188258549535 -0.24988108431536704
v -0.3259306426797316 0.3069304136756348 -0.2771172539240102
v -0.3261682476862331 0.31237246303767807 -0.21485508529327613
v -0.31235145442118234 -0.004084130536188446 -0.24988108431536704
v -0.3125890594276838 0.001357918825854898 -0.18761891568463296
vt 0.75 0.875
vt 0.8125 0.875
vt 0.8125 0.75
vt 0.75 0.75
vt 0.75 0.875
vt 0.8125 0.875
vt 0.8125 0.75
vt 0.75 0.75
vt 0.75 0.875
vt 0.8125 0.875
vt 0.8125 0.75
vt 0.75 0.75
vt 0.75 0.875
vt 0.8125 0.875
vt 0.8125 0.75
vt 0.75 0.75
vt 0.75 0.875
vt 0.8125 0.875
vt 0.8125 0.8125
vt 0.75 0.8125
vt 0.75 0.875
vt 0.8125 0.875
vt 0.8125 0.8125
vt 0.75 0.8125
vn 0.0038016801040236764 -0.08707278979269384 -0.9961946980917455
vn 0.9990482215818578 0.043619387365336 -1.3010426069826051e-18
vn -0.0038016801040236764 0.08707278979269384 0.9961946980917455
vn -0.9990482215818578 -0.043619387365336 1.3010426069826051e-18
vn -0.0434534024273578 0.9952465414778341 -0.0871557427476582
vn 0.0434534024273578 -0.9952465414778341 0.0871557427476582
usemtl m_fe60af19-8a71-645f-a485-e2c5e2ddbaae
f 12/28/7 15/27/7 13/26/7 10/25/7
f 11/32/8 12/31/8 10/30/8 9/29/8
f 16/36/9 11/35/9 9/34/9 14/33/9
f 15/40/10 16/39/10 14/38/10 13/37/10
f 14/44/11 9/43/11 10/42/11 13/41/11
f 15/48/12 12/47/12 11/46/12 16/45/12
o cube
v 0.30118007936757496 0.27395053988239215 0.19429605270024874
v 0.3247444850206709 0.28082630943835574 0.1368182954438142
v 0.23232653673689097 -0.02410057022733514 0.1304135399947841
v 0.2558909423899869 -0.017224800671371554 0.07293578273834955
v 0.2685187224833383 0.29830759152828423 0.11585837169424329
v 0.24495431683024227 0.29143182197232065 0.17333612895067785
v 0.1996651798526543 0.00025648141855694195 0.051975858988778656
v 0.17610077419955839 -0.006619288137406643 0.10945361624521333
vt 0.75 0.875
vt 0.8125 0.875
vt 0.8125 0.75
vt 0.75 0.75
vt 0.75 0.875
vt 0.8125 0.875
vt 0.8125 0.75
vt 0.75 0.75
vt 0.75 0.875
vt 0.8125 0.875
vt 0.8125 0.75
vt 0.75 0.75
vt 0.75 0.875
vt 0.8125 0.875
vt 0.8125 0.75
vt 0.75 0.75
vt 0.75 0.875
vt 0.8125 0.875
vt 0.8125 0.8125
vt 0.75 0.8125
vt 0.75 0.875
vt 0.8125 0.875
vt 0.8125 0.8125
vt 0.75 0.8125
vn 0.3770304904495358 0.11001231289541773 -0.919644116102954
vn 0.8996122005973227 -0.2797005134388557 0.3353587799931335
vn -0.3770304904495358 -0.11001231289541773 0.919644116102954
vn -0.8996122005973227 0.2797005134388557 -0.3353587799931335
vn 0.2203313364181887 0.9537635523511272 0.2044240406574867
vn -0.2203313364181887 -0.9537635523511272 -0.2044240406574867
usemtl m_fe60af19-8a71-645f-a485-e2c5e2ddbaae
f 20/52/13 23/51/13 21/50/13 18/49/13
f 19/56/14 20/55/14 18/54/14 17/53/14
f 24/60/15 19/59/15 17/58/15 22/57/15
f 23/64/16 24/63/16 22/62/16 21/61/16
f 22/68/17 17/67/17 18/66/17 21/65/17
f 23/72/18 20/71/18 19/70/18 24/69/18
o cube
v 0.3024589606980129 0.3663083198641376 -0.38102129857103445
v 0.2943708655385592 0.3565967987259626 -0.44223011389917494
v 0.25351163861549364 0.00016485005224675664 -0.31646032603298274
v 0.24542354345603978 -0.009546671085928271 -0.3776691413611232
v 0.23293568346702576 0.3659786197596442 -0.435600646505069
v 0.2410237786264795 0.37569014089781916 -0.37439183117692854
v 0.18398836138450636 -0.00016485005224670113 -0.37103967396701726
v 0.19207645654396022 0.009546671085928216 -0.3098308586388768
vt 0.75 0.875
vt 0.8125 0.875
vt 0.8125 0.75
vt 0.75 0.75
vt 0.75 0.875
vt 0.8125 0.875
vt 0.8125 0.75
vt 0.75 0.75
vt 0.75 0.875
vt 0.8125 0.875
vt 0.8125 0.75
vt 0.75 0.75
vt 0.75 0.875
vt 0.8125 0.875
vt 0.8125 0.75
vt 0.75 0.75
vt 0.75 0.875
vt 0.8125 0.875
vt 0.8125 0.8125
vt 0.75 0.8125
vt 0.75 0.875
vt 0.8125 0.875
vt 0.8125 0.8125
vt 0.75 0.8125
vn -0.1294095225512605 -0.15538433821079947 -0.9793410452502473
vn 0.9829629131445342 -0.15010913653890487 -0.10607147830569479
vn 0.1294095225512605 0.15538433821079947 0.9793410452502473
vn -0.9829629131445342 0.15010913653890487 0.10607147830569479
vn 0.13052619222005163 0.9763825861650424 -0.1721625934348046
vn -0.13052619222005163 -0.9763825861650424 0.1721625934348046
usemtl m_fe60af19-8a71-645f-a485-e2c5e2ddbaae
f 28/76/19 31/75/19 29/74/19 26/73/19
f 27/80/20 28/79/20 26/78/20 25/77/20
f 32/84/21 27/83/21 25/82/21 30/81/21
f 31/88/22 32/87/22 30/86/22 29/85/22
f 30/92/23 25/91/23 26/90/23 29/89/23
f 31/96/24 28/95/24 27/94/24 32/93/24
o cube
v -0.13849012883086553 0.3096566253859683 0.3396172539240102
v -0.13872773383736703 0.31509867474801156 0.2773550852932761
v -0.12491094057231622 -0.0013579188258549535 0.31238108431536704
v -0.12514854557881772 0.004084130536188391 0.25011891568463296
v -0.2011682476862331 0.31237246303767807 0.2773550852932761
v -0.2009306426797316 0.3069304136756348 0.3396172539240102
v -0.18758905942768378 0.001357918825854898 0.25011891568463296
v -0.18735145442118228 -0.004084130536188446 0.31238108431536704
vt 0.75 0.875
vt 0.8125 0.875
vt 0.8125 0.75
vt 0.75 0.75
vt 0.75 0.875
vt 0.8125 0.875
vt 0.8125 0.75
vt 0.75 0.75
vt 0.75 0.875
vt 0.8125 0.875
vt 0.8125 0.75
vt 0.75 0.75
vt 0.75 0.875
vt 0.8125 0.875
vt 0.8125 0.75
vt 0.75 0.75
vt 0.75 0.875
vt 0.8125 0.875
vt 0.8125 0.8125
vt 0.75 0.8125
vt 0.75 0.875
vt 0.8125 0.875
vt 0.8125 0.8125
vt 0.75 0.8125
vn -0.0038016801040236764 0.08707278979269384 -0.9961946980917455
vn 0.9990482215818578 0.043619387365336 1.3010426069826051e-18
vn 0.0038016801040236764 -0.08707278979269384 0.9961946980917455
vn -0.9990482215818578 -0.043619387365336 -1.3010426069826051e-18
vn -0.0434534024273578 0.9952465414778341 0.0871557427476582
vn 0.0434534024273578 -0.9952465414778341 -0.0871557427476582
usemtl m_fe60af19-8a71-645f-a485-e2c5e2ddbaae
f 36/100/25 39/99/25 37/98/25 34/97/25
f 35/104/26 36/103/26 34/102/26 33/101/26
f 40/108/27 35/107/27 33/106/27 38/105/27
f 39/112/28 40/111/28 38/110/28 37/109/28
f 38/116/29 33/115/29 34/114/29 37/113/29
f 39/120/30 36/119/30 35/118/30 40/117/30
o cube
v 0.16262924432082382 0.42873982623451035 0.03801172176746748
v 0.1631040020391923 0.434166331786602 -0.024250446863266606
v 0.12464370545618286 -0.005436869736910099 -0.00011891568463295865
v 0.12511846317455133 -0.000010364184818534294 -0.06238108431536704
v 0.1008418334084582 0.43961356570833066 -0.024250446863266606
v 0.10036707569008974 0.434187060156239 0.03801172176746748
v 0.06285629454381714 0.005436869736910155 -0.06238108431536704
v 0.06238153682544867 0.000010364184818478783 -0.00011891568463295865
vt 0.75 0.875
vt 0.8125 0.875
vt 0.8125 0.75
vt 0.75 0.75
vt 0.75 0.875
vt 0.8125 0.875
vt 0.8125 0.75
vt 0.75 0.75
vt 0.75 0.875
vt 0.8125 0.875
vt 0.8125 0.75
vt 0.75 0.75
vt 0.75 0.875
vt 0.8125 0.875
vt 0.8125 0.75
vt 0.75 0.75
vt 0.75 0.875
vt 0.8125 0.875
vt 0.8125 0.8125
vt 0.75 0.8125
vt 0.75 0.875
vt 0.8125 0.875
vt 0.8125 0.8125
vt 0.75 0.8125
vn 0.007596123493895975 0.08682408883346518 -0.9961946980917455
vn 0.9961946980917455 -0.08715574274765824 -2.6020852139652106e-18
vn -0.007596123493895975 -0.08682408883346518 0.9961946980917455
vn -0.9961946980917455 0.08715574274765824 2.6020852139652106e-18
vn 0.08682408883346522 0.9924038765061041 0.0871557427476582
vn -0.08682408883346522 -0.9924038765061041 -0.0871557427476582
usemtl m_fe60af19-8a71-645f-a485-e2c5e2ddbaae
f 44/124/31 47/123/31 45/122/31 42/121/31
f 43/128/32 44/127/32 42/126/32 41/125/32
f 48/132/33 43/131/33 41/130/33 46/129/33
f 47/136/34 48/135/34 46/134/34 45/133/34
f 46/140/35 41/139/35 42/138/35 45/137/35
f 47/144/36 44/143/36 43/142/36 48/141/36
o cube
v -0.19489712370499324 0.12568138216397817 0.12858325235758483
v -0.21709110735401438 0.13049154381585248 0.07035491359826751
v -0.1787209333860857 0.0028110180209113267 0.11226747833007844
v -0.20091491703510683 0.0076211796727857495 0.05403913957076112
v -0.27495525693282186 0.12005934612215541 0.09154829569742806
v -0.2527612732838007 0.11524918447028099 0.14977663445674538
v -0.2587790666139143 -0.0028110180209113267 0.07523252166992156
v -0.23658508296489317 -0.007621179672785805 0.13346086042923888
vt 0.75 0.875
vt 0.8125 0.875
vt 0.8125 0.75
vt 0.75 0.75
vt 0.75 0.875
vt 0.8125 0.875
vt 0.8125 0.75
vt 0.75 0.75
vt 0.75 0.875
vt 0.8125 0.875
vt 0.8125 0.75
vt 0.75 0.75
vt 0.75 0.875
vt 0.8125 0.875
vt 0.8125 0.75
vt 0.75 0.75
vt 0.75 0.875
vt 0.8125 0.875
vt 0.8125 0.8125
vt 0.75 0.8125
vt 0.75 0.875
vt 0.8125 0.875
vt 0.8125 0.8125
vt 0.75 0.8125
vn -0.3551037383843381 0.07696258642999111 -0.9316534201490778
vn 0.9258263932609194 0.1669151630991541 -0.33909411358656827
vn 0.3551037383843381 -0.07696258642999111 0.9316534201490778
vn -0.9258263932609194 -0.1669151630991541 0.33909411358656827
vn -0.1294095225512605 0.9829629131445342 0.13052619222005155
vn 0.1294095225512605 -0.9829629131445342 -0.13052619222005155
usemtl m_fe60af19-8a71-645f-a485-e2c5e2ddbaae
f 52/148/37 55/147/37 53/146/37 50/145/37
f 51/152/38 52/151/38 50/150/38 49/149/38
f 56/156/39 51/155/39 49/154/39 54/153/39
f 55/160/40 56/159/40 54/158/40 53/157/40
f 54/164/41 49/163/41 50/162/41 53/161/41
f 55/168/42 52/167/42 51/166/42 56/165/42
o cube
v 0.21381420196476075 0.11211099642607047 0.38492781116710617
v 0.21381420196476075 0.11755823034779911 0.3226656425363721
v 0.18675925022249795 -0.009461616831556885 0.3742915857118423
v 0.18675925022249795 -0.004014382909828251 0.3120294170811082
v 0.15279570151976496 0.13103423008918424 0.3238446397434216
v 0.15279570151976496 0.1255869961674556 0.3861068083741557
v 0.12574074977750205 0.009461616831556885 0.3132084142881577
v 0.12574074977750205 0.004014382909828251 0.3754705829188918
vt 0.75 0.875
vt 0.8125 0.875
vt 0.8125 0.75
vt 0.75 0.75
vt 0.75 0.875
vt 0.8125 0.875
vt 0.8125 0.75
vt 0.75 0.75
vt 0.75 0.875
vt 0.8125 0.875
vt 0.8125 0.75
vt 0.75 0.75
vt 0.75 0.875
vt 0.8125 0.875
vt 0.8125 0.75
vt 0.75 0.75
vt 0.75 0.875
vt 0.8125 0.875
vt 0.8125 0.8125
vt 0.75 0.8125
vt 0.75 0.875
vt 0.8125 0.875
vt 0.8125 0.8125
vt 0.75 0.8125
vn 3.469446951953614e-18 0.08715574274765817 -0.9961946980917455
vn 0.9762960071199334 -0.2156159958621624 -0.01886395531279175
vn -3.469446951953614e-18 -0.08715574274765817 0.9961946980917455
vn -0.9762960071199334 0.2156159958621624 0.01886395531279175
vn 0.21643961393810296 0.9725809060610187 0.08508980364211077
vn -0.21643961393810296 -0.9725809060610187 -0.08508980364211077
usemtl m_fe60af19-8a71-645f-a485-e2c5e2ddbaae
f 60/172/43 63/171/43 61/170/43 58/169/43
f 59/176/44 60/175/44 58/174/44 57/173/44
f 64/180/45 59/179/45 57/178/45 62/177/45
f 63/184/46 64/183/46 62/182/46 61/181/46
f 62/188/47 57/187/47 58/186/47 61/185/47
f 63/192/48 60/191/48 59/190/48 64/189/48
o cube
v 0 0.1818169680007129 0.21170631295919118
v 0 0.18997485501446598 0.1497410091233281
v 0 -0.004078943506876598 0.1872326519179316
v 0 0.004078943506876653 0.1252673480820684
v -0.0625 0.18997485501446598 0.1497410091233281
v -0.0625 0.1818169680007129 0.21170631295919118
v -0.0625 0.004078943506876653 0.1252673480820684
v -0.0625 -0.004078943506876598 0.1872326519179316
vt 0.75 0.875
vt 0.8125 0.875
vt 0.8125 0.75
vt 0.75 0.75
vt 0.75 0.875
vt 0.8125 0.875
vt 0.8125 0.75
vt 0.75 0.75
vt 0.75 0.875
vt 0.8125 0.875
vt 0.8125 0.75
vt 0.75 0.75
vt 0.75 0.875
vt 0.8125 0.875
vt 0.8125 0.75
vt 0.75 0.75
vt 0.75 0.875
vt 0.8125 0.875
vt 0.8125 0.8125
vt 0.75 0.8125
vt 0.75 0.875
vt 0.8125 0.875
vt 0.8125 0.8125
vt 0.75 0.8125
vn 0 0.13052619222005157 -0.9914448613738104
vn 1 0 0
vn 0 -0.13052619222005157 0.9914448613738104
vn -1 0 0
vn 0 0.9914448613738104 0.13052619222005157
vn 0 -0.9914448613738104 -0.13052619222005157
usemtl m_fe60af19-8a71-645f-a485-e2c5e2ddbaae
f 68/196/49 71/195/49 69/194/49 66/193/49
f 67/200/50 68/199/50 66/198/50 65/197/50
f 72/204/51 67/203/51 65/202/51 70/201/51
f 71/208/52 72/207/52 70/206/52 69/205/52
f 70/212/53 65/211/53 66/210/53 69/209/53
f 71/216/54 68/215/54 67/214/54 72/213/54
o cube
v -0.1471585914275947 0.19031483675392324 -0.3153425326454973
v -0.15255922350799367 0.1896038300519881 -0.37760470127623136
v -0.12268493038633504 0.004418925246333805 -0.3153425326454973
v -0.12808556246673397 0.0037079185443986695 -0.37760470127623136
v -0.21428873065492465 0.18147698626125564 -0.3721574673545027
v -0.20888809857452567 0.18218799296319077 -0.30989529872376864
v -0.18981506961366496 -0.004418925246333805 -0.3721574673545027
v -0.18441443753326603 -0.0037079185443986695 -0.30989529872376864
vt 0.75 0.875
vt 0.8125 0.875
vt 0.8125 0.75
vt 0.75 0.75
vt 0.75 0.875
vt 0.8125 0.875
vt 0.8125 0.75
vt 0.75 0.75
vt 0.75 0.875
vt 0.8125 0.875
vt 0.8125 0.75
vt 0.75 0.75
vt 0.75 0.875
vt 0.8125 0.875
vt 0.8125 0.75
vt 0.75 0.75
vt 0.75 0.875
vt 0.8125 0.875
vt 0.8125 0.8125
vt 0.75 0.8125
vt 0.75 0.875
vt 0.8125 0.875
vt 0.8125 0.8125
vt 0.75 0.8125
vn -0.08641011328638344 -0.0113761072309622 -0.9961946980917457
vn 0.9876721143508955 0.13002950065171945 -0.08715574274765817
vn 0.08641011328638344 0.0113761072309622 0.9961946980917457
vn -0.9876721143508955 -0.13002950065171945 0.08715574274765817
vn -0.1305261922200516 0.9914448613738104 1.734723475976807e-18
vn 0.1305261922200516 -0.9914448613738104 -1.734723475976807e-18
usemtl m_fe60af19-8a71-645f-a485-e2c5e2ddbaae
f 76/220/55 79/219/55 77/218/55 74/217/55
f 75/224/56 76/223/56 74/222/56 73/221/56
f 80/228/57 75/227/57 73/226/57 78/225/57
f 79/232/58 80/231/58 78/230/58 77/229/58
f 78/236/59 73/235/59 74/234/59 77/233/59
f 79/240/60 76/239/60 75/238/60 80/237/60
o cube
v 0.12760470127623136 0.12763852621612493 -0.20690133649424047
v 0.12215746735450272 0.11951168242539245 -0.2686308436411714
v 0.12760470127623136 0.0037079185443986695 -0.19058556246673397
v 0.12215746735450272 -0.004418925246333805 -0.25231506961366496
v 0.05989529872376864 0.12022268912732759 -0.2632302115607725
v 0.06534253264549728 0.12834953291806006 -0.2015007044138415
v 0.05989529872376864 -0.0037079185443986695 -0.24691443753326603
v 0.06534253264549728 0.004418925246333805 -0.18518493038633504
vt 0.75 0.875
vt 0.8125 0.875
vt 0.8125 0.75
vt 0.75 0.75
vt 0.75 0.875
vt 0.8125 0.875
vt 0.8125 0.75
vt 0.75 0.75
vt 0.75 0.875
vt 0.8125 0.875
vt 0.8125 0.75
vt 0.75 0.75
vt 0.75 0.875
vt 0.8125 0.875
vt 0.8125 0.75
vt 0.75 0.75
vt 0.75 0.875
vt 0.8125 0.875
vt 0.8125 0.8125
vt 0.75 0.8125
vt 0.75 0.875
vt 0.8125 0.875
vt 0.8125 0.8125
vt 0.75 0.8125
vn -0.08715574274765815 -0.1300295006517195 -0.9876721143508955
vn 0.9961946980917457 -0.0113761072309622 -0.08641011328638343
vn 0.08715574274765815 0.1300295006517195 0.9876721143508955
vn -0.9961946980917457 0.0113761072309622 0.08641011328638343
vn -3.469446951953614e-18 0.9914448613738104 -0.13052619222005166
vn 3.469446951953614e-18 -0.9914448613738104 0.13052619222005166
usemtl m_fe60af19-8a71-645f-a485-e2c5e2ddbaae
f 84/244/61 87/243/61 85/242/61 82/241/61
f 83/248/62 84/247/62 82/246/62 81/245/62
f 88/252/63 83/251/63 81/250/63 86/249/63
f 87/256/64 88/255/64 86/254/64 85/253/64
f 86/260/65 81/259/65 82/258/65 85/257/65
f 87/264/66 84/263/66 83/262/66 88/261/66
o cube
v -0.32636582784832435 0.18831743349220942 0.25540664743955976
v -0.331792333400416 0.19055896528970095 0.19318302995637282
v -0.31002412608313845 0.0017087069651156028 0.24725913448443015
v -0.31545063163523007 0.003950238762607139 0.1850355170012432
v -0.3938175756820475 0.18490001956197832 0.19838837847069946
v -0.38839107012995583 0.1826584877644868 0.2606119959538863
v -0.37747587391686155 -0.0017087069651155473 0.19024086551556985
v -0.37204936836476993 -0.003950238762607083 0.2524644829987568
vt 0.75 0.875
vt 0.8125 0.875
vt 0.8125 0.75
vt 0.75 0.75
vt 0.75 0.875
vt 0.8125 0.875
vt 0.8125 0.75
vt 0.75 0.75
vt 0.75 0.875
vt 0.8125 0.875
vt 0.8125 0.75
vt 0.75 0.75
vt 0.75 0.875
vt 0.8125 0.875
vt 0.8125 0.75
vt 0.75 0.75
vt 0.75 0.875
vt 0.8125 0.875
vt 0.8125 0.8125
vt 0.75 0.8125
vt 0.75 0.875
vt 0.8125 0.875
vt 0.8125 0.8125
vt 0.75 0.8125
vn -0.08682408883346657 0.035864508759864744 -0.9955778797309892
vn 0.9924038765061041 0.09054313164356236 -0.08328557622922593
vn 0.08682408883346657 -0.035864508759864744 0.9955778797309892
vn -0.9924038765061041 -0.09054313164356236 0.08328557622922593
vn -0.08715574274765818 0.9952465414778341 0.04345340242735781
vn 0.08715574274765818 -0.9952465414778341 -0.04345340242735781
usemtl m_fe60af19-8a71-645f-a485-e2c5e2ddbaae
f 92/268/67 95/267/67 93/266/67 90/265/67
f 91/272/68 92/271/68 90/270/68 89/269/68
f 96/276/69 91/275/69 89/274/69 94/273/69
f 95/280/70 96/279/70 94/278/70 93/277/70
f 94/284/71 89/283/71 90/282/71 93/281/71
f 95/288/72 92/287/72 91/286/72 96/285/72
o cube
v 0.40743332976450264 0.18120453270790438 -0.07896061744981886
v 0.4064874275206689 0.17584005450931506 -0.14122278608055294
v 0.37499819340354834 -0.0027442664527968508 -0.06261891568463296
v 0.3740522911597146 -0.00810874465138628 -0.12488108431536704
v 0.34493694295740596 0.1866930656134982 -0.14122278608055294
v 0.3458828452012397 0.1920575438120875 -0.07896061744981886
v 0.31250180659645166 0.0027442664527967953 -0.12488108431536704
v 0.3134477088402854 0.008108744651386335 -0.06261891568463296
vt 0.75 0.875
vt 0.8125 0.875
vt 0.8125 0.75
vt 0.75 0.75
vt 0.75 0.875
vt 0.8125 0.875
vt 0.8125 0.75
vt 0.75 0.75
vt 0.75 0.875
vt 0.8125 0.875
vt 0.8125 0.75
vt 0.75 0.75
vt 0.75 0.875
vt 0.8125 0.875
vt 0.8125 0.75
vt 0.75 0.75
vt 0.75 0.875
vt 0.8125 0.875
vt 0.8125 0.8125
vt 0.75 0.8125
vt 0.75 0.875
vt 0.8125 0.875
vt 0.8125 0.8125
vt 0.75 0.8125
vn -0.01513443590133862 -0.08583165117743129 -0.9961946980917457
vn 0.984807753012208 -0.17364817766693036 1.734723475976807e-18
vn 0.01513443590133862 0.08583165117743129 0.9961946980917457
vn -0.984807753012208 0.17364817766693036 -1.734723475976807e-18
vn 0.17298739392508944 0.9810602621904069 -0.08715574274765817
vn -0.17298739392508944 -0.9810602621904069 0.08715574274765817
usemtl m_fe60af19-8a71-645f-a485-e2c5e2ddbaae
f 100/292/73 103/291/73 101/290/73 98/289/73
f 99/296/74 100/295/74 98/294/74 97/293/74
f 104/300/75 99/299/75 97/298/75 102/297/75
f 103/304/76 104/303/76 102/302/76 101/301/76
f 102/308/77 97/307/77 98/306/77 101/305/77
f 103/312/78 100/311/78 99/310/78 104/309/78