# Made in Blockbench 4.8.1
mtllib Leaves.mtl

o cube
v 0.07677052949737284 0.125 0.0366531610079861
v 0.07677052949737284 0.125 -0.2133468389920139
v 0.07677052949737284 0 0.0366531610079861
v 0.07677052949737284 0 -0.2133468389920139
v -0.17322947050262738 0.125 -0.2133468389920139
v -0.17322947050262738 0.125 0.0366531610079861
v -0.17322947050262738 0 -0.2133468389920139
v -0.17322947050262738 0 0.0366531610079861
vt 0.8 0.825
vt 0.8 0.825
vt 0.8 0.825
vt 0.8 0.825
vt 0.8 0.825
vt 0.8 0.825
vt 0.8 0.825
vt 0.8 0.825
vt 0.8 0.825
vt 0.8 0.825
vt 0.8 0.825
vt 0.8 0.825
vt 0.8 0.825
vt 0.8 0.825
vt 0.8 0.825
vt 0.8 0.825
vt 0.8 0.825
vt 0.8 0.825
vt 0.8 0.825
vt 0.8 0.825
vt 0.8 0.825
vt 0.8 0.825
vt 0.8 0.825
vt 0.8 0.825
vn 0 0 -1
vn 1 0 0
vn 0 0 1
vn -1 0 0
vn 0 1 0
vn 0 -1 0
usemtl m_aa4db9ac-faf5-1437-a49e-d8343fa93d42
f 4/4/1 7/3/1 5/2/1 2/1/1
f 3/8/2 4/7/2 2/6/2 1/5/2
f 8/12/3 3/11/3 1/10/3 6/9/3
f 7/16/4 8/15/4 6/14/4 5/13/4
f 6/20/5 1/19/5 2/18/5 5/17/5
f 7/24/6 4/23/6 3/22/6 8/21/6
o cube
v 0.1591513202809477 0.125 0.14336010416062828
v 0.3290840303503194 0.125 0.06411918008424722
v 0.1591513202809477 0 0.14336010416062828
v 0.3290840303503194 0 0.06411918008424722
v 0.24984310627393824 0.125 -0.10581352998512478
v 0.07991039620456653 0.125 -0.026572605908743774
v 0.24984310627393824 0 -0.10581352998512478
v 0.07991039620456653 0 -0.026572605908743774
vt 0.925 0.825
vt 0.925 0.825
vt 0.925 0.825
vt 0.925 0.825
vt 0.925 0.825
vt 0.925 0.825
vt 0.925 0.825
vt 0.925 0.825
vt 0.925 0.825
vt 0.925 0.825
vt 0.925 0.825
vt 0.925 0.825
vt 0.925 0.825
vt 0.925 0.825
vt 0.925 0.825
vt 0.925 0.825
vt 0.925 0.825
vt 0.925 0.825
vt 0.925 0.825
vt 0.925 0.825
vt 0.925 0.825
vt 0.925 0.825
vt 0.925 0.825
vt 0.925 0.825
vn 0.90630778703665 0 -0.4226182617406993
vn 0.4226182617406993 0 0.90630778703665
vn -0.90630778703665 0 0.4226182617406993
vn -0.4226182617406993 0 -0.90630778703665
vn 0 1 0
vn 0 -1 0
usemtl m_aa4db9ac-faf5-1437-a49e-d8343fa93d42
f 12/28/7 15/27/7 13/26/7 10/25/7
f 11/32/8 12/31/8 10/30/8 9/29/8
f 16/36/9 11/35/9 9/34/9 14/33/9
f 15/40/10 16/39/10 14/38/10 13/37/10
f 14/44/11 9/43/11 10/42/11 13/41/11
f 15/48/12 12/47/12 11/46/12 16/45/12
o cube
v -0.027640541539752594 0.078125 0.2467452654439155
v -0.027640541539752594 0.078125 0.034245265443915596
v -0.027640541539752594 0.046875 0.2467452654439155
v -0.027640541539752594 0.046875 0.034245265443915596
v -0.058890541539752594 0.078125 0.034245265443915596
v -0.058890541539752594 0.078125 0.2467452654439155
v -0.058890541539752594 0.046875 0.034245265443915596
v -0.058890541539752594 0.046875 0.2467452654439155
vt 0.8125 0.55
vt 0.8125 0.55
vt 0.8125 0.55
vt 0.8125 0.55
vt 0.8125 0.55
vt 0.8125 0.55
vt 0.8125 0.55
vt 0.8125 0.55
vt 0.8125 0.55
vt 0.8125 0.55
vt 0.8125 0.55
vt 0.8125 0.55
vt 0.8125 0.55
vt 0.8125 0.55
vt 0.8125 0.55
vt 0.8125 0.55
vt 0.8125 0.55
vt 0.8125 0.55
vt 0.8125 0.55
vt 0.8125 0.55
vt 0.8125 0.55
vt 0.8125 0.55
vt 0.8125 0.55
vt 0.8125 0.55
vn 0 0 -1
vn 1 0 0
vn 0 0 1
vn -1 0 0
vn 0 1 0
vn 0 -1 0
usemtl m_aa4db9ac-faf5-1437-a49e-d8343fa93d42
f 20/52/13 23/51/13 21/50/13 18/49/13
f 19/56/14 20/55/14 18/54/14 17/53/14
f 24/60/15 19/59/15 17/58/15 22/57/15
f 23/64/16 24/63/16 22/62/16 21/61/16
f 22/68/17 17/67/17 18/66/17 21/65/17
f 23/72/18 20/71/18 19/70/18 24/69/18
o cube
v -0.04279888414248423 0.078125 0.1479235383390055
v 0.1271338259268877 0.078125 0.06868261426262445
v -0.04279888414248423 0.046875 0.1479235383390055
v 0.1271338259268877 0.046875 0.06868261426262445
v 0.11392700524749078 0.078125 0.040360495917729056
v -0.05600570482188105 0.078125 0.11960141999411023
v 0.11392700524749078 0.046875 0.040360495917729056
v -0.05600570482188105 0.046875 0.11960141999411023
vt 0.8125 0.55
vt 0.8125 0.55
vt 0.8125 0.55
vt 0.8125 0.55
vt 0.8125 0.55
vt 0.8125 0.55
vt 0.8125 0.55
vt 0.8125 0.55
vt 0.8125 0.55
vt 0.8125 0.55
vt 0.8125 0.55
vt 0.8125 0.55
vt 0.8125 0.55
vt 0.8125 0.55
vt 0.8125 0.55
vt 0.8125 0.55
vt 0.8125 0.55
vt 0.8125 0.55
vt 0.8125 0.55
vt 0.8125 0.55
vt 0.8125 0.55
vt 0.8125 0.55
vt 0.8125 0.55
vt 0.8125 0.55
vn 0.90630778703665 0 -0.4226182617406993
vn 0.4226182617406993 0 0.90630778703665
vn -0.90630778703665 0 0.4226182617406993
vn -0.4226182617406993 0 -0.90630778703665
vn 0 1 0
vn 0 -1 0
usemtl m_aa4db9ac-faf5-1437-a49e-d8343fa93d42
f 28/76/19 31/75/19 29/74/19 26/73/19
f 27/80/20 28/79/20 26/78/20 25/77/20
f 32/84/21 27/83/21 25/82/21 30/81/21
f 31/88/22 32/87/22 30/86/22 29/85/22
f 30/92/23 25/91/23 26/90/23 29/89/23
f 31/96/24 28/95/24 27/94/24 32/93/24