# Made in Blockbench 4.8.1
mtllib Mushroom.mtl

o cube
v -0.15625 0.125 -0.15625
v -0.15625 0.125 -0.21875
v -0.15625 0 -0.15625
v -0.15625 0 -0.21875
v -0.21875 0.125 -0.21875
v -0.21875 0.125 -0.15625
v -0.21875 0 -0.21875
v -0.21875 0 -0.15625
vt 0.5624999999999998 0.5625
vt 0.5624999999999998 0.5625
vt 0.5624999999999998 0.5625
vt 0.5624999999999998 0.5625
vt 0.5624999999999998 0.5625
vt 0.5624999999999998 0.5625
vt 0.5624999999999998 0.5625
vt 0.5624999999999998 0.5625
vt 0.5624999999999998 0.5625
vt 0.5624999999999998 0.5625
vt 0.5624999999999998 0.5625
vt 0.5624999999999998 0.5625
vt 0.5624999999999998 0.5625
vt 0.5624999999999998 0.5625
vt 0.5624999999999998 0.5625
vt 0.5624999999999998 0.5625
vt 0.5624999999999998 0.5625
vt 0.5624999999999998 0.5625
vt 0.5624999999999998 0.5625
vt 0.5624999999999998 0.5625
vt 0.5624999999999998 0.5625
vt 0.5624999999999998 0.5625
vt 0.5624999999999998 0.5625
vt 0.5624999999999998 0.5625
vn 0 0 -1
vn 1 0 0
vn 0 0 1
vn -1 0 0
vn 0 1 0
vn 0 -1 0
usemtl m_658d153c-0e5d-8c39-e225-633a1a35e54d
f 4/4/1 7/3/1 5/2/1 2/1/1
f 3/8/2 4/7/2 2/6/2 1/5/2
f 8/12/3 3/11/3 1/10/3 6/9/3
f 7/16/4 8/15/4 6/14/4 5/13/4
f 6/20/5 1/19/5 2/18/5 5/17/5
f 7/24/6 4/23/6 3/22/6 8/21/6
o cylinder
v -0.1875 0.125 -0.1875
v -0.1875 0.1875 -0.1875
v -0.1333734122634726 0.125 -0.09375
v -0.1646234122634726 0.1875 -0.15625
v -0.07924682452694518 0.125 -0.1875
v -0.14174682452694518 0.1875 -0.1875
v -0.1333734122634726 0.125 -0.28125
v -0.1646234122634726 0.1875 -0.21875
v -0.24162658773652743 0.125 -0.28125
v -0.21037658773652743 0.1875 -0.21875
v -0.2957531754730548 0.125 -0.1875
v -0.23325317547305482 0.1875 -0.1875
v -0.24162658773652745 0.125 -0.09375000000000004
v -0.21037658773652743 0.1875 -0.15625
vt 0.18750000000000006 0.6875
vt 0.18750000000000006 0.6875
vt 0.18750000000000006 0.6875
vt 0.18750000000000006 0.6875
vt 0.18750000000000006 0.6875
vt 0.18750000000000006 0.6875
vt 0.18750000000000006 0.6875
vt 0.18750000000000006 0.6875
vt 0.18750000000000006 0.6875
vt 0.18750000000000006 0.6875
vt 0.18750000000000006 0.6875
vt 0.18750000000000006 0.6875
vt 0.18750000000000006 0.6875
vt 0.18750000000000006 0.6875
vt 0.18750000000000006 0.6875
vt 0.18750000000000006 0.6875
vt 0.18750000000000006 0.6875
vt 0.18750000000000006 0.6875
vt 0.18750000000000006 0.6875
vt 0.18750000000000006 0.6875
vt 0.18750000000000006 0.6875
vt 0.18750000000000006 0.6875
vt 0.18750000000000006 0.6875
vt 0.18750000000000006 0.6875
vt 0.18750000000000006 0.6875
vt 0.18750000000000006 0.6875
vt 0.18750000000000006 0.6875
vt 0.18750000000000006 0.6875
vt 0.18750000000000006 0.6875
vt 0.18750000000000006 0.6875
vt 0.18750000000000006 0.6875
vt 0.18750000000000006 0.6875
vt 0.18750000000000006 0.6875
vt 0.18750000000000006 0.6875
vt 0.18750000000000006 0.6875
vt 0.18750000000000006 0.6875
vt 0.18750000000000006 0.6875
vt 0.18750000000000006 0.6875
vt 0.18750000000000006 0.6875
vt 0.18750000000000006 0.6875
vt 0.18750000000000006 0.6875
vt 0.18750000000000006 0.6875
vt 0.18750000000000006 0.6875
vt 0.18750000000000006 0.6875
vt 0.18750000000000006 0.6875
vt 0.18750000000000006 0.6875
vt 0.18750000000000006 0.6875
vt 0.18750000000000006 0.6875
vt 0.18750000000000006 0.6875
vt 0.18750000000000006 0.6875
vt 0.18750000000000006 0.6875
vt 0.18750000000000006 0.6875
vt 0.18750000000000006 0.6875
vt 0.18750000000000006 0.6875
vt 0.18750000000000006 0.6875
vt 0.18750000000000006 0.6875
vt 0.18750000000000006 0.6875
vt 0.18750000000000006 0.6875
vt 0.18750000000000006 0.6875
vt 0.18750000000000006 0.6875
vn 0 -1 0
vn 0.6546536707079772 0.6546536707079772 0.3779644730092273
vn 0 1 0
vn 0 -1 0
vn 0.633213697554525 0.6821929475149258 -0.36558609873766335
vn 0 1 0
vn 0 -1 0
vn 0 0.7071067811865476 -0.7071067811865476
vn 0 1 0
vn 0 -1 0
vn -0.6546536707079774 0.6546536707079771 -0.3779644730092271
vn 0 1 0
vn 0 -1 0
vn -0.6332136975545252 0.6821929475149257 0.36558609873766307
vn 0 1 0
vn 0 -1 0
vn -2.7194799110210365e-16 0.7071067811865475 0.7071067811865476
vn 0 1 0
usemtl m_658d153c-0e5d-8c39-e225-633a1a35e54d
f 13/25/7 11/26/7 9/27/7
f 11/28/8 13/29/8 14/30/8 12/31/8
f 12/32/9 14/33/9 10/34/9
f 15/35/10 13/36/10 9/37/10
f 13/38/11 15/39/11 16/40/11 14/41/11
f 14/42/12 16/43/12 10/44/12
f 17/45/13 15/46/13 9/47/13
f 15/48/14 17/49/14 18/50/14 16/51/14
f 16/52/15 18/53/15 10/54/15
f 19/55/16 17/56/16 9/57/16
f 17/58/17 19/59/17 20/60/17 18/61/17
f 18/62/18 20/63/18 10/64/18
f 21/65/19 19/66/19 9/67/19
f 19/68/20 21/69/20 22/70/20 20/71/20
f 20/72/21 22/73/21 10/74/21
f 11/75/22 21/76/22 9/77/22
f 21/78/23 11/79/23 12/80/23 22/81/23
f 22/82/24 12/83/24 10/84/24
o cube
v 0.28125 0.125 -0.03125
v 0.28125 0.125 -0.09375
v 0.28125 0 -0.03125
v 0.28125 0 -0.09375
v 0.21875 0.125 -0.09375
v 0.21875 0.125 -0.03125
v 0.21875 0 -0.09375
v 0.21875 0 -0.03125
vt 0.5624999999999998 0.5625
vt 0.5624999999999998 0.5625
vt 0.5624999999999998 0.5625
vt 0.5624999999999998 0.5625
vt 0.5624999999999998 0.5625
vt 0.5624999999999998 0.5625
vt 0.5624999999999998 0.5625
vt 0.5624999999999998 0.5625
vt 0.5624999999999998 0.5625
vt 0.5624999999999998 0.5625
vt 0.5624999999999998 0.5625
vt 0.5624999999999998 0.5625
vt 0.5624999999999998 0.5625
vt 0.5624999999999998 0.5625
vt 0.5624999999999998 0.5625
vt 0.5624999999999998 0.5625
vt 0.5624999999999998 0.5625
vt 0.5624999999999998 0.5625
vt 0.5624999999999998 0.5625
vt 0.5624999999999998 0.5625
vt 0.5624999999999998 0.5625
vt 0.5624999999999998 0.5625
vt 0.5624999999999998 0.5625
vt 0.5624999999999998 0.5625
vn 0 0 -1
vn 1 0 0
vn 0 0 1
vn -1 0 0
vn 0 1 0
vn 0 -1 0
usemtl m_658d153c-0e5d-8c39-e225-633a1a35e54d
f 26/88/25 29/87/25 27/86/25 24/85/25
f 25/92/26 26/91/26 24/90/26 23/89/26
f 30/96/27 25/95/27 23/94/27 28/93/27
f 29/100/28 30/99/28 28/98/28 27/97/28
f 28/104/29 23/103/29 24/102/29 27/101/29
f 29/108/30 26/107/30 25/106/30 30/105/30
o cylinder
v 0.25 0.125 -0.0625
v 0.25 0.1875 -0.0625
v 0.3041265877365274 0.125 0.03125
v 0.2728765877365274 0.1875 -0.03125
v 0.3582531754730548 0.125 -0.0625
v 0.2957531754730548 0.1875 -0.0625
v 0.3041265877365274 0.125 -0.15625
v 0.2728765877365274 0.1875 -0.09375
v 0.19587341226347257 0.125 -0.15625
v 0.22712341226347257 0.1875 -0.09375
v 0.1417468245269452 0.125 -0.0625
v 0.20424682452694518 0.1875 -0.0625
v 0.19587341226347255 0.125 0.03124999999999996
v 0.22712341226347257 0.1875 -0.03125
vt 0.20000000000000007 0.6749999999999999
vt 0.20000000000000007 0.6749999999999999
vt 0.20000000000000007 0.6749999999999999
vt 0.20000000000000007 0.6749999999999999
vt 0.20000000000000007 0.6749999999999999
vt 0.20000000000000007 0.6749999999999999
vt 0.20000000000000007 0.6749999999999999
vt 0.20000000000000007 0.6749999999999999
vt 0.20000000000000007 0.6749999999999999
vt 0.20000000000000007 0.6749999999999999
vt 0.20000000000000007 0.6749999999999999
vt 0.20000000000000007 0.6749999999999999
vt 0.20000000000000007 0.6749999999999999
vt 0.20000000000000007 0.6749999999999999
vt 0.20000000000000007 0.6749999999999999
vt 0.20000000000000007 0.6749999999999999
vt 0.20000000000000007 0.6749999999999999
vt 0.20000000000000007 0.6749999999999999
vt 0.20000000000000007 0.6749999999999999
vt 0.20000000000000007 0.6749999999999999
vt 0.20000000000000007 0.6749999999999999
vt 0.20000000000000007 0.6749999999999999
vt 0.20000000000000007 0.6749999999999999
vt 0.20000000000000007 0.6749999999999999
vt 0.20000000000000007 0.6749999999999999
vt 0.20000000000000007 0.6749999999999999
vt 0.20000000000000007 0.6749999999999999
vt 0.20000000000000007 0.6749999999999999
vt 0.20000000000000007 0.6749999999999999
vt 0.20000000000000007 0.6749999999999999
vt 0.20000000000000007 0.6749999999999999
vt 0.20000000000000007 0.6749999999999999
vt 0.20000000000000007 0.6749999999999999
vt 0.20000000000000007 0.6749999999999999
vt 0.20000000000000007 0.6749999999999999
vt 0.20000000000000007 0.6749999999999999
vt 0.20000000000000007 0.6749999999999999
vt 0.20000000000000007 0.6749999999999999
vt 0.20000000000000007 0.6749999999999999
vt 0.20000000000000007 0.6749999999999999
vt 0.20000000000000007 0.6749999999999999
vt 0.20000000000000007 0.6749999999999999
vt 0.20000000000000007 0.6749999999999999
vt 0.20000000000000007 0.6749999999999999
vt 0.20000000000000007 0.6749999999999999
vt 0.20000000000000007 0.6749999999999999
vt 0.20000000000000007 0.6749999999999999
vt 0.20000000000000007 0.6749999999999999
vt 0.20000000000000007 0.6749999999999999
vt 0.20000000000000007 0.6749999999999999
vt 0.20000000000000007 0.6749999999999999
vt 0.20000000000000007 0.6749999999999999
vt 0.20000000000000007 0.6749999999999999
vt 0.20000000000000007 0.6749999999999999
vt 0.20000000000000007 0.6749999999999999
vt 0.20000000000000007 0.6749999999999999
vt 0.20000000000000007 0.6749999999999999
vt 0.20000000000000007 0.6749999999999999
vt 0.20000000000000007 0.6749999999999999
vt 0.20000000000000007 0.6749999999999999
vn 0 -1 0
vn 0.6546536707079772 0.6546536707079772 0.37796447300922714
vn 0 1 0
vn 0 -1 0
vn 0.6332136975545251 0.6821929475149258 -0.36558609873766323
vn 0 1 0
vn 0 -1 0
vn 0 0.7071067811865476 -0.7071067811865476
vn 0 1 0
vn 0 -1 0
vn -0.6546536707079774 0.6546536707079771 -0.3779644730092271
vn 0 1 0
vn 0 -1 0
vn -0.6332136975545252 0.6821929475149257 0.36558609873766307
vn 0 1 0
vn 0 -1 0
vn -2.7194799110210365e-16 0.7071067811865475 0.7071067811865476
vn 0 1 0
usemtl m_658d153c-0e5d-8c39-e225-633a1a35e54d
f 35/109/31 33/110/31 31/111/31
f 33/112/32 35/113/32 36/114/32 34/115/32
f 34/116/33 36/117/33 32/118/33
f 37/119/34 35/120/34 31/121/34
f 35/122/35 37/123/35 38/124/35 36/125/35
f 36/126/36 38/127/36 32/128/36
f 39/129/37 37/130/37 31/131/37
f 37/132/38 39/133/38 40/134/38 38/135/38
f 38/136/39 40/137/39 32/138/39
f 41/139/40 39/140/40 31/141/40
f 39/142/41 41/143/41 42/144/41 40/145/41
f 40/146/42 42/147/42 32/148/42
f 43/149/43 41/150/43 31/151/43
f 41/152/44 43/153/44 44/154/44 42/155/44
f 42/156/45 44/157/45 32/158/45
f 33/159/46 43/160/46 31/161/46
f 43/162/47 33/163/47 34/164/47 44/165/47
f 44/166/48 34/167/48 32/168/48
o cube
v 0.21875 0.125 0.28125
v 0.21875 0.125 0.21875
v 0.21875 0 0.28125
v 0.21875 0 0.21875
v 0.15625 0.125 0.21875
v 0.15625 0.125 0.28125
v 0.15625 0 0.21875
v 0.15625 0 0.28125
vt 0.5624999999999998 0.5625
vt 0.5624999999999998 0.5625
vt 0.5624999999999998 0.5625
vt 0.5624999999999998 0.5625
vt 0.5624999999999998 0.5625
vt 0.5624999999999998 0.5625
vt 0.5624999999999998 0.5625
vt 0.5624999999999998 0.5625
vt 0.5624999999999998 0.5625
vt 0.5624999999999998 0.5625
vt 0.5624999999999998 0.5625
vt 0.5624999999999998 0.5625
vt 0.5624999999999998 0.5625
vt 0.5624999999999998 0.5625
vt 0.5624999999999998 0.5625
vt 0.5624999999999998 0.5625
vt 0.5624999999999998 0.5625
vt 0.5624999999999998 0.5625
vt 0.5624999999999998 0.5625
vt 0.5624999999999998 0.5625
vt 0.5624999999999998 0.5625
vt 0.5624999999999998 0.5625
vt 0.5624999999999998 0.5625
vt 0.5624999999999998 0.5625
vn 0 0 -1
vn 1 0 0
vn 0 0 1
vn -1 0 0
vn 0 1 0
vn 0 -1 0
usemtl m_658d153c-0e5d-8c39-e225-633a1a35e54d
f 48/172/49 51/171/49 49/170/49 46/169/49
f 47/176/50 48/175/50 46/174/50 45/173/50
f 52/180/51 47/179/51 45/178/51 50/177/51
f 51/184/52 52/183/52 50/182/52 49/181/52
f 50/188/53 45/187/53 46/186/53 49/185/53
f 51/192/54 48/191/54 47/190/54 52/189/54
o cylinder
v 0.1875 0.125 0.25
v 0.1875 0.1875 0.25
v 0.2416265877365274 0.125 0.34375
v 0.2103765877365274 0.1875 0.28125
v 0.2957531754730548 0.125 0.25
v 0.23325317547305482 0.1875 0.25
v 0.2416265877365274 0.125 0.15625
v 0.2103765877365274 0.1875 0.21875
v 0.13337341226347257 0.125 0.15625
v 0.16462341226347257 0.1875 0.21875
v 0.0792468245269452 0.125 0.25
v 0.14174682452694518 0.1875 0.25
v 0.13337341226347255 0.125 0.34374999999999994
v 0.16462341226347257 0.1875 0.28125
vt 0.18750000000000006 0.6749999999999999
vt 0.18750000000000006 0.6749999999999999
vt 0.18750000000000006 0.6749999999999999
vt 0.18750000000000006 0.6749999999999999
vt 0.18750000000000006 0.6749999999999999
vt 0.18750000000000006 0.6749999999999999
vt 0.18750000000000006 0.6749999999999999
vt 0.18750000000000006 0.6749999999999999
vt 0.18750000000000006 0.6749999999999999
vt 0.18750000000000006 0.6749999999999999
vt 0.18750000000000006 0.6749999999999999
vt 0.18750000000000006 0.6749999999999999
vt 0.18750000000000006 0.6749999999999999
vt 0.18750000000000006 0.6749999999999999
vt 0.18750000000000006 0.6749999999999999
vt 0.18750000000000006 0.6749999999999999
vt 0.18750000000000006 0.6749999999999999
vt 0.18750000000000006 0.6749999999999999
vt 0.18750000000000006 0.6749999999999999
vt 0.18750000000000006 0.6749999999999999
vt 0.18750000000000006 0.6749999999999999
vt 0.18750000000000006 0.6749999999999999
vt 0.18750000000000006 0.6749999999999999
vt 0.18750000000000006 0.6749999999999999
vt 0.18750000000000006 0.6749999999999999
vt 0.18750000000000006 0.6749999999999999
vt 0.18750000000000006 0.6749999999999999
vt 0.18750000000000006 0.6749999999999999
vt 0.18750000000000006 0.6749999999999999
vt 0.18750000000000006 0.6749999999999999
vt 0.18750000000000006 0.6749999999999999
vt 0.18750000000000006 0.6749999999999999
vt 0.18750000000000006 0.6749999999999999
vt 0.18750000000000006 0.6749999999999999
vt 0.18750000000000006 0.6749999999999999
vt 0.18750000000000006 0.6749999999999999
vt 0.18750000000000006 0.6749999999999999
vt 0.18750000000000006 0.6749999999999999
vt 0.18750000000000006 0.6749999999999999
vt 0.18750000000000006 0.6749999999999999
vt 0.18750000000000006 0.6749999999999999
vt 0.18750000000000006 0.6749999999999999
vt 0.18750000000000006 0.6749999999999999
vt 0.18750000000000006 0.6749999999999999
vt 0.18750000000000006 0.6749999999999999
vt 0.18750000000000006 0.6749999999999999
vt 0.18750000000000006 0.6749999999999999
vt 0.18750000000000006 0.6749999999999999
vt 0.18750000000000006 0.6749999999999999
vt 0.18750000000000006 0.6749999999999999
vt 0.18750000000000006 0.6749999999999999
vt 0.18750000000000006 0.6749999999999999
vt 0.18750000000000006 0.6749999999999999
vt 0.18750000000000006 0.6749999999999999
vt 0.18750000000000006 0.6749999999999999
vt 0.18750000000000006 0.6749999999999999
vt 0.18750000000000006 0.6749999999999999
vt 0.18750000000000006 0.6749999999999999
vt 0.18750000000000006 0.6749999999999999
vt 0.18750000000000006 0.6749999999999999
vn 0 -1 0
vn 0.6546536707079774 0.6546536707079771 0.3779644730092273
vn 0 1 0
vn 0 -1 0
vn 0.6332136975545251 0.6821929475149258 -0.36558609873766323
vn 0 1 0
vn 0 -1 0
vn 0 0.7071067811865476 -0.7071067811865476
vn 0 1 0
vn 0 -1 0
vn -0.6546536707079774 0.6546536707079771 -0.3779644730092271
vn 0 1 0
vn 0 -1 0
vn -0.6332136975545251 0.6821929475149257 0.36558609873766307
vn 0 1 0
vn 0 -1 0
vn -3.625973214694715e-16 0.7071067811865475 0.7071067811865476
vn 0 1 0
usemtl m_658d153c-0e5d-8c39-e225-633a1a35e54d
f 57/193/55 55/194/55 53/195/55
f 55/196/56 57/197/56 58/198/56 56/199/56
f 56/200/57 58/201/57 54/202/57
f 59/203/58 57/204/58 53/205/58
f 57/206/59 59/207/59 60/208/59 58/209/59
f 58/210/60 60/211/60 54/212/60
f 61/213/61 59/214/61 53/215/61
f 59/216/62 61/217/62 62/218/62 60/219/62
f 60/220/63 62/221/63 54/222/63
f 63/223/64 61/224/64 53/225/64
f 61/226/65 63/227/65 64/228/65 62/229/65
f 62/230/66 64/231/66 54/232/66
f 65/233/67 63/234/67 53/235/67
f 63/236/68 65/237/68 66/238/68 64/239/68
f 64/240/69 66/241/69 54/242/69
f 55/243/70 65/244/70 53/245/70
f 65/246/71 55/247/71 56/248/71 66/249/71
f 66/250/72 56/251/72 54/252/72
o cube
v -0.09375 0.1875 0.15625
v -0.09375 0.1875 0.09375
v -0.09375 0 0.15625
v -0.09375 0 0.09375
v -0.15625 0.1875 0.09375
v -0.15625 0.1875 0.15625
v -0.15625 0 0.09375
v -0.15625 0 0.15625
vt 0.5624999999999998 0.5625
vt 0.5624999999999998 0.5625
vt 0.5624999999999998 0.5625
vt 0.5624999999999998 0.5625
vt 0.5624999999999998 0.5625
vt 0.5624999999999998 0.5625
vt 0.5624999999999998 0.5625
vt 0.5624999999999998 0.5625
vt 0.5624999999999998 0.5625
vt 0.5624999999999998 0.5625
vt 0.5624999999999998 0.5625
vt 0.5624999999999998 0.5625
vt 0.5624999999999998 0.5625
vt 0.5624999999999998 0.5625
vt 0.5624999999999998 0.5625
vt 0.5624999999999998 0.5625
vt 0.5624999999999998 0.5625
vt 0.5624999999999998 0.5625
vt 0.5624999999999998 0.5625
vt 0.5624999999999998 0.5625
vt 0.5624999999999998 0.5625
vt 0.5624999999999998 0.5625
vt 0.5624999999999998 0.5625
vt 0.5624999999999998 0.5625
vn 0 0 -1
vn 1 0 0
vn 0 0 1
vn -1 0 0
vn 0 1 0
vn 0 -1 0
usemtl m_658d153c-0e5d-8c39-e225-633a1a35e54d
f 70/256/73 73/255/73 71/254/73 68/253/73
f 69/260/74 70/259/74 68/258/74 67/257/74
f 74/264/75 69/263/75 67/262/75 72/261/75
f 73/268/76 74/267/76 72/266/76 71/265/76
f 72/272/77 67/271/77 68/270/77 71/269/77
f 73/276/78 70/275/78 69/274/78 74/273/78
o cylinder
v -0.125 0.1875 0.125
v -0.125 0.375 0.125
v -0.039623412263472615 0.1875 0.28125
v -0.08891560817564842 0.375 0.17708333333333334
v 0.04575317547305481 0.1875 0.125
v -0.0528312163512968 0.375 0.125
v -0.039623412263472615 0.1875 -0.03125
v -0.08891560817564842 0.375 0.07291666666666666
v -0.21037658773652745 0.1875 -0.03125
v -0.16108439182435164 0.375 0.07291666666666666
v -0.2957531754730548 0.1875 0.125
v -0.19716878364870322 0.375 0.125
v -0.21037658773652748 0.1875 0.2812499999999999
v -0.16108439182435164 0.375 0.17708333333333334
vt 0.18750000000000006 0.6749999999999999
vt 0.18750000000000006 0.6749999999999999
vt 0.18750000000000006 0.6749999999999999
vt 0.18750000000000006 0.6749999999999999
vt 0.18750000000000006 0.6749999999999999
vt 0.18750000000000006 0.6749999999999999
vt 0.18750000000000006 0.6749999999999999
vt 0.18750000000000006 0.6749999999999999
vt 0.18750000000000006 0.6749999999999999
vt 0.18750000000000006 0.6749999999999999
vt 0.18750000000000006 0.6749999999999999
vt 0.18750000000000006 0.6749999999999999
vt 0.18750000000000006 0.6749999999999999
vt 0.18750000000000006 0.6749999999999999
vt 0.18750000000000006 0.6749999999999999
vt 0.18750000000000006 0.6749999999999999
vt 0.18750000000000006 0.6749999999999999
vt 0.18750000000000006 0.6749999999999999
vt 0.18750000000000006 0.6749999999999999
vt 0.18750000000000006 0.6749999999999999
vt 0.18750000000000006 0.6749999999999999
vt 0.18750000000000006 0.6749999999999999
vt 0.18750000000000006 0.6749999999999999
vt 0.18750000000000006 0.6749999999999999
vt 0.18750000000000006 0.6749999999999999
vt 0.18750000000000006 0.6749999999999999
vt 0.18750000000000006 0.6749999999999999
vt 0.18750000000000006 0.6749999999999999
vt 0.18750000000000006 0.6749999999999999
vt 0.18750000000000006 0.6749999999999999
vt 0.18750000000000006 0.6749999999999999
vt 0.18750000000000006 0.6749999999999999
vt 0.18750000000000006 0.6749999999999999
vt 0.18750000000000006 0.6749999999999999
vt 0.18750000000000006 0.6749999999999999
vt 0.18750000000000006 0.6749999999999999
vt 0.18750000000000006 0.6749999999999999
vt 0.18750000000000006 0.6749999999999999
vt 0.18750000000000006 0.6749999999999999
vt 0.18750000000000006 0.6749999999999999
vt 0.18750000000000006 0.6749999999999999
vt 0.18750000000000006 0.6749999999999999
vt 0.18750000000000006 0.6749999999999999
vt 0.18750000000000006 0.6749999999999999
vt 0.18750000000000006 0.6749999999999999
vt 0.18750000000000006 0.6749999999999999
vt 0.18750000000000006 0.6749999999999999
vt 0.18750000000000006 0.6749999999999999
vt 0.18750000000000006 0.6749999999999999
vt 0.18750000000000006 0.6749999999999999
vt 0.18750000000000006 0.6749999999999999
vt 0.18750000000000006 0.6749999999999999
vt 0.18750000000000006 0.6749999999999999
vt 0.18750000000000006 0.6749999999999999
vt 0.18750000000000006 0.6749999999999999
vt 0.18750000000000006 0.6749999999999999
vt 0.18750000000000006 0.6749999999999999
vt 0.18750000000000006 0.6749999999999999
vt 0.18750000000000006 0.6749999999999999
vt 0.18750000000000006 0.6749999999999999
vn 0 -1 0
vn 0.7968159684567232 0.41895262744660156 0.43538834202119353
vn 0 1 0
vn 0 -1 0
vn 0.7858117385238824 0.44512534786342184 -0.4293755189662553
vn 0 1 0
vn 0 -1 0
vn 0 0.48564293117863216 -0.8741572761215378
vn 0 1 0
vn 0 -1 0
vn -0.7968159684567233 0.41895262744660144 -0.4353883420211932
vn 0 1 0
vn 0 -1 0
vn -0.7858117385238826 0.4451253478634218 0.42937551896625514
vn 0 1 0
vn 0 -1 0
vn -5.683698311349355e-16 0.485642931178632 0.8741572761215378
vn 0 1 0
usemtl m_658d153c-0e5d-8c39-e225-633a1a35e54d
f 79/277/79 77/278/79 75/279/79
f 77/280/80 79/281/80 80/282/80 78/283/80
f 78/284/81 80/285/81 76/286/81
f 81/287/82 79/288/82 75/289/82
f 79/290/83 81/291/83 82/292/83 80/293/83
f 80/294/84 82/295/84 76/296/84
f 83/297/85 81/298/85 75/299/85
f 81/300/86 83/301/86 84/302/86 82/303/86
f 82/304/87 84/305/87 76/306/87
f 85/307/88 83/308/88 75/309/88
f 83/310/89 85/311/89 86/312/89 84/313/89
f 84/314/90 86/315/90 76/316/90
f 87/317/91 85/318/91 75/319/91
f 85/320/92 87/321/92 88/322/92 86/323/92
f 86/324/93 88/325/93 76/326/93
f 77/327/94 87/328/94 75/329/94
f 87/330/95 77/331/95 78/332/95 88/333/95
f 88/334/96 78/335/96 76/336/96
o cube
v 0.15625 0.125 -0.21875
v 0.15625 0.125 -0.28125
v 0.15625 0 -0.21875
v 0.15625 0 -0.28125
v 0.09375 0.125 -0.28125
v 0.09375 0.125 -0.21875
v 0.09375 0 -0.28125
v 0.09375 0 -0.21875
vt 0.5624999999999998 0.5625
vt 0.5624999999999998 0.5625
vt 0.5624999999999998 0.5625
vt 0.5624999999999998 0.5625
vt 0.5624999999999998 0.5625
vt 0.5624999999999998 0.5625
vt 0.5624999999999998 0.5625
vt 0.5624999999999998 0.5625
vt 0.5624999999999998 0.5625
vt 0.5624999999999998 0.5625
vt 0.5624999999999998 0.5625
vt 0.5624999999999998 0.5625
vt 0.5624999999999998 0.5625
vt 0.5624999999999998 0.5625
vt 0.5624999999999998 0.5625
vt 0.5624999999999998 0.5625
vt 0.5624999999999998 0.5625
vt 0.5624999999999998 0.5625
vt 0.5624999999999998 0.5625
vt 0.5624999999999998 0.5625
vt 0.5624999999999998 0.5625
vt 0.5624999999999998 0.5625
vt 0.5624999999999998 0.5625
vt 0.5624999999999998 0.5625
vn 0 0 -1
vn 1 0 0
vn 0 0 1
vn -1 0 0
vn 0 1 0
vn 0 -1 0
usemtl m_658d153c-0e5d-8c39-e225-633a1a35e54d
f 92/340/97 95/339/97 93/338/97 90/337/97
f 91/344/98 92/343/98 90/342/98 89/341/98
f 96/348/99 91/347/99 89/346/99 94/345/99
f 95/352/100 96/351/100 94/350/100 93/349/100
f 94/356/101 89/355/101 90/354/101 93/353/101
f 95/360/102 92/359/102 91/358/102 96/357/102
o cylinder
v 0.125 0.125 -0.25
v 0.125 0.1875 -0.25
v 0.1791265877365274 0.125 -0.15625
v 0.1478765877365274 0.1875 -0.21875
v 0.23325317547305482 0.125 -0.25
v 0.17075317547305482 0.1875 -0.25
v 0.1791265877365274 0.125 -0.34375
v 0.1478765877365274 0.1875 -0.28125
v 0.07087341226347257 0.125 -0.34375
v 0.10212341226347257 0.1875 -0.28125
v 0.016746824526945203 0.125 -0.25
v 0.07924682452694518 0.1875 -0.25
v 0.07087341226347255 0.125 -0.15625000000000006
v 0.10212341226347257 0.1875 -0.21875
vt 0.18750000000000006 0.6749999999999999
vt 0.18750000000000006 0.6749999999999999
vt 0.18750000000000006 0.6749999999999999
vt 0.18750000000000006 0.6749999999999999
vt 0.18750000000000006 0.6749999999999999
vt 0.18750000000000006 0.6749999999999999
vt 0.18750000000000006 0.6749999999999999
vt 0.18750000000000006 0.6749999999999999
vt 0.18750000000000006 0.6749999999999999
vt 0.18750000000000006 0.6749999999999999
vt 0.18750000000000006 0.6749999999999999
vt 0.18750000000000006 0.6749999999999999
vt 0.18750000000000006 0.6749999999999999
vt 0.18750000000000006 0.6749999999999999
vt 0.18750000000000006 0.6749999999999999
vt 0.18750000000000006 0.6749999999999999
vt 0.18750000000000006 0.6749999999999999
vt 0.18750000000000006 0.6749999999999999
vt 0.18750000000000006 0.6749999999999999
vt 0.18750000000000006 0.6749999999999999
vt 0.18750000000000006 0.6749999999999999
vt 0.18750000000000006 0.6749999999999999
vt 0.18750000000000006 0.6749999999999999
vt 0.18750000000000006 0.6749999999999999
vt 0.18750000000000006 0.6749999999999999
vt 0.18750000000000006 0.6749999999999999
vt 0.18750000000000006 0.6749999999999999
vt 0.18750000000000006 0.6749999999999999
vt 0.18750000000000006 0.6749999999999999
vt 0.18750000000000006 0.6749999999999999
vt 0.18750000000000006 0.6749999999999999
vt 0.18750000000000006 0.6749999999999999
vt 0.18750000000000006 0.6749999999999999
vt 0.18750000000000006 0.6749999999999999
vt 0.18750000000000006 0.6749999999999999
vt 0.18750000000000006 0.6749999999999999
vt 0.18750000000000006 0.6749999999999999
vt 0.18750000000000006 0.6749999999999999
vt 0.18750000000000006 0.6749999999999999
vt 0.18750000000000006 0.6749999999999999
vt 0.18750000000000006 0.6749999999999999
vt 0.18750000000000006 0.6749999999999999
vt 0.18750000000000006 0.6749999999999999
vt 0.18750000000000006 0.6749999999999999
vt 0.18750000000000006 0.6749999999999999
vt 0.18750000000000006 0.6749999999999999
vt 0.18750000000000006 0.6749999999999999
vt 0.18750000000000006 0.6749999999999999
vt 0.18750000000000006 0.6749999999999999
vt 0.18750000000000006 0.6749999999999999
vt 0.18750000000000006 0.6749999999999999
vt 0.18750000000000006 0.6749999999999999
vt 0.18750000000000006 0.6749999999999999
vt 0.18750000000000006 0.6749999999999999
vt 0.18750000000000006 0.6749999999999999
vt 0.18750000000000006 0.6749999999999999
vt 0.18750000000000006 0.6749999999999999
vt 0.18750000000000006 0.6749999999999999
vt 0.18750000000000006 0.6749999999999999
vt 0.18750000000000006 0.6749999999999999
vn 0 -1 0
vn 0.6546536707079772 0.6546536707079772 0.3779644730092273
vn 0 1 0
vn 0 -1 0
vn 0.633213697554525 0.6821929475149258 -0.36558609873766335
vn 0 1 0
vn 0 -1 0
vn 0 0.7071067811865476 -0.7071067811865476
vn 0 1 0
vn 0 -1 0
vn -0.6546536707079774 0.6546536707079771 -0.3779644730092271
vn 0 1 0
vn 0 -1 0
vn -0.6332136975545251 0.6821929475149257 0.36558609873766307
vn 0 1 0
vn 0 -1 0
vn -3.625973214694715e-16 0.7071067811865475 0.7071067811865476
vn 0 1 0
usemtl m_658d153c-0e5d-8c39-e225-633a1a35e54d
f 101/361/103 99/362/103 97/363/103
f 99/364/104 101/365/104 102/366/104 100/367/104
f 100/368/105 102/369/105 98/370/105
f 103/371/106 101/372/106 97/373/106
f 101/374/107 103/375/107 104/376/107 102/377/107
f 102/378/108 104/379/108 98/380/108
f 105/381/109 103/382/109 97/383/109
f 103/384/110 105/385/110 106/386/110 104/387/110
f 104/388/111 106/389/111 98/390/111
f 107/391/112 105/392/112 97/393/112
f 105/394/113 107/395/113 108/396/113 106/397/113
f 106/398/114 108/399/114 98/400/114
f 109/401/115 107/402/115 97/403/115
f 107/404/116 109/405/116 110/406/116 108/407/116
f 108/408/117 110/409/117 98/410/117
f 99/411/118 109/412/118 97/413/118
f 109/414/119 99/415/119 100/416/119 110/417/119
f 110/418/120 100/419/120 98/420/120