# Made in Blockbench 4.8.1
mtllib OilLamp.mtl

o cylinder
v 0 0 0
v 0 0.0625 0
v 0.0853765877365274 0 0.15625
v 0.0853765877365274 0.0625 0.15625
v 0.17075317547305482 0 1.1047658736717781e-17
v 0.17075317547305482 0.0625 1.1047658736717781e-17
v 0.0853765877365274 0 -0.15625
v 0.0853765877365274 0.0625 -0.15625
v -0.08537658773652743 0 -0.15625
v -0.08537658773652743 0.0625 -0.15625
v -0.17075317547305482 0 -3.314297621015334e-17
v -0.17075317547305482 0.0625 -3.314297621015334e-17
v -0.08537658773652748 0 0.15624999999999994
v -0.08537658773652748 0.0625 0.15624999999999994
vt 0.31250000000000006 0.6875
vt 0.31250000000000006 0.6875
vt 0.31250000000000006 0.6875
vt 0.31250000000000006 0.6875
vt 0.31250000000000006 0.6875
vt 0.31250000000000006 0.6875
vt 0.31250000000000006 0.6875
vt 0.31250000000000006 0.6875
vt 0.31250000000000006 0.6875
vt 0.31250000000000006 0.6875
vt 0.31250000000000006 0.6875
vt 0.31250000000000006 0.6875
vt 0.31250000000000006 0.6875
vt 0.31250000000000006 0.6875
vt 0.31250000000000006 0.6875
vt 0.31250000000000006 0.6875
vt 0.31250000000000006 0.6875
vt 0.31250000000000006 0.6875
vt 0.31250000000000006 0.6875
vt 0.31250000000000006 0.6875
vt 0.31250000000000006 0.6875
vt 0.31250000000000006 0.6875
vt 0.31250000000000006 0.6875
vt 0.31250000000000006 0.6875
vt 0.31250000000000006 0.6875
vt 0.31250000000000006 0.6875
vt 0.31250000000000006 0.6875
vt 0.31250000000000006 0.6875
vt 0.31250000000000006 0.6875
vt 0.31250000000000006 0.6875
vt 0.31250000000000006 0.6875
vt 0.31250000000000006 0.6875
vt 0.31250000000000006 0.6875
vt 0.31250000000000006 0.6875
vt 0.31250000000000006 0.6875
vt 0.31250000000000006 0.6875
vt 0.31250000000000006 0.6875
vt 0.31250000000000006 0.6875
vt 0.31250000000000006 0.6875
vt 0.31250000000000006 0.6875
vt 0.31250000000000006 0.6875
vt 0.31250000000000006 0.6875
vt 0.31250000000000006 0.6875
vt 0.31250000000000006 0.6875
vt 0.31250000000000006 0.6875
vt 0.31250000000000006 0.6875
vt 0.31250000000000006 0.6875
vt 0.31250000000000006 0.6875
vt 0.31250000000000006 0.6875
vt 0.31250000000000006 0.6875
vt 0.31250000000000006 0.6875
vt 0.31250000000000006 0.6875
vt 0.31250000000000006 0.6875
vt 0.31250000000000006 0.6875
vt 0.31250000000000006 0.6875
vt 0.31250000000000006 0.6875
vt 0.31250000000000006 0.6875
vt 0.31250000000000006 0.6875
vt 0.31250000000000006 0.6875
vt 0.31250000000000006 0.6875
vn 0 -1 0
vn 0.8775428050495758 0 0.47949830584239034
vn 0 1 0
vn 0 -1 0
vn 0.8775428050495758 0 -0.47949830584239034
vn 0 1 0
vn 0 -1 0
vn 0 0 -1
vn 0 1 0
vn 0 -1 0
vn -0.8775428050495757 0 -0.4794983058423902
vn 0 1 0
vn 0 -1 0
vn -0.8775428050495759 0 0.47949830584239
vn 0 1 0
vn 0 -1 0
vn -3.2509586470336286e-16 0 1
vn 0 1 0
usemtl m_55266bb3-a112-efdb-3f32-7fed6d1fd432
f 5/1/1 3/2/1 1/3/1
f 3/4/2 5/5/2 6/6/2 4/7/2
f 4/8/3 6/9/3 2/10/3
f 7/11/4 5/12/4 1/13/4
f 5/14/5 7/15/5 8/16/5 6/17/5
f 6/18/6 8/19/6 2/20/6
f 9/21/7 7/22/7 1/23/7
f 7/24/8 9/25/8 10/26/8 8/27/8
f 8/28/9 10/29/9 2/30/9
f 11/31/10 9/32/10 1/33/10
f 9/34/11 11/35/11 12/36/11 10/37/11
f 10/38/12 12/39/12 2/40/12
f 13/41/13 11/42/13 1/43/13
f 11/44/14 13/45/14 14/46/14 12/47/14
f 12/48/15 14/49/15 2/50/15
f 3/51/16 13/52/16 1/53/16
f 13/54/17 3/55/17 4/56/17 14/57/17
f 14/58/18 4/59/18 2/60/18
o cylinder
v 0 0.0625 0
v 0 0.125 0
v 0.0541265877365274 0.0625 0.09375
v 0.0541265877365274 0.125 0.09375
v 0.10825317547305481 0.0625 6.628595242030668e-18
v 0.10825317547305481 0.125 6.628595242030668e-18
v 0.0541265877365274 0.0625 -0.09375
v 0.0541265877365274 0.125 -0.09375
v -0.05412658773652741 0.0625 -0.09375
v -0.05412658773652741 0.125 -0.09375
v -0.10825317547305481 0.0625 -1.9885785726092003e-17
v -0.10825317547305481 0.125 -1.9885785726092003e-17
v -0.054126587736527454 0.0625 0.09374999999999996
v -0.054126587736527454 0.125 0.09374999999999996
vt 0.0625 0.5499999999999999
vt 0.0625 0.5499999999999999
vt 0.0625 0.5499999999999999
vt 0.0625 0.5499999999999999
vt 0.0625 0.5499999999999999
vt 0.0625 0.5499999999999999
vt 0.0625 0.5499999999999999
vt 0.0625 0.5499999999999999
vt 0.0625 0.5499999999999999
vt 0.0625 0.5499999999999999
vt 0.0625 0.5499999999999999
vt 0.0625 0.5499999999999999
vt 0.0625 0.5499999999999999
vt 0.0625 0.5499999999999999
vt 0.0625 0.5499999999999999
vt 0.0625 0.5499999999999999
vt 0.0625 0.5499999999999999
vt 0.0625 0.5499999999999999
vt 0.0625 0.5499999999999999
vt 0.0625 0.5499999999999999
vt 0.0625 0.5499999999999999
vt 0.0625 0.5499999999999999
vt 0.0625 0.5499999999999999
vt 0.0625 0.5499999999999999
vt 0.0625 0.5499999999999999
vt 0.0625 0.5499999999999999
vt 0.0625 0.5499999999999999
vt 0.0625 0.5499999999999999
vt 0.0625 0.5499999999999999
vt 0.0625 0.5499999999999999
vt 0.0625 0.5499999999999999
vt 0.0625 0.5499999999999999
vt 0.0625 0.5499999999999999
vt 0.0625 0.5499999999999999
vt 0.0625 0.5499999999999999
vt 0.0625 0.5499999999999999
vt 0.0625 0.5499999999999999
vt 0.0625 0.5499999999999999
vt 0.0625 0.5499999999999999
vt 0.0625 0.5499999999999999
vt 0.0625 0.5499999999999999
vt 0.0625 0.5499999999999999
vt 0.0625 0.5499999999999999
vt 0.0625 0.5499999999999999
vt 0.0625 0.5499999999999999
vt 0.0625 0.5499999999999999
vt 0.0625 0.5499999999999999
vt 0.0625 0.5499999999999999
vt 0.0625 0.5499999999999999
vt 0.0625 0.5499999999999999
vt 0.0625 0.5499999999999999
vt 0.0625 0.5499999999999999
vt 0.0625 0.5499999999999999
vt 0.0625 0.5499999999999999
vt 0.0625 0.5499999999999999
vt 0.0625 0.5499999999999999
vt 0.0625 0.5499999999999999
vt 0.0625 0.5499999999999999
vt 0.0625 0.5499999999999999
vt 0.0625 0.5499999999999999
vn 0 -1 0
vn 0.8660254037844387 0 0.5
vn 0 1 0
vn 0 -1 0
vn 0.8660254037844387 0 -0.5
vn 0 1 0
vn 0 -1 0
vn 0 0 -1
vn 0 1 0
vn 0 -1 0
vn -0.8660254037844387 0 -0.49999999999999994
vn 0 1 0
vn 0 -1 0
vn -0.8660254037844389 0 0.4999999999999997
vn 0 1 0
vn 0 -1 0
vn -3.845925372767127e-16 0 1
vn 0 1 0
usemtl m_55266bb3-a112-efdb-3f32-7fed6d1fd432
f 19/61/19 17/62/19 15/63/19
f 17/64/20 19/65/20 20/66/20 18/67/20
f 18/68/21 20/69/21 16/70/21
f 21/71/22 19/72/22 15/73/22
f 19/74/23 21/75/23 22/76/23 20/77/23
f 20/78/24 22/79/24 16/80/24
f 23/81/25 21/82/25 15/83/25
f 21/84/26 23/85/26 24/86/26 22/87/26
f 22/88/27 24/89/27 16/90/27
f 25/91/28 23/92/28 15/93/28
f 23/94/29 25/95/29 26/96/29 24/97/29
f 24/98/30 26/99/30 16/100/30
f 27/101/31 25/102/31 15/103/31
f 25/104/32 27/105/32 28/106/32 26/107/32
f 26/108/33 28/109/33 16/110/33
f 17/111/34 27/112/34 15/113/34
f 27/114/35 17/115/35 18/116/35 28/117/35
f 28/118/36 18/119/36 16/120/36
o cube
v 0.015625 0.375 0.140625
v 0.015625 0.375 0.109375
v 0.015625 0.0625 0.140625
v 0.015625 0.0625 0.109375
v -0.015625 0.375 0.109375
v -0.015625 0.375 0.140625
v -0.015625 0.0625 0.109375
v -0.015625 0.0625 0.140625
vt 0.5624999999999998 0.95
vt 0.5624999999999998 0.95
vt 0.5624999999999998 0.95
vt 0.5624999999999998 0.95
vt 0.5624999999999998 0.95
vt 0.5624999999999998 0.95
vt 0.5624999999999998 0.95
vt 0.5624999999999998 0.95
vt 0.5624999999999998 0.95
vt 0.5624999999999998 0.95
vt 0.5624999999999998 0.95
vt 0.5624999999999998 0.95
vt 0.5624999999999998 0.95
vt 0.5624999999999998 0.95
vt 0.5624999999999998 0.95
vt 0.5624999999999998 0.95
vt 0.5624999999999998 0.95
vt 0.5624999999999998 0.95
vt 0.5624999999999998 0.95
vt 0.5624999999999998 0.95
vt 0.5624999999999998 0.95
vt 0.5624999999999998 0.95
vt 0.5624999999999998 0.95
vt 0.5624999999999998 0.95
vn 0 0 -1
vn 1 0 0
vn 0 0 1
vn -1 0 0
vn 0 1 0
vn 0 -1 0
usemtl m_55266bb3-a112-efdb-3f32-7fed6d1fd432
f 32/124/37 35/123/37 33/122/37 30/121/37
f 31/128/38 32/127/38 30/126/38 29/125/38
f 36/132/39 31/131/39 29/130/39 34/129/39
f 35/136/40 36/135/40 34/134/40 33/133/40
f 34/140/41 29/139/41 30/138/41 33/137/41
f 35/144/42 32/143/42 31/142/42 36/141/42
o cube
v 0.015625 0.375 -0.109375
v 0.015625 0.375 -0.140625
v 0.015625 0.0625 -0.109375
v 0.015625 0.0625 -0.140625
v -0.015625 0.375 -0.140625
v -0.015625 0.375 -0.109375
v -0.015625 0.0625 -0.140625
v -0.015625 0.0625 -0.109375
vt 0.5624999999999998 0.95
vt 0.5624999999999998 0.95
vt 0.5624999999999998 0.95
vt 0.5624999999999998 0.95
vt 0.5624999999999998 0.95
vt 0.5624999999999998 0.95
vt 0.5624999999999998 0.95
vt 0.5624999999999998 0.95
vt 0.5624999999999998 0.95
vt 0.5624999999999998 0.95
vt 0.5624999999999998 0.95
vt 0.5624999999999998 0.95
vt 0.5624999999999998 0.95
vt 0.5624999999999998 0.95
vt 0.5624999999999998 0.95
vt 0.5624999999999998 0.95
vt 0.5624999999999998 0.95
vt 0.5624999999999998 0.95
vt 0.5624999999999998 0.95
vt 0.5624999999999998 0.95
vt 0.5624999999999998 0.95
vt 0.5624999999999998 0.95
vt 0.5624999999999998 0.95
vt 0.5624999999999998 0.95
vn 0 0 -1
vn 1 0 0
vn 0 0 1
vn -1 0 0
vn 0 1 0
vn 0 -1 0
usemtl m_55266bb3-a112-efdb-3f32-7fed6d1fd432
f 40/148/43 43/147/43 41/146/43 38/145/43
f 39/152/44 40/151/44 38/150/44 37/149/44
f 44/156/45 39/155/45 37/154/45 42/153/45
f 43/160/46 44/159/46 42/158/46 41/157/46
f 42/164/47 37/163/47 38/162/47 41/161/47
f 43/168/48 40/167/48 39/166/48 44/165/48
o cylinder
v 0 0.375 0
v 0 0.4375 0
v 0.0853765877365274 0.375 0.15625
v 0.0853765877365274 0.4375 0.15625
v 0.17075317547305482 0.375 1.1047658736717781e-17
v 0.17075317547305482 0.4375 1.1047658736717781e-17
v 0.0853765877365274 0.375 -0.15625
v 0.0853765877365274 0.4375 -0.15625
v -0.08537658773652743 0.375 -0.15625
v -0.08537658773652743 0.4375 -0.15625
v -0.17075317547305482 0.375 -3.314297621015334e-17
v -0.17075317547305482 0.4375 -3.314297621015334e-17
v -0.08537658773652748 0.375 0.15624999999999994
v -0.08537658773652748 0.4375 0.15624999999999994
vt 0.31250000000000017 0.6624999999999999
vt 0.31250000000000017 0.6624999999999999
vt 0.31250000000000017 0.6624999999999999
vt 0.31250000000000017 0.6624999999999999
vt 0.31250000000000017 0.6624999999999999
vt 0.31250000000000017 0.6624999999999999
vt 0.31250000000000017 0.6624999999999999
vt 0.31250000000000017 0.6624999999999999
vt 0.31250000000000017 0.6624999999999999
vt 0.31250000000000017 0.6624999999999999
vt 0.31250000000000017 0.6624999999999999
vt 0.31250000000000017 0.6624999999999999
vt 0.31250000000000017 0.6624999999999999
vt 0.31250000000000017 0.6624999999999999
vt 0.31250000000000017 0.6624999999999999
vt 0.31250000000000017 0.6624999999999999
vt 0.31250000000000017 0.6624999999999999
vt 0.31250000000000017 0.6624999999999999
vt 0.31250000000000017 0.6624999999999999
vt 0.31250000000000017 0.6624999999999999
vt 0.31250000000000017 0.6624999999999999
vt 0.31250000000000017 0.6624999999999999
vt 0.31250000000000017 0.6624999999999999
vt 0.31250000000000017 0.6624999999999999
vt 0.31250000000000017 0.6624999999999999
vt 0.31250000000000017 0.6624999999999999
vt 0.31250000000000017 0.6624999999999999
vt 0.31250000000000017 0.6624999999999999
vt 0.31250000000000017 0.6624999999999999
vt 0.31250000000000017 0.6624999999999999
vt 0.31250000000000017 0.6624999999999999
vt 0.31250000000000017 0.6624999999999999
vt 0.31250000000000017 0.6624999999999999
vt 0.31250000000000017 0.6624999999999999
vt 0.31250000000000017 0.6624999999999999
vt 0.31250000000000017 0.6624999999999999
vt 0.31250000000000017 0.6624999999999999
vt 0.31250000000000017 0.6624999999999999
vt 0.31250000000000017 0.6624999999999999
vt 0.31250000000000017 0.6624999999999999
vt 0.31250000000000017 0.6624999999999999
vt 0.31250000000000017 0.6624999999999999
vt 0.31250000000000017 0.6624999999999999
vt 0.31250000000000017 0.6624999999999999
vt 0.31250000000000017 0.6624999999999999
vt 0.31250000000000017 0.6624999999999999
vt 0.31250000000000017 0.6624999999999999
vt 0.31250000000000017 0.6624999999999999
vt 0.31250000000000017 0.6624999999999999
vt 0.31250000000000017 0.6624999999999999
vt 0.31250000000000017 0.6624999999999999
vt 0.31250000000000017 0.6624999999999999
vt 0.31250000000000017 0.6624999999999999
vt 0.31250000000000017 0.6624999999999999
vt 0.31250000000000017 0.6624999999999999
vt 0.31250000000000017 0.6624999999999999
vt 0.31250000000000017 0.6624999999999999
vt 0.31250000000000017 0.6624999999999999
vt 0.31250000000000017 0.6624999999999999
vt 0.31250000000000017 0.6624999999999999
vn 0 -1 0
vn 0.8775428050495758 0 0.47949830584239034
vn 0 1 0
vn 0 -1 0
vn 0.8775428050495758 0 -0.47949830584239034
vn 0 1 0
vn 0 -1 0
vn 0 0 -1
vn 0 1 0
vn 0 -1 0
vn -0.8775428050495757 0 -0.4794983058423902
vn 0 1 0
vn 0 -1 0
vn -0.8775428050495759 0 0.47949830584239
vn 0 1 0
vn 0 -1 0
vn -3.2509586470336286e-16 0 1
vn 0 1 0
usemtl m_55266bb3-a112-efdb-3f32-7fed6d1fd432
f 49/169/49 47/170/49 45/171/49
f 47/172/50 49/173/50 50/174/50 48/175/50
f 48/176/51 50/177/51 46/178/51
f 51/179/52 49/180/52 45/181/52
f 49/182/53 51/183/53 52/184/53 50/185/53
f 50/186/54 52/187/54 46/188/54
f 53/189/55 51/190/55 45/191/55
f 51/192/56 53/193/56 54/194/56 52/195/56
f 52/196/57 54/197/57 46/198/57
f 55/199/58 53/200/58 45/201/58
f 53/202/59 55/203/59 56/204/59 54/205/59
f 54/206/60 56/207/60 46/208/60
f 57/209/61 55/210/61 45/211/61
f 55/212/62 57/213/62 58/214/62 56/215/62
f 56/216/63 58/217/63 46/218/63
f 47/219/64 57/220/64 45/221/64
f 57/222/65 47/223/65 48/224/65 58/225/65
f 58/226/66 48/227/66 46/228/66
o sphere
v 0 0.10624999999999998 0
v 0 0.34375 0
v 0.04687499999999999 0.30937500000000007 0.08118988160479113
v 0.04687499999999999 0.153125 0.08118988160479113
v 0.09375 0.30937500000000007 5.740531871003218e-18
v 0.09375 0.153125 5.740531871003218e-18
v 0.04687499999999999 0.30937500000000007 -0.08118988160479113
v 0.04687499999999999 0.153125 -0.08118988160479113
v -0.046875000000000014 0.30937500000000007 -0.08118988160479113
v -0.046875000000000014 0.153125 -0.08118988160479113
v -0.09375 0.30937500000000007 -1.7221595613009655e-17
v -0.09375 0.153125 -1.7221595613009655e-17
v -0.04687500000000004 0.30937500000000007 0.0811898816047911
v -0.04687500000000004 0.153125 0.0811898816047911
vt 0.05 0.925
vt 0.05 0.925
vt 0.05 0.925
vt 0.05 0.925
vt 0.05 0.925
vt 0.05 0.925
vt 0.05 0.925
vt 0.05 0.925
vt 0.05 0.925
vt 0.05 0.925
vt 0.05 0.925
vt 0.05 0.925
vt 0.05 0.925
vt 0.05 0.925
vt 0.05 0.925
vt 0.05 0.925
vt 0.05 0.925
vt 0.05 0.925
vt 0.05 0.925
vt 0.05 0.925
vt 0.05 0.925
vt 0.05 0.925
vt 0.05 0.925
vt 0.05 0.925
vt 0.05 0.925
vt 0.05 0.925
vt 0.05 0.925
vt 0.05 0.925
vt 0.05 0.925
vt 0.05 0.925
vt 0.05 0.925
vt 0.05 0.925
vt 0.05 0.925
vt 0.05 0.925
vt 0.05 0.925
vt 0.05 0.925
vt 0.05 0.925
vt 0.05 0.925
vt 0.05 0.925
vt 0.05 0.925
vt 0.05 0.925
vt 0.05 0.925
vt 0.05 0.925
vt 0.05 0.925
vt 0.05 0.925
vt 0.05 0.925
vt 0.05 0.925
vt 0.05 0.925
vt 0.05 0.925
vt 0.05 0.925
vt 0.05 0.925
vt 0.05 0.925
vt 0.05 0.925
vt 0.05 0.925
vt 0.05 0.925
vt 0.05 0.925
vt 0.05 0.925
vt 0.05 0.925
vt 0.05 0.925
vt 0.05 0.925
vn 0.3376500224913984 0.9208636977038156 0.19494233137729208
vn 0.8660254037844388 0 0.5000000000000001
vn 0.43301270189221963 -0.8660254037844387 0.2500000000000002
vn 0.3376500224913984 0.9208636977038156 -0.19494233137729208
vn 0.8660254037844388 0 -0.5000000000000001
vn 0.43301270189221963 -0.8660254037844387 -0.2500000000000002
vn 0 0.9208636977038156 -0.3898846627545841
vn 0 0 -1
vn 0 -0.8660254037844387 -0.5000000000000003
vn -0.3376500224913984 0.9208636977038157 -0.19494233137729206
vn -0.8660254037844387 0 -0.49999999999999994
vn -0.4330127018922195 -0.8660254037844386 -0.25000000000000006
vn -0.33765002249139847 0.9208636977038157 0.19494233137729197
vn -0.8660254037844388 0 0.4999999999999997
vn -0.43301270189221963 -0.8660254037844387 0.24999999999999994
vn -1.1542904787689423e-16 0.9208636977038156 0.3898846627545841
vn -2.9605947323337496e-16 0 1
vn -1.4802973661668758e-16 -0.8660254037844385 0.5000000000000003
usemtl m_55266bb3-a112-efdb-3f32-7fed6d1fd432
f 61/229/67 63/230/67 60/231/67
f 61/232/68 62/233/68 64/234/68 63/235/68
f 64/236/69 62/237/69 59/238/69
f 63/239/70 65/240/70 60/241/70
f 63/242/71 64/243/71 66/244/71 65/245/71
f 66/246/72 64/247/72 59/248/72
f 65/249/73 67/250/73 60/251/73
f 65/252/74 66/253/74 68/254/74 67/255/74
f 68/256/75 66/257/75 59/258/75
f 67/259/76 69/260/76 60/261/76
f 67/262/77 68/263/77 70/264/77 69/265/77
f 70/266/78 68/267/78 59/268/78
f 69/269/79 71/270/79 60/271/79
f 69/272/80 70/273/80 72/274/80 71/275/80
f 72/276/81 70/277/81 59/278/81
f 71/279/82 61/280/82 60/281/82
f 71/282/83 72/283/83 62/284/83 61/285/83
f 62/286/84 72/287/84 59/288/84