# Made in Blockbench 4.8.1
mtllib Sapling.mtl

o cube
v 0.1875 0.0625 0.1875
v 0.1875 0.0625 -0.1875
v 0.1875 0 0.1875
v 0.1875 0 -0.1875
v -0.1875 0.0625 -0.1875
v -0.1875 0.0625 0.1875
v -0.1875 0 -0.1875
v -0.1875 0 0.1875
vt 0.875 0.5
vt 1 0.5
vt 1 0.4375
vt 0.875 0.4375
vt 0.875 0.5
vt 1 0.5
vt 1 0.4375
vt 0.875 0.4375
vt 0.875 0.5
vt 1 0.5
vt 1 0.4375
vt 0.875 0.4375
vt 0.875 0.5
vt 1 0.5
vt 1 0.4375
vt 0.875 0.4375
vt 0.875 0.5
vt 1 0.5
vt 1 0.375
vt 0.875 0.375
vt 0.875 0.5
vt 1 0.5
vt 1 0.375
vt 0.875 0.375
vn 0 0 -1
vn 1 0 0
vn 0 0 1
vn -1 0 0
vn 0 1 0
vn 0 -1 0
usemtl m_44a424ff-951c-47ab-a1c8-533d99d415eb
f 4/4/1 7/3/1 5/2/1 2/1/1
f 3/8/2 4/7/2 2/6/2 1/5/2
f 8/12/3 3/11/3 1/10/3 6/9/3
f 7/16/4 8/15/4 6/14/4 5/13/4
f 6/20/5 1/19/5 2/18/5 5/17/5
f 7/24/6 4/23/6 3/22/6 8/21/6
o cube
v 0.125 0.125 0.125
v 0.125 0.125 -0.125
v 0.125 0.0625 0.125
v 0.125 0.0625 -0.125
v -0.125 0.125 -0.125
v -0.125 0.125 0.125
v -0.125 0.0625 -0.125
v -0.125 0.0625 0.125
vt 0.75 0.5
vt 0.875 0.5
vt 0.875 0.4375
vt 0.75 0.4375
vt 0.75 0.5
vt 0.875 0.5
vt 0.875 0.4375
vt 0.75 0.4375
vt 0.75 0.5
vt 0.875 0.5
vt 0.875 0.4375
vt 0.75 0.4375
vt 0.75 0.5
vt 0.875 0.5
vt 0.875 0.4375
vt 0.75 0.4375
vt 0.75 0.5
vt 0.875 0.5
vt 0.875 0.375
vt 0.75 0.375
vt 0.75 0.5
vt 0.875 0.5
vt 0.875 0.375
vt 0.75 0.375
vn 0 0 -1
vn 1 0 0
vn 0 0 1
vn -1 0 0
vn 0 1 0
vn 0 -1 0
usemtl m_44a424ff-951c-47ab-a1c8-533d99d415eb
f 12/28/7 15/27/7 13/26/7 10/25/7
f 11/32/8 12/31/8 10/30/8 9/29/8
f 16/36/9 11/35/9 9/34/9 14/33/9
f 15/40/10 16/39/10 14/38/10 13/37/10
f 14/44/11 9/43/11 10/42/11 13/41/11
f 15/48/12 12/47/12 11/46/12 16/45/12
o cube
v 0.03125 0.375 0.03125
v 0.03125 0.375 -0.03125
v 0.03125 0.125 0.03125
v 0.03125 0.125 -0.03125
v -0.03125 0.375 -0.03125
v -0.03125 0.375 0.03125
v -0.03125 0.125 -0.03125
v -0.03125 0.125 0.03125
vt 0.75 0.625
vt 0.8125 0.625
vt 0.8125 0.5
vt 0.75 0.5
vt 0.75 0.625
vt 0.8125 0.625
vt 0.8125 0.5
vt 0.75 0.5
vt 0.75 0.625
vt 0.8125 0.625
vt 0.8125 0.5
vt 0.75 0.5
vt 0.75 0.625
vt 0.8125 0.625
vt 0.8125 0.5
vt 0.75 0.5
vt 0.75 0.625
vt 0.8125 0.625
vt 0.8125 0.5625
vt 0.75 0.5625
vt 0.75 0.625
vt 0.8125 0.625
vt 0.8125 0.5625
vt 0.75 0.5625
vn 0 0 -1
vn 1 0 0
vn 0 0 1
vn -1 0 0
vn 0 1 0
vn 0 -1 0
usemtl m_44a424ff-951c-47ab-a1c8-533d99d415eb
f 20/52/13 23/51/13 21/50/13 18/49/13
f 19/56/14 20/55/14 18/54/14 17/53/14
f 24/60/15 19/59/15 17/58/15 22/57/15
f 23/64/16 24/63/16 22/62/16 21/61/16
f 22/68/17 17/67/17 18/66/17 21/65/17
f 23/72/18 20/71/18 19/70/18 24/69/18
o cube
v 0.06808016966015917 0.5510730641309607 0.12975115636630585
v 0.11595794735509535 0.5510730641309605 0.08957693076089712
v -0.006121402184196378 0.3293203558364052 0.041321166544657784
v 0.04175637551073974 0.3293203558364052 0.0011469409392491636
v 0.08032297402855193 0.5799323524581501 0.047108823276990175
v 0.032445196333615756 0.5799323524581501 0.0872830488823989
v 0.006121402184196323 0.3581796441635948 -0.041321166544657895
v -0.041756375510739796 0.3581796441635948 -0.0011469409392491636
vt 0.75 0.625
vt 0.8125 0.625
vt 0.8125 0.5
vt 0.75 0.5
vt 0.75 0.625
vt 0.8125 0.625
vt 0.8125 0.5
vt 0.75 0.5
vt 0.75 0.625
vt 0.8125 0.625
vt 0.8125 0.5
vt 0.75 0.5
vt 0.75 0.625
vt 0.8125 0.625
vt 0.8125 0.5
vt 0.75 0.5
vt 0.75 0.625
vt 0.8125 0.625
vt 0.8125 0.5625
vt 0.75 0.5625
vt 0.75 0.625
vt 0.8125 0.625
vt 0.8125 0.5625
vt 0.75 0.5625
vn 0.7660444431189785 -5.551115123125783e-16 -0.642787609686539
vn 0.5701595732246942 -0.46174861323503447 0.6794897197425119
vn -0.7660444431189785 5.551115123125783e-16 0.642787609686539
vn -0.5701595732246942 0.46174861323503447 -0.6794897197425119
vn 0.29680628737742226 0.8870108331782215 0.3537199592865922
vn -0.29680628737742226 -0.8870108331782215 -0.3537199592865922
usemtl m_44a424ff-951c-47ab-a1c8-533d99d415eb
f 28/76/19 31/75/19 29/74/19 26/73/19
f 27/80/20 28/79/20 26/78/20 25/77/20
f 32/84/21 27/83/21 25/82/21 30/81/21
f 31/88/22 32/87/22 30/86/22 29/85/22
f 30/92/23 25/91/23 26/90/23 29/89/23
f 31/96/24 28/95/24 27/94/24 32/93/24
o cube
v -0.040488238570901 0.5081547085341491 -0.24271748213223454
v -0.042792537486492366 0.5030350082573429 -0.24546363864330145
v 0.09114695755868962 0.3647605994463876 -0.08584076423295117
v 0.08884265864309837 0.3596408991695814 -0.08858692074401808
v -0.23430364826623695 0.5030350082573429 -0.08476673622166675
v -0.2319993493506456 0.5081547085341491 -0.08202057971059984
v -0.10266845213664627 0.3596408991695814 0.07210998167761662
v -0.10036415322105496 0.3647605994463876 0.07485613818868353
vt 0.75 0.875
vt 0.875 0.875
vt 0.875 0.75
vt 0.75 0.75
vt 0.75 0.875
vt 0.875 0.875
vt 0.875 0.75
vt 0.75 0.75
vt 0.75 0.875
vt 0.875 0.875
vt 0.875 0.75
vt 0.75 0.75
vt 0.75 0.875
vt 0.875 0.875
vt 0.875 0.75
vt 0.75 0.75
vt 0.75 0.875
vt 0.875 0.875
vt 0.875 0.75
vt 0.75 0.75
vt 0.75 0.875
vt 0.875 0.875
vt 0.875 0.75
vt 0.75 0.75
vn -0.36868782649461207 -0.8191520442889917 -0.4393850417707054
vn 0.7660444431189786 2.775557561562892e-17 -0.6427876096865388
vn 0.36868782649461207 0.8191520442889917 0.4393850417707054
vn -0.7660444431189786 -2.775557561562892e-17 0.6427876096865388
vn -0.5265407845183628 0.5735764363510462 -0.6275068715971335
vn 0.5265407845183628 -0.5735764363510462 0.6275068715971335
usemtl m_44a424ff-951c-47ab-a1c8-533d99d415eb
f 36/100/25 39/99/25 37/98/25 34/97/25
f 35/104/26 36/103/26 34/102/26 33/101/26
f 40/108/27 35/107/27 33/106/27 38/105/27
f 39/112/28 40/111/28 38/110/28 37/109/28
f 38/116/29 33/115/29 34/114/29 37/113/29
f 39/120/30 36/119/30 35/118/30 40/117/30
o cube
v 0.1321477322586948 0.6062102187074689 0.3489287729812123
v 0.1327702354019764 0.6000551702511425 0.3498177996044807
v -0.026378981210322616 0.5629633702261958 0.16051701322840428
v -0.025756478067041066 0.5568083217698696 0.16140603985167257
v 0.3244712131127834 0.596271561275808 0.1893920552619891
v 0.32384870996950177 0.6024266097321345 0.18850302863872082
v 0.1659444996437659 0.5530247127945351 0.000980295509180995
v 0.1653219965004844 0.5591797612508613 0.00009126888591270976
vt 0.75 0.875
vt 0.875 0.875
vt 0.875 0.75
vt 0.75 0.75
vt 0.75 0.875
vt 0.875 0.875
vt 0.875 0.75
vt 0.75 0.75
vt 0.75 0.875
vt 0.875 0.875
vt 0.875 0.75
vt 0.75 0.75
vt 0.75 0.875
vt 0.875 0.875
vt 0.875 0.75
vt 0.75 0.75
vt 0.75 0.875
vt 0.875 0.875
vt 0.875 0.75
vt 0.75 0.75
vt 0.75 0.875
vt 0.875 0.875
vt 0.875 0.75
vt 0.75 0.75
vn 0.09960050292505405 -0.9848077530122077 0.14224425972292465
vn -0.7668039108432281 0.015134435901337676 0.6417029773699661
vn -0.09960050292505405 0.9848077530122077 -0.14224425972292465
vn 0.7668039108432281 -0.015134435901337676 -0.6417029773699661
vn 0.6341068538760698 0.1729873939250916 0.7536470390112325
vn -0.6341068538760698 -0.1729873939250916 -0.7536470390112325
usemtl m_44a424ff-951c-47ab-a1c8-533d99d415eb
f 44/124/31 47/123/31 45/122/31 42/121/31
f 43/128/32 44/127/32 42/126/32 41/125/32
f 48/132/33 43/131/33 41/130/33 46/129/33
f 47/136/34 48/135/34 46/134/34 45/133/34
f 46/140/35 41/139/35 42/138/35 45/137/35
f 47/144/36 44/143/36 43/142/36 48/141/36
o cube
v 0.13725307632398875 0.28053869669770803 0.0625
v 0.14028313645052837 0.27507232352808675 0.0625
v 0.027925612931564148 0.21993749416691633 0.0625
v 0.03095567305810376 0.21447112099729515 0.0625
v 0.14028313645052837 0.27507232352808686 -0.0625
v 0.13725307632398875 0.28053869669770815 -0.0625
v 0.03095567305810376 0.21447112099729515 -0.0625
v 0.027925612931564148 0.21993749416691633 -0.0625
vt 0.75 0.875
vt 0.875 0.875
vt 0.875 0.75
vt 0.75 0.75
vt 0.75 0.875
vt 0.875 0.875
vt 0.875 0.75
vt 0.75 0.75
vt 0.75 0.875
vt 0.875 0.875
vt 0.875 0.75
vt 0.75 0.75
vt 0.75 0.875
vt 0.875 0.875
vt 0.875 0.75
vt 0.75 0.75
vt 0.75 0.875
vt 0.875 0.875
vt 0.875 0.75
vt 0.75 0.75
vt 0.75 0.875
vt 0.875 0.875
vt 0.875 0.75
vt 0.75 0.75
vn 0.4848096202463338 -0.8746197071393975 -1.9947812079428638e-16
vn 1.5620050742430518e-16 -1.6729224718355125e-16 1
vn -0.4848096202463338 0.8746197071393975 1.9947812079428638e-16
vn -1.5620050742430518e-16 1.6729224718355125e-16 -1
vn 0.8746197071393975 0.48480962024633373 -1.6365273222118326e-17
vn -0.8746197071393975 -0.48480962024633373 1.6365273222118326e-17
usemtl m_44a424ff-951c-47ab-a1c8-533d99d415eb
f 52/148/37 55/147/37 53/146/37 50/145/37
f 51/152/38 52/151/38 50/150/38 49/149/38
f 56/156/39 51/155/39 49/154/39 54/153/39
f 55/160/40 56/159/40 54/158/40 53/157/40
f 54/164/41 49/163/41 50/162/41 53/161/41
f 55/168/42 52/167/42 51/166/42 56/165/42
o cube
v 0.14624195432831222 0.43852002425905634 -0.065800826959513
v 0.14624195432831222 0.43852002425905634 -0.065800826959513
v 0.06405858290888167 0.37935531170292336 0.007482392472264676
v 0.06405858290888167 0.37935531170292336 0.007482392472264676
v 0.05213245999619465 0.4861992847772456 -0.13284626821387235
v 0.05213245999619465 0.4861992847772456 -0.13284626821387235
v -0.03005091142323596 0.42703457222111263 -0.05956304878209473
v -0.03005091142323596 0.42703457222111263 -0.05956304878209473
vt 0.75 0.875
vt 0.875 0.875
vt 0.875 0.75
vt 0.75 0.75
vt 0.75 0.875
vt 0.75 0.875
vt 0.75 0.75
vt 0.75 0.75
vt 0.75 0.875
vt 0.875 0.875
vt 0.875 0.75
vt 0.75 0.75
vt 0.75 0.875
vt 0.75 0.875
vt 0.75 0.75
vt 0.75 0.75
vt 0.75 0.875
vt 0.875 0.875
vt 0.875 0.875
vt 0.75 0.875
vt 0.75 0.875
vt 0.875 0.875
vt 0.875 0.875
vt 0.75 0.875
vn 0.0302486111432905 -0.7940266959578143 -0.607129827656506
vn 0.752875954656941 -0.38143408414551416 0.5363635300348751
vn -0.0302486111432905 0.7940266959578143 0.607129827656506
vn -0.752875954656941 0.38143408414551416 -0.5363635300348751
vn 0.6574669713554451 0.47331770044906357 -0.5862657554542213
vn -0.6574669713554451 -0.47331770044906357 0.5862657554542213
usemtl m_44a424ff-951c-47ab-a1c8-533d99d415eb
f 60/172/43 63/171/43 61/170/43 58/169/43
f 59/176/44 60/175/44 58/174/44 57/173/44
f 64/180/45 59/179/45 57/178/45 62/177/45
f 63/184/46 64/183/46 62/182/46 61/181/46
f 62/188/47 57/187/47 58/186/47 61/185/47
f 63/192/48 60/191/48 59/190/48 64/189/48