# Made in Blockbench 4.8.1
mtllib TreeCone.mtl

o cone
v -1.3877787807815073e-17 7.500999977677614e-7 -1.6583956430338275e-16
v -1.3877787807815073e-17 0.2749999999999999 -1.6583956430338275e-16
v -0.02512023679041741 0.04342168429473499 0.09374999999999993
v -0.06862976320958197 0.04342168429473499 0.06862976320958233
v -0.09374999999999993 0.04342168429473499 0.02512023679041793
v -0.09375000000000012 0.04342168429473499 -0.025120236790417576
v -0.0686297632095825 0.04342168429473499 -0.06862976320958215
v -0.025120236790418127 0.04342168429473499 -0.09375000000000007
v 0.02512023679041735 0.04342168429473499 -0.09375000000000026
v 0.06862976320958195 0.04342168429473499 -0.06862976320958267
v 0.0937499999999999 0.04342168429473499 -0.02512023679041825
v 0.0937500000000001 0.04342168429473499 0.025120236790417187
v 0.06862976320958253 0.04342168429473499 0.0686297632095818
v 0.025120236790418048 0.04342168429473499 0.09374999999999974
v -0.046875855118102674 0.0000020702787306564607 -0.012560347523413899
v -0.03431425561489367 -5.70078735120938e-7 -0.03431425561489357
v -0.012559889267004035 -5.70078735120938e-7 -0.046874144881897485
v 0.012559889267003639 -5.70078735120938e-7 -0.04687414488189758
v 0.03431425561489337 -5.70078735120938e-7 -0.03431425561489382
v 0.046874144881897326 -5.70078735120938e-7 -0.012559889267004179
v 0.04687414488189742 -5.70078735120938e-7 0.012559889267003483
v 0.03431425561489367 -5.70078735120938e-7 0.034314255614893235
v 0.012559889267003986 -5.70078735120938e-7 0.046874144881897166
v -0.012559889267003688 -5.70078735120938e-7 0.04687414488189726
v -0.0343142556148934 -5.70078735120938e-7 0.0343142556148935
v -0.04687414488189734 -5.70078735120938e-7 0.01255988926700385
v -0.07499702355598901 0.1736886643985972 -0.020095391896565017
v -0.07500135295039535 0.173680309359296 0.020096551954300153
v -0.05490480099609514 0.173680309359296 0.05490480099609538
v -0.02009655195429977 0.173680309359296 0.0750013529503953
v 0.020096551954300303 0.173680309359296 0.07500135295039516
v 0.05490480099609556 0.173680309359296 0.05490480099609495
v 0.07500135295039544 0.173680309359296 0.020096551954299564
v 0.0750013529503953 0.173680309359296 -0.02009655195430048
v 0.05490480099609513 0.173680309359296 -0.054904800996095716
v 0.020096551954299748 0.173680309359296 -0.07500135295039563
v -0.020096551954300344 0.173680309359296 -0.07500135295039549
v -0.05490480099609554 0.173680309359296 -0.0549048009960953
v -0.027452479885457595 0.25328721393327547 -0.02745247988545755
v -0.03749862021695314 0.2532913914650067 -0.010047725004413985
v -0.03750078492041622 0.25328721393327547 0.010048305034958727
v -0.027452479885457372 0.25328721393327547 0.027452479885457418
v -0.010048305034958634 0.25328721393327547 0.03750078492041612
v 0.010048305034958863 0.25328721393327547 0.03750078492041605
v 0.027452479885457595 0.25328721393327547 0.027452479885457206
v 0.037500784920416266 0.25328721393327547 0.010048305034958432
v 0.0375007849204162 0.25328721393327547 -0.010048305034959055
v 0.027452479885457393 0.25328721393327547 -0.027452479885457758
v 0.010048305034958585 0.25328721393327547 -0.037500784920416454
v -0.010048305034958911 0.25328721393327547 -0.037500784920416384
vt 0.8125 0.46994501526090215
vt 0.8125 0.46994501526090215
vt 0.8125 0.484972781769774
vt 0.8125 0.5
vt 0.8125 0.41788749999999997
vt 0.8125 0.45894256499584696
vt 0.8125 0.458944935004153
vt 0.8125 0.41788749999999997
vt 0.8125 0.4699450544842154
vt 0.8125 0.4699450544842154
vt 0.8125 0.4849728013810728
vt 0.8125 0.5
vt 0.8125 0.41788749999999997
vt 0.8125 0.45894256499584696
vt 0.8125 0.458944935004153
vt 0.8125 0.41788749999999997
vt 0.8125 0.46888466209407975
vt 0.8125 0.4766636384760996
vt 0.8125 0.4922213074290598
vt 0.8125 0.5
vt 0.8125 0.41788749999999997
vt 0.8125 0.45894256499584696
vt 0.8125 0.458944935004153
vt 0.8125 0.41788749999999997
vt 0.8125 0.4398900305218044
vt 0.8125 0.4699455635395481
vt 0.8125 0.4739710995902957
vt 0.8125 0.4479431488287152
vt 0.8125 0.41788749999999997
vt 0.8125 0.45894256499584696
vt 0.8125 0.458944935004153
vt 0.8125 0.41788749999999997
vt 0.8125 0.43988995207507564
vt 0.8125 0.4699455243168993
vt 0.8125 0.47397113355936016
vt 0.8125 0.44794321676560467
vt 0.8125 0.41788749999999997
vt 0.8125 0.45894256499584696
vt 0.8125 0.458944935004153
vt 0.8125 0.41788749999999997
vt 0.8125 0.4419381640120914
vt 0.8125 0.470969611603134
vt 0.8125 0.4709685524089574
vt 0.8125 0.4419381640120914
vt 0.8125 0.41788749999999997
vt 0.8125 0.45894256499584696
vt 0.8125 0.458944935004153
vt 0.8125 0.41788749999999997
vt 0.8125 0.5
vt 0.8125 0.5
vt 0.8125 0.48497223349112817
vt 0.8125 0.46994501526090215
vt 0.8125 0.41788749999999997
vt 0.8125 0.45894256499584696
vt 0.8125 0.458944935004153
vt 0.8125 0.41788749999999997
vt 0.8125 0.5
vt 0.8125 0.5
vt 0.8125 0.4849722531031425
vt 0.8125 0.4699450544842154
vt 0.8125 0.41788749999999997
vt 0.8125 0.45894256499584696
vt 0.8125 0.458944935004153
vt 0.8125 0.41788749999999997
vt 0.8125 0.5
vt 0.8125 0.49222102361798015
vt 0.8125 0.4766633546650201
vt 0.8125 0.46888466209407975
vt 0.8125 0.41788749999999997
vt 0.8125 0.45894256499584696
vt 0.8125 0.458944935004153
vt 0.8125 0.41788749999999997
vt 0.8125 0.5
vt 0.8125 0.46994446698225634
vt 0.8125 0.4659189309315087
vt 0.8125 0.4919468816930892
vt 0.8125 0.41788749999999997
vt 0.8125 0.45894256499584696
vt 0.8125 0.458944935004153
vt 0.8125 0.41788749999999997
vt 0.8125 0.5
vt 0.8125 0.46994442775817646
vt 0.8125 0.4659188185157156
vt 0.8125 0.4919467353094711
vt 0.8125 0.41788749999999997
vt 0.8125 0.45894256499584696
vt 0.8125 0.458944935004153
vt 0.8125 0.41788749999999997
vt 0.8125 0.5
vt 0.8125 0.4709685524089574
vt 0.8125 0.470969611603134
vt 0.8125 0.5
vt 0.8125 0.41788749999999997
vt 0.8125 0.45894256499584696
vt 0.8125 0.458944935004153
vt 0.8125 0.41788749999999997
vt 0.8125 0.5
vt 0.8125 0.4739710995902957
vt 0.8125 0.4699455635395481
vt 0.8125 0.5
vt 0.8125 0.47397113355936016
vt 0.8125 0.4699455243168993
vt 0.8125 0.5
vt 0.8125 0.4709685524089574
vt 0.8125 0.470969611603134
vt 0.8125 0.5
vt 0.8125 0.48497223349112817
vt 0.8125 0.5
vt 0.8125 0.5
vt 0.8125 0.4849722531031425
vt 0.8125 0.5
vt 0.8125 0.48444233104703993
vt 0.8125 0.4766633546650201
vt 0.8125 0.49222102361798015
vt 0.8125 0.4398900305218044
vt 0.8125 0.4659189309315087
vt 0.8125 0.46994446698225634
vt 0.8125 0.43988995207507564
vt 0.8125 0.4659188185157156
vt 0.8125 0.46994442775817646
vt 0.8125 0.4419381640120914
vt 0.8125 0.470969611603134
vt 0.8125 0.4709685524089574
vt 0.8125 0.46994501526090215
vt 0.8125 0.484972781769774
vt 0.8125 0.46994501526090215
vt 0.8125 0.4699450544842154
vt 0.8125 0.4849728013810728
vt 0.8125 0.4699450544842154
vt 0.8125 0.48444233104703993
vt 0.8125 0.4922213074290598
vt 0.8125 0.4766636384760996
vt 0.8125 0.45894256499584696
vt 0.8125 0.47947122313256085
vt 0.8125 0.4794724081401407
vt 0.8125 0.458944935004153
vt 0.8125 0.45894256499584696
vt 0.8125 0.47947122313256085
vt 0.8125 0.4794724081401407
vt 0.8125 0.458944935004153
vt 0.8125 0.45894256499584696
vt 0.8125 0.47947122313256085
vt 0.8125 0.4794724081401407
vt 0.8125 0.458944935004153
vt 0.8125 0.45894256499584696
vt 0.8125 0.47947122313256085
vt 0.8125 0.4794724081401407
vt 0.8125 0.458944935004153
vt 0.8125 0.45894256499584696
vt 0.8125 0.47947122313256085
vt 0.8125 0.4794724081401407
vt 0.8125 0.458944935004153
vt 0.8125 0.45894256499584696
vt 0.8125 0.47947122313256085
vt 0.8125 0.4794724081401407
vt 0.8125 0.458944935004153
vt 0.8125 0.45894256499584696
vt 0.8125 0.47947122313256085
vt 0.8125 0.4794724081401407
vt 0.8125 0.458944935004153
vt 0.8125 0.45894256499584696
vt 0.8125 0.47947122313256085
vt 0.8125 0.4794724081401407
vt 0.8125 0.458944935004153
vt 0.8125 0.45894256499584696
vt 0.8125 0.47947122313256085
vt 0.8125 0.4794724081401407
vt 0.8125 0.458944935004153
vt 0.8125 0.45894256499584696
vt 0.8125 0.47947122313256085
vt 0.8125 0.4794724081401407
vt 0.8125 0.458944935004153
vt 0.8125 0.45894256499584696
vt 0.8125 0.47947122313256085
vt 0.8125 0.4794724081401407
vt 0.8125 0.458944935004153
vt 0.8125 0.45894256499584696
vt 0.8125 0.47947122313256085
vt 0.8125 0.4794724081401407
vt 0.8125 0.458944935004153
vt 0.8125 0.5
vt 0.8125 0.4794724081401407
vt 0.8125 0.47947122313256085
vt 0.8125 0.5
vt 0.8125 0.4794724081401407
vt 0.8125 0.47947122313256085
vt 0.8125 0.5
vt 0.8125 0.4794724081401407
vt 0.8125 0.47947122313256085
vt 0.8125 0.5
vt 0.8125 0.4794724081401407
vt 0.8125 0.47947122313256085
vt 0.8125 0.5
vt 0.8125 0.4794724081401407
vt 0.8125 0.47947122313256085
vt 0.8125 0.5
vt 0.8125 0.4794724081401407
vt 0.8125 0.47947122313256085
vt 0.8125 0.5
vt 0.8125 0.4794724081401407
vt 0.8125 0.47947122313256085
vt 0.8125 0.5
vt 0.8125 0.4794724081401407
vt 0.8125 0.47947122313256085
vt 0.8125 0.5
vt 0.8125 0.4794724081401407
vt 0.8125 0.47947122313256085
vt 0.8125 0.5
vt 0.8125 0.4794724081401407
vt 0.8125 0.47947122313256085
vt 0.8125 0.5
vt 0.8125 0.4794724081401407
vt 0.8125 0.47947122313256085
vt 0.8125 0.5
vt 0.8125 0.4794724081401407
vt 0.8125 0.47947122313256085
vn -0.3397827282232313 -0.7336148788054301 0.5885209488170084
vn -0.49489985905399897 0.14246584865614367 0.8571917005402099
vn -0.5885209488170059 -0.7336148788054301 0.3397827282232356
vn -0.857191700540206 0.14246584865614356 0.49489985905400596
vn -0.6795521118984232 -0.7336272393136415 -0.00003084539129566821
vn -0.9898001339519613 0.14246293868589252 -0.00007700428033805118
vn -0.5885402215896293 -0.7336107584098249 -0.3397582415727275
vn -0.857226932514445 0.14249203399845356 -0.494831290864734
vn -0.339782728223235 -0.7336148788054303 -0.5885209488170061
vn -0.4948998590540059 0.14246584865614373 -0.857191700540206
vn -2.527471875230682e-15 -0.7336148788054303 -0.6795654564464662
vn -3.6813097633168366e-15 0.14246584865614367 -0.9897997181080045
vn 0.33978272822323097 -0.7336148788054302 -0.5885209488170086
vn 0.49489985905399886 0.14246584865614356 -0.85719170054021
vn 0.5885209488170059 -0.73361487880543 -0.3397827282232362
vn 0.8571917005402064 0.14246584865614342 -0.49489985905400496
vn 0.6795654564464664 -0.7336148788054302 -2.5274718752306827e-15
vn 0.9897997181080043 0.14246584865614384 -3.681309763316836e-15
vn 0.5885209488170089 -0.7336148788054301 0.3397827282232305
vn 0.8571917005402103 0.1424658486561438 0.4948998590539981
vn 0.33978272822323496 -0.7336148788054301 0.5885209488170065
vn 0.49489985905400546 0.14246584865614376 0.857191700540206
vn 2.5274718752306827e-15 -0.7336148788054302 0.6795654564464664
vn 3.6813097633168366e-15 0.14246584865614367 0.9897997181080045
vn -0.00005255394524786567 -0.9999999944760721 0.00009102713086530753
vn 0.00001408216337270138 -0.9999999996033855 0.000024391022442004087
vn 1.0475009148647032e-19 -0.9999999996033855 0.00002816432674540257
vn -0.000014082163372701206 -0.9999999996033855 0.000024391022442004192
vn -0.00002439102244200406 -0.9999999996033855 0.000014082163372701413
vn -0.00002816432674540256 -0.9999999996033855 1.0475009148647027e-19
vn -0.000024391022442004185 -0.9999999996033855 -0.00001408216337270117
vn -0.000014082163372701364 -0.9999999996033855 -0.000024391022442004087
vn -1.0475009148647027e-19 -0.9999999996033855 -0.00002816432674540256
vn 0.000014082163372701201 -0.9999999996033855 -0.000024391022442004178
vn 0.00002439102244200407 -0.9999999996033855 -0.000014082163372701379
vn 5.137789048497162e-10 -0.9999999944760721 -0.0001051087803868997
vn -0.9046505228766436 0.4261542342632965 -0.000008858828503426247
vn -0.7834499610574966 0.4261551493982815 0.4523250459131523
vn -0.452325045913147 0.426155149398281 0.7834499610575002
vn 3.36461725993564e-15 0.4261551493982813 0.9046500918262977
vn 0.45232504591315176 0.42615514939828114 0.7834499610574972
vn 0.783449961057501 0.42615514939828114 0.45232504591314515
vn 0.9046500918262976 0.42615514939828103 -3.3646172599356395e-15
vn 0.7834499610574979 0.4261551493982809 -0.4523250459131509
vn 0.45232504591314554 0.4261551493982813 -0.7834499610575008
vn -3.36461725993564e-15 0.42615514939828125 -0.9046500918262977
vn -0.4523250459131523 0.4261551493982814 -0.783449961057497
vn -0.7834547637723038 0.42615423426329674 -0.45231758946778444
vn -0.43385230574011585 0.8654228448296558 -0.25063015870188193
vn -0.5010421976123346 0.8654228448296558 0.00012593152030085958
vn -0.43393716078182315 0.8654082200461695 0.2505337365887702
vn -0.2505337365887671 0.8654082200461694 0.43393716078182487
vn 1.8635937628017027e-15 0.8654082200461695 0.5010674731775361
vn 0.2505337365887697 0.8654082200461694 0.4339371607818232
vn 0.4339371607818254 0.8654082200461695 0.2505337365887662
vn 0.5010674731775361 0.8654082200461694 -1.8635937628017027e-15
vn 0.43393716078182343 0.8654082200461694 -0.25053373658876926
vn 0.2505337365887661 0.8654082200461695 -0.4339371607818253
vn -1.8635937628017027e-15 0.8654082200461695 -0.5010674731775361
vn -0.2505337365887701 0.8654082200461695 -0.43393716078182315
usemtl m_94e1734c-6c91-8aac-9210-58f9e87c9eaf
f 4/1/1 25/2/1 24/3/1 3/4/1
f 3/5/2 30/6/2 29/7/2 4/8/2
f 5/9/3 26/10/3 25/11/3 4/12/3
f 4/13/4 29/14/4 28/15/4 5/16/4
f 6/17/5 15/18/5 26/19/5 5/20/5
f 5/21/6 28/22/6 27/23/6 6/24/6
f 7/25/7 16/26/7 15/27/7 6/28/7
f 6/29/8 27/30/8 38/31/8 7/32/8
f 8/33/9 17/34/9 16/35/9 7/36/9
f 7/37/10 38/38/10 37/39/10 8/40/10
f 9/41/11 18/42/11 17/43/11 8/44/11
f 8/45/12 37/46/12 36/47/12 9/48/12
f 10/49/13 19/50/13 18/51/13 9/52/13
f 9/53/14 36/54/14 35/55/14 10/56/14
f 11/57/15 20/58/15 19/59/15 10/60/15
f 10/61/16 35/62/16 34/63/16 11/64/16
f 12/65/17 21/66/17 20/67/17 11/68/17
f 11/69/18 34/70/18 33/71/18 12/72/18
f 13/73/19 22/74/19 21/75/19 12/76/19
f 12/77/20 33/78/20 32/79/20 13/80/20
f 14/81/21 23/82/21 22/83/21 13/84/21
f 13/85/22 32/86/22 31/87/22 14/88/22
f 3/89/23 24/90/23 23/91/23 14/92/23
f 14/93/24 31/94/24 30/95/24 3/96/24
f 1/97/25 15/98/25 16/99/25
f 1/100/26 16/101/26 17/102/26
f 1/103/27 17/104/27 18/105/27
f 1/106/28 18/107/28 19/108/28
f 1/109/29 19/110/29 20/111/29
f 1/112/30 20/113/30 21/114/30
f 1/115/31 21/116/31 22/117/31
f 1/118/32 22/119/32 23/120/32
f 1/121/33 23/122/33 24/123/33
f 1/124/34 24/125/34 25/126/34
f 1/127/35 25/128/35 26/129/35
f 1/130/36 26/131/36 15/132/36
f 28/133/37 41/134/37 40/135/37 27/136/37
f 29/137/38 42/138/38 41/139/38 28/140/38
f 30/141/39 43/142/39 42/143/39 29/144/39
f 31/145/40 44/146/40 43/147/40 30/148/40
f 32/149/41 45/150/41 44/151/41 31/152/41
f 33/153/42 46/154/42 45/155/42 32/156/42
f 34/157/43 47/158/43 46/159/43 33/160/43
f 35/161/44 48/162/44 47/163/44 34/164/44
f 36/165/45 49/166/45 48/167/45 35/168/45
f 37/169/46 50/170/46 49/171/46 36/172/46
f 38/173/47 39/174/47 50/175/47 37/176/47
f 27/177/48 40/178/48 39/179/48 38/180/48
f 2/181/49 39/182/49 40/183/49
f 2/184/50 40/185/50 41/186/50
f 2/187/51 41/188/51 42/189/51
f 2/190/52 42/191/52 43/192/52
f 2/193/53 43/194/53 44/195/53
f 2/196/54 44/197/54 45/198/54
f 2/199/55 45/200/55 46/201/55
f 2/202/56 46/203/56 47/204/56
f 2/205/57 47/206/57 48/207/57
f 2/208/58 48/209/58 49/210/58
f 2/211/59 49/212/59 50/213/59
f 2/214/60 50/215/60 39/216/60
o cube
v 0.047222222222222145 0.03332270837627557 -0.04252810058734023
v 0.10624999999999973 0.07441441787724243 -0.13030810633903114
v 0.047222222222222145 0.008521667781693179 -0.051618017809224925
v 0.10624999999999973 0.04961337728266005 -0.13939802356091585
v -4.849515850619617e-16 0.0846882944273871 -0.15225275987266942
v -4.849515850619617e-16 0.059887253832804715 -0.16134267709455413
v -2.0970879354030776e-16 0.008521667781693179 -0.051618017809224925
v -2.0970879354030776e-16 0.03332270837627557 -0.04252810058734023
v -0.047222222222222145 0.03332270837627557 -0.04252810058734023
v -0.10624999999999973 0.07441441787724243 -0.13030810633903114
v -0.047222222222222145 0.008521667781693179 -0.051618017809224925
v -0.10624999999999973 0.04961337728266005 -0.13939802356091585
vt 1 0.5
vt 1 0.625
vt 0.875 0.625
vt 0.875 0.5
vt 1 0.625
vt 0.9374999999999998 0.625
vt 0.9374999999999998 0.5
vt 1 0.5
vt 1 0.625
vt 0.9374999999999998 0.625
vt 0.9374999999999998 0.5
vt 1 0.5
vt 1 0.625
vt 0.9374999999999998 0.625
vt 0.9374999999999998 0.5
vt 1 0.5
vt 0.875 0.5
vt 0.9375000000000002 0.5
vt 0.9375000000000002 0.625
vt 0.875 0.625
vt 0.875 0.625
vt 1 0.625
vt 1 0.5
vt 0.875 0.5
vt 0.9374999999999998 0.5
vt 0.9374999999999998 0.625
vt 1 0.625
vt 1 0.5
vt 0.9374999999999998 0.5
vt 0.9374999999999998 0.625
vt 1 0.625
vt 1 0.5
vt 0.9374999999999998 0.5
vt 0.9374999999999998 0.625
vt 1 0.625
vt 1 0.5
vt 0.9375000000000002 0.625
vt 0.9375000000000002 0.5
vt 0.875 0.5
vt 0.875 0.625
vn 0.853206242720949 -0.1794880626896658 0.48971741109941314
vn 0.000007583214518914945 0.9056740399351227 0.4239746847750332
vn 0 -0.9056740399611631 -0.42397468478722355
vn 0 -0.3441279120232529 0.9389227764659436
vn 0.22155246830542863 0.33557580076118537 -0.9155890921866977
vn -0.853206242720949 -0.17948806268966574 0.4897174110994131
vn -0.000007583214518889738 0.9056740399351226 0.42397468477503314
vn 0 -0.9056740399611631 -0.4239746847872236
vn 0 -0.3441279120232529 0.9389227764659436
vn -0.22155246830543063 0.3355758007611853 -0.9155890921866974
usemtl m_94e1734c-6c91-8aac-9210-58f9e87c9eaf
f 54/217/61 52/218/61 51/219/61 53/220/61
f 52/221/62 55/222/62 58/223/62 51/224/62
f 53/225/63 57/226/63 56/227/63 54/228/63
f 51/229/64 58/230/64 57/231/64 53/232/64
f 54/233/65 56/234/65 55/235/65 52/236/65
f 59/237/66 60/238/66 62/239/66 61/240/66
f 58/241/67 55/242/67 60/243/67 59/244/67
f 56/245/68 57/246/68 61/247/68 62/248/68
f 57/249/69 58/250/69 59/251/69 61/252/69
f 55/253/70 56/254/70 62/255/70 60/256/70
o cube
v -0.04252810058734022 0.03332270837627557 -0.04722222222222215
v -0.13030810633903112 0.07441441787724243 -0.10624999999999976
v -0.05161801780922491 0.008521667781693179 -0.04722222222222216
v -0.13939802356091582 0.04961337728266005 -0.10624999999999976
v -0.15225275987266942 0.0846882944273871 4.511446811472891e-16
v -0.16134267709455413 0.059887253832804715 4.491263140689545e-16
v -0.051618017809224925 0.008521667781693179 1.9824729116884518e-16
v -0.04252810058734023 0.03332270837627557 2.002656582471798e-16
v -0.042528100587340245 0.03332270837627557 0.04722222222222214
v -0.13030810633903117 0.07441441787724243 0.1062499999999997
v -0.05161801780922494 0.008521667781693179 0.04722222222222213
v -0.13939802356091588 0.04961337728266005 0.1062499999999997
vt 1 0.5
vt 1 0.625
vt 0.875 0.625
vt 0.875 0.5
vt 1 0.625
vt 0.9374999999999998 0.625
vt 0.9374999999999998 0.5
vt 1 0.5
vt 1 0.625
vt 0.9374999999999998 0.625
vt 0.9374999999999998 0.5
vt 1 0.5
vt 1 0.625
vt 0.9374999999999998 0.625
vt 0.9374999999999998 0.5
vt 1 0.5
vt 0.875 0.5
vt 0.9375000000000002 0.5
vt 0.9375000000000002 0.625
vt 0.875 0.625
vt 0.875 0.625
vt 1 0.625
vt 1 0.5
vt 0.875 0.5
vt 0.9374999999999998 0.5
vt 0.9374999999999998 0.625
vt 1 0.625
vt 1 0.5
vt 0.9374999999999998 0.5
vt 0.9374999999999998 0.625
vt 1 0.625
vt 1 0.5
vt 0.9374999999999998 0.5
vt 0.9374999999999998 0.625
vt 1 0.625
vt 1 0.5
vt 0.9375000000000002 0.625
vt 0.9375000000000002 0.5
vt 0.875 0.5
vt 0.875 0.625
vn 0.4897174110994133 -0.1794880626896658 -0.8532062427209489
vn 0.4239746847750332 0.9056740399351227 -0.000007583214518820804
vn -0.42397468478722355 -0.9056740399611631 -9.414129138179374e-17
vn 0.9389227764659436 -0.3441279120232529 2.0848273695549392e-16
vn -0.9155890921866977 0.33557580076118537 -0.22155246830542882
vn 0.489717411099413 -0.17948806268966577 0.8532062427209494
vn 0.42397468477503314 0.9056740399351226 0.000007583214518983879
vn -0.4239746847872236 -0.9056740399611631 -9.414129138179375e-17
vn 0.9389227764659436 -0.3441279120232529 2.0848273695549392e-16
vn -0.9155890921866974 0.3355758007611853 0.22155246830543043
usemtl m_94e1734c-6c91-8aac-9210-58f9e87c9eaf
f 66/257/71 64/258/71 63/259/71 65/260/71
f 64/261/72 67/262/72 70/263/72 63/264/72
f 65/265/73 69/266/73 68/267/73 66/268/73
f 63/269/74 70/270/74 69/271/74 65/272/74
f 66/273/75 68/274/75 67/275/75 64/276/75
f 71/277/76 72/278/76 74/279/76 73/280/76
f 70/281/77 67/282/77 72/283/77 71/284/77
f 68/285/78 69/286/78 73/287/78 74/288/78
f 69/289/79 70/290/79 71/291/79 73/292/79
f 67/293/80 68/294/80 74/295/80 72/296/80
o cube
v 0.042528100587340245 0.03332270837627557 0.04722222222222214
v 0.13030810633903117 0.07441441787724243 0.1062499999999997
v 0.05161801780922494 0.008521667781693179 0.04722222222222213
v 0.13939802356091588 0.04961337728266005 0.1062499999999997
v 0.15225275987266942 0.0846882944273871 -5.187584889766343e-16
v 0.16134267709455413 0.059887253832804715 -5.207768560549689e-16
v 0.051618017809224925 0.008521667781693179 -2.2117029591177034e-16
v 0.04252810058734023 0.03332270837627557 -2.1915192883343572e-16
v 0.04252810058734022 0.03332270837627557 -0.04722222222222215
v 0.13030810633903112 0.07441441787724243 -0.10624999999999976
v 0.05161801780922491 0.008521667781693179 -0.04722222222222216
v 0.13939802356091582 0.04961337728266005 -0.10624999999999976
vt 1 0.5
vt 1 0.625
vt 0.875 0.625
vt 0.875 0.5
vt 1 0.625
vt 0.9374999999999998 0.625
vt 0.9374999999999998 0.5
vt 1 0.5
vt 1 0.625
vt 0.9374999999999998 0.625
vt 0.9374999999999998 0.5
vt 1 0.5
vt 1 0.625
vt 0.9374999999999998 0.625
vt 0.9374999999999998 0.5
vt 1 0.5
vt 0.875 0.5
vt 0.9375000000000002 0.5
vt 0.9375000000000002 0.625
vt 0.875 0.625
vt 0.875 0.625
vt 1 0.625
vt 1 0.5
vt 0.875 0.5
vt 0.9374999999999998 0.5
vt 0.9374999999999998 0.625
vt 1 0.625
vt 1 0.5
vt 0.9374999999999998 0.5
vt 0.9374999999999998 0.625
vt 1 0.625
vt 1 0.5
vt 0.9374999999999998 0.5
vt 0.9374999999999998 0.625
vt 1 0.625
vt 1 0.5
vt 0.9375000000000002 0.625
vt 0.9375000000000002 0.5
vt 0.875 0.5
vt 0.875 0.625
vn -0.48971741109941297 -0.1794880626896658 0.8532062427209491
vn -0.4239746847750332 0.9056740399351227 0.000007583214519009086
vn 0.42397468478722355 -0.9056740399611631 -9.414129138179374e-17
vn -0.9389227764659436 -0.3441279120232529 2.0848273695549392e-16
vn 0.9155890921866977 0.33557580076118537 0.22155246830542843
vn -0.48971741109941336 -0.17948806268966577 -0.8532062427209491
vn -0.42397468477503314 0.9056740399351226 -0.000007583214518795597
vn 0.4239746847872236 -0.9056740399611631 -9.414129138179375e-17
vn -0.9389227764659436 -0.3441279120232529 2.0848273695549392e-16
vn 0.9155890921866974 0.3355758007611853 -0.22155246830543082
usemtl m_94e1734c-6c91-8aac-9210-58f9e87c9eaf
f 78/297/81 76/298/81 75/299/81 77/300/81
f 76/301/82 79/302/82 82/303/82 75/304/82
f 77/305/83 81/306/83 80/307/83 78/308/83
f 75/309/84 82/310/84 81/311/84 77/312/84
f 78/313/85 80/314/85 79/315/85 76/316/85
f 83/317/86 84/318/86 86/319/86 85/320/86
f 82/321/87 79/322/87 84/323/87 83/324/87
f 80/325/88 81/326/88 85/327/88 86/328/88
f 81/329/89 82/330/89 83/331/89 85/332/89
f 79/333/90 80/334/90 86/335/90 84/336/90
o cube
v -0.04722222222222214 0.03332270837627557 0.04252810058734024
v -0.10624999999999972 0.07441441787724243 0.13030810633903114
v -0.04722222222222214 0.008521667781693179 0.05161801780922493
v -0.10624999999999972 0.04961337728266005 0.13939802356091585
v 5.035971705659032e-16 0.0846882944273871 0.15225275987266942
v 5.047103643689328e-16 0.059887253832804715 0.16134267709455413
v 2.160301775691476e-16 0.008521667781693179 0.051618017809224925
v 2.1491698376611806e-16 0.03332270837627557 0.04252810058734023
v 0.04722222222222215 0.03332270837627557 0.042528100587340224
v 0.10624999999999975 0.07441441787724243 0.13030810633903114
v 0.04722222222222215 0.008521667781693179 0.05161801780922492
v 0.10624999999999975 0.04961337728266005 0.13939802356091585
vt 1 0.5
vt 1 0.625
vt 0.875 0.625
vt 0.875 0.5
vt 1 0.625
vt 0.9374999999999998 0.625
vt 0.9374999999999998 0.5
vt 1 0.5
vt 1 0.625
vt 0.9374999999999998 0.625
vt 0.9374999999999998 0.5
vt 1 0.5
vt 1 0.625
vt 0.9374999999999998 0.625
vt 0.9374999999999998 0.5
vt 1 0.5
vt 0.875 0.5
vt 0.9375000000000002 0.5
vt 0.9375000000000002 0.625
vt 0.875 0.625
vt 0.875 0.625
vt 1 0.625
vt 1 0.5
vt 0.875 0.5
vt 0.9374999999999998 0.5
vt 0.9374999999999998 0.625
vt 1 0.625
vt 1 0.5
vt 0.9374999999999998 0.5
vt 0.9374999999999998 0.625
vt 1 0.625
vt 1 0.5
vt 0.9374999999999998 0.5
vt 0.9374999999999998 0.625
vt 1 0.625
vt 1 0.5
vt 0.9375000000000002 0.625
vt 0.9375000000000002 0.5
vt 0.875 0.5
vt 0.875 0.625
vn -0.8532062427209491 -0.1794880626896658 -0.489717411099413
vn -0.000007583214518966867 0.9056740399351227 -0.4239746847750332
vn 5.1921924064418134e-17 -0.9056740399611631 0.42397468478722355
vn -1.1498487728455637e-16 -0.3441279120232529 -0.9389227764659436
vn -0.22155246830542852 0.33557580076118537 0.9155890921866977
vn 0.8532062427209491 -0.17948806268966577 -0.4897174110994133
vn 0.0000075832145188378156 0.9056740399351226 -0.42397468477503314
vn 5.192192406441814e-17 -0.9056740399611631 0.4239746847872236
vn -1.1498487728455637e-16 -0.3441279120232529 -0.9389227764659436
vn 0.22155246830543074 0.3355758007611853 0.9155890921866974
usemtl m_94e1734c-6c91-8aac-9210-58f9e87c9eaf
f 90/337/91 88/338/91 87/339/91 89/340/91
f 88/341/92 91/342/92 94/343/92 87/344/92
f 89/345/93 93/346/93 92/347/93 90/348/93
f 87/349/94 94/350/94 93/351/94 89/352/94
f 90/353/95 92/354/95 91/355/95 88/356/95
f 95/357/96 96/358/96 98/359/96 97/360/96
f 94/361/97 91/362/97 96/363/97 95/364/97
f 92/365/98 93/366/98 97/367/98 98/368/98
f 93/369/99 94/370/99 95/371/99 97/372/99
f 91/373/100 92/374/100 98/375/100 96/376/100
o cube
v 0.06346306187232323 0.13957270837627558 0.0033192452397394906
v 0.1414372063158355 0.17447923637449603 -0.018980406684547757
v 0.06989060398034228 0.11477166778169319 -0.003108296868279563
v 0.14786474842385458 0.14967819577991365 -0.025407948792566817
v 0.09950199366885333 0.1847531129246407 -0.09195004598037987
v 0.10592953577687239 0.15995207233005831 -0.09837758808839893
v 0.03649945042431078 0.11477166778169319 -0.03649945042431107
v 0.030071908316291723 0.13957270837627558 -0.030071908316292018
v -0.00331924523973948 0.13957270837627558 -0.06346306187232323
v 0.02653235437302192 0.17447923637449603 -0.13388525862736136
v 0.0031082968682795697 0.11477166778169319 -0.06989060398034228
v 0.03295989648104098 0.14967819577991365 -0.14031280073538044
vt 1 0.5
vt 1 0.625
vt 0.875 0.625
vt 0.875 0.5
vt 1 0.625
vt 0.9374999999999998 0.625
vt 0.9374999999999998 0.5
vt 1 0.5
vt 1 0.625
vt 0.9374999999999998 0.625
vt 0.9374999999999998 0.5
vt 1 0.5
vt 1 0.625
vt 0.9374999999999998 0.625
vt 0.9374999999999998 0.5
vt 1 0.5
vt 0.875 0.5
vt 0.9375000000000002 0.5
vt 0.9375000000000002 0.625
vt 0.875 0.625
vt 0.875 0.625
vt 1 0.625
vt 1 0.5
vt 0.875 0.5
vt 0.9374999999999998 0.5
vt 0.9374999999999998 0.625
vt 1 0.625
vt 1 0.5
vt 0.9374999999999998 0.5
vt 0.9374999999999998 0.625
vt 1 0.625
vt 1 0.5
vt 0.9374999999999998 0.5
vt 0.9374999999999998 0.625
vt 1 0.625
vt 1 0.5
vt 0.9375000000000002 0.625
vt 0.9375000000000002 0.5
vt 0.875 0.5
vt 0.875 0.625
vn 0.3348489667034598 -0.15413302707651522 0.9295801092223605
vn -0.31236272141405197 0.8992854814783767 0.30612930776554476
vn 0.309393962055186 -0.8991945020336748 -0.30939396205518593
vn -0.6639186622495697 -0.34412791202325294 0.6639186622495696
vn 0.83780869226411 0.32987634681314254 -0.43503814887882786
vn -0.8919000516464153 -0.11800662806496681 -0.43656469578501
vn -0.30632589507163466 0.8990823249871676 0.31275456656015604
vn 0.309393962055186 -0.8991945020336748 -0.30939396205518593
vn -0.6639186622495697 -0.34412791202325294 0.6639186622495696
vn 0.4350381488788251 0.3298763468131421 -0.8378086922641117
usemtl m_94e1734c-6c91-8aac-9210-58f9e87c9eaf
f 102/377/101 100/378/101 99/379/101 101/380/101
f 100/381/102 103/382/102 106/383/102 99/384/102
f 101/385/103 105/386/103 104/387/103 102/388/103
f 99/389/104 106/390/104 105/391/104 101/392/104
f 102/393/105 104/394/105 103/395/105 100/396/105
f 107/397/106 108/398/106 110/399/106 109/400/106
f 106/401/107 103/402/107 108/403/107 107/404/107
f 104/405/108 105/406/108 109/407/108 110/408/108
f 105/409/109 106/410/109 107/411/109 109/412/109
f 103/413/110 104/414/110 110/415/110 108/416/110
o cube
v 0.003319245239739501 0.13957270837627558 -0.06346306187232323
v -0.01898040668454773 0.17447923637449603 -0.1414372063158355
v -0.003108296868279549 0.11477166778169319 -0.06989060398034228
v -0.02540794879256679 0.14967819577991365 -0.14786474842385458
v -0.09195004598037985 0.1847531129246407 -0.09950199366885334
v -0.09837758808839892 0.15995207233005831 -0.10592953577687239
v -0.03649945042431106 0.11477166778169319 -0.036499450424310784
v -0.030071908316292015 0.13957270837627558 -0.03007190831629173
v -0.06346306187232323 0.13957270837627558 0.0033192452397394663
v -0.13388525862736136 0.17447923637449603 -0.02653235437302194
v -0.06989060398034228 0.11477166778169319 -0.0031082968682795836
v -0.14031280073538044 0.14967819577991365 -0.032959896481041
vt 1 0.5
vt 1 0.625
vt 0.875 0.625
vt 0.875 0.5
vt 1 0.625
vt 0.9374999999999998 0.625
vt 0.9374999999999998 0.5
vt 1 0.5
vt 1 0.625
vt 0.9374999999999998 0.625
vt 0.9374999999999998 0.5
vt 1 0.5
vt 1 0.625
vt 0.9374999999999998 0.625
vt 0.9374999999999998 0.5
vt 1 0.5
vt 0.875 0.5
vt 0.9375000000000002 0.5
vt 0.9375000000000002 0.625
vt 0.875 0.625
vt 0.875 0.625
vt 1 0.625
vt 1 0.5
vt 0.875 0.5
vt 0.9374999999999998 0.5
vt 0.9374999999999998 0.625
vt 1 0.625
vt 1 0.5
vt 0.9374999999999998 0.5
vt 0.9374999999999998 0.625
vt 1 0.625
vt 1 0.5
vt 0.9374999999999998 0.5
vt 0.9374999999999998 0.625
vt 1 0.625
vt 1 0.5
vt 0.9375000000000002 0.625
vt 0.9375000000000002 0.5
vt 0.875 0.5
vt 0.875 0.625
vn 0.9295801092223606 -0.15413302707651522 -0.33484896670345965
vn 0.3061293077655447 0.8992854814783767 0.312362721414052
vn -0.3093939620551859 -0.8991945020336748 -0.30939396205518604
vn 0.6639186622495695 -0.3441279120232529 0.6639186622495697
vn -0.43503814887882775 0.32987634681314254 -0.8378086922641101
vn -0.4365646957850102 -0.11800662806496684 0.8919000516464154
vn 0.312754566560156 0.8990823249871676 0.3063258950716347
vn -0.3093939620551859 -0.8991945020336748 -0.30939396205518604
vn 0.6639186622495695 -0.3441279120232529 0.6639186622495697
vn -0.8378086922641116 0.3298763468131421 -0.4350381488788252
usemtl m_94e1734c-6c91-8aac-9210-58f9e87c9eaf
f 114/417/111 112/418/111 111/419/111 113/420/111
f 112/421/112 115/422/112 118/423/112 111/424/112
f 113/425/113 117/426/113 116/427/113 114/428/113
f 111/429/114 118/430/114 117/431/114 113/432/114
f 114/433/115 116/434/115 115/435/115 112/436/115
f 119/437/116 120/438/116 122/439/116 121/440/116
f 118/441/117 115/442/117 120/443/117 119/444/117
f 116/445/118 117/446/118 121/447/118 122/448/118
f 117/449/119 118/450/119 119/451/119 121/452/119
f 115/453/120 116/454/120 122/455/120 120/456/120
o cube
v -0.00331924523973948 0.13957270837627558 0.06346306187232323
v 0.018980406684547778 0.17447923637449603 0.1414372063158355
v 0.0031082968682795697 0.11477166778169319 0.06989060398034228
v 0.025407948792566838 0.14967819577991365 0.14786474842385455
v 0.09195004598037988 0.1847531129246407 0.09950199366885332
v 0.09837758808839894 0.15995207233005831 0.10592953577687238
v 0.03649945042431107 0.11477166778169319 0.03649945042431078
v 0.03007190831629202 0.13957270837627558 0.03007190831629172
v 0.06346306187232323 0.13957270837627558 -0.0033192452397394906
v 0.13388525862736136 0.17447923637449603 0.0265323543730219
v 0.06989060398034228 0.11477166778169319 0.003108296868279563
v 0.14031280073538044 0.14967819577991365 0.03295989648104096
vt 1 0.5
vt 1 0.625
vt 0.875 0.625
vt 0.875 0.5
vt 1 0.625
vt 0.9374999999999998 0.625
vt 0.9374999999999998 0.5
vt 1 0.5
vt 1 0.625
vt 0.9374999999999998 0.625
vt 0.9374999999999998 0.5
vt 1 0.5
vt 1 0.625
vt 0.9374999999999998 0.625
vt 0.9374999999999998 0.5
vt 1 0.5
vt 0.875 0.5
vt 0.9375000000000002 0.5
vt 0.9375000000000002 0.625
vt 0.875 0.625
vt 0.875 0.625
vt 1 0.625
vt 1 0.5
vt 0.875 0.5
vt 0.9374999999999998 0.5
vt 0.9374999999999998 0.625
vt 1 0.625
vt 1 0.5
vt 0.9374999999999998 0.5
vt 0.9374999999999998 0.625
vt 1 0.625
vt 1 0.5
vt 0.9374999999999998 0.5
vt 0.9374999999999998 0.625
vt 1 0.625
vt 1 0.5
vt 0.9375000000000002 0.625
vt 0.9375000000000002 0.5
vt 0.875 0.5
vt 0.875 0.625
vn -0.9295801092223603 -0.1541330270765152 0.3348489667034598
vn -0.3061293077655448 0.8992854814783767 -0.3123627214140519
vn 0.309393962055186 -0.8991945020336748 0.30939396205518593
vn -0.6639186622495697 -0.34412791202325294 -0.6639186622495696
vn 0.4350381488788281 0.32987634681314254 0.83780869226411
vn 0.43656469578500995 -0.11800662806496684 -0.8919000516464155
vn -0.31275456656015616 0.8990823249871678 -0.30632589507163466
vn 0.309393962055186 -0.8991945020336748 0.30939396205518593
vn -0.6639186622495697 -0.34412791202325294 -0.6639186622495696
vn 0.8378086922641117 0.3298763468131421 0.4350381488788249
usemtl m_94e1734c-6c91-8aac-9210-58f9e87c9eaf
f 126/457/121 124/458/121 123/459/121 125/460/121
f 124/461/122 127/462/122 130/463/122 123/464/122
f 125/465/123 129/466/123 128/467/123 126/468/123
f 123/469/124 130/470/124 129/471/124 125/472/124
f 126/473/125 128/474/125 127/475/125 124/476/125
f 131/477/126 132/478/126 134/479/126 133/480/126
f 130/481/127 127/482/127 132/483/127 131/484/127
f 128/485/128 129/486/128 133/487/128 134/488/128
f 129/489/129 130/490/129 131/491/129 133/492/129
f 127/493/130 128/494/130 134/495/130 132/496/130
o cube
v -0.06346306187232323 0.13957270837627558 -0.00331924523973948
v -0.1414372063158355 0.17447923637449603 0.018980406684547778
v -0.06989060398034228 0.11477166778169319 0.0031082968682795697
v -0.14786474842385455 0.14967819577991365 0.025407948792566838
v -0.09950199366885332 0.1847531129246407 0.09195004598037988
v -0.10592953577687238 0.15995207233005831 0.09837758808839894
v -0.03649945042431078 0.11477166778169319 0.03649945042431107
v -0.03007190831629172 0.13957270837627558 0.03007190831629202
v 0.0033192452397394906 0.13957270837627558 0.06346306187232323
v -0.0265323543730219 0.17447923637449603 0.13388525862736136
v -0.003108296868279563 0.11477166778169319 0.06989060398034228
v -0.03295989648104096 0.14967819577991365 0.14031280073538044
vt 1 0.5
vt 1 0.625
vt 0.875 0.625
vt 0.875 0.5
vt 1 0.625
vt 0.9374999999999998 0.625
vt 0.9374999999999998 0.5
vt 1 0.5
vt 1 0.625
vt 0.9374999999999998 0.625
vt 0.9374999999999998 0.5
vt 1 0.5
vt 1 0.625
vt 0.9374999999999998 0.625
vt 0.9374999999999998 0.5
vt 1 0.5
vt 0.875 0.5
vt 0.9375000000000002 0.5
vt 0.9375000000000002 0.625
vt 0.875 0.625
vt 0.875 0.625
vt 1 0.625
vt 1 0.5
vt 0.875 0.5
vt 0.9374999999999998 0.5
vt 0.9374999999999998 0.625
vt 1 0.625
vt 1 0.5
vt 0.9374999999999998 0.5
vt 0.9374999999999998 0.625
vt 1 0.625
vt 1 0.5
vt 0.9374999999999998 0.5
vt 0.9374999999999998 0.625
vt 1 0.625
vt 1 0.5
vt 0.9375000000000002 0.625
vt 0.9375000000000002 0.5
vt 0.875 0.5
vt 0.875 0.625
vn -0.3348489667034598 -0.1541330270765152 -0.9295801092223603
vn 0.3123627214140519 0.8992854814783767 -0.3061293077655448
vn -0.30939396205518593 -0.8991945020336748 0.309393962055186
vn 0.6639186622495696 -0.34412791202325294 -0.6639186622495697
vn -0.83780869226411 0.32987634681314254 0.4350381488788281
vn 0.8919000516464155 -0.11800662806496684 0.43656469578500995
vn 0.30632589507163466 0.8990823249871678 -0.31275456656015616
vn -0.30939396205518593 -0.8991945020336748 0.309393962055186
vn 0.6639186622495696 -0.34412791202325294 -0.6639186622495697
vn -0.4350381488788249 0.3298763468131421 0.8378086922641117
usemtl m_94e1734c-6c91-8aac-9210-58f9e87c9eaf
f 138/497/131 136/498/131 135/499/131 137/500/131
f 136/501/132 139/502/132 142/503/132 135/504/132
f 137/505/133 141/506/133 140/507/133 138/508/133
f 135/509/134 142/510/134 141/511/134 137/512/134
f 138/513/135 140/514/135 139/515/135 136/516/135
f 143/517/136 144/518/136 146/519/136 145/520/136
f 142/521/137 139/522/137 144/523/137 143/524/137
f 140/525/138 141/526/138 145/527/138 146/528/138
f 141/529/139 142/530/139 143/531/139 145/532/139
f 139/533/140 140/534/140 146/535/140 144/536/140
o cube
v 0.040972222222222146 0.23312031002583963 -0.02492329852860379
v 0.06784003342168587 0.255729236374496 -0.08843238197433029
v 0.040972222222222146 0.2083192694312572 -0.03401321575048848
v 0.06784003342168587 0.23092819577991364 -0.097522299196215
v 0.005340033421685754 0.2660031129246407 -0.11037703550796857
v 0.005340033421685754 0.2412020723300583 -0.11946695272985325
v -2.0970879354030776e-16 0.2147716677816932 -0.051618017809224925
v -2.0970879354030776e-16 0.2395727083762756 -0.04252810058734023
v -0.040972222222222146 0.23312031002583963 -0.02492329852860379
v -0.057159966578313605 0.255729236374496 -0.08843238197433029
v -0.040972222222222146 0.2083192694312572 -0.03401321575048848
v -0.057159966578313605 0.23092819577991364 -0.097522299196215
vt 1 0.5
vt 1 0.625
vt 0.875 0.625
vt 0.875 0.5
vt 1 0.625
vt 0.9374999999999998 0.625
vt 0.9374999999999998 0.5
vt 1 0.5
vt 1 0.625
vt 0.9374999999999998 0.625
vt 0.9374999999999998 0.5
vt 1 0.5
vt 1 0.625
vt 0.9374999999999998 0.625
vt 0.9374999999999998 0.5
vt 1 0.5
vt 0.875 0.5
vt 0.9375000000000002 0.5
vt 0.9375000000000002 0.625
vt 0.875 0.625
vt 0.875 0.625
vt 1 0.625
vt 1 0.5
vt 0.875 0.5
vt 0.9374999999999998 0.5
vt 0.9374999999999998 0.625
vt 1 0.625
vt 1 0.5
vt 0.9374999999999998 0.5
vt 0.9374999999999998 0.625
vt 1 0.625
vt 1 0.5
vt 0.9374999999999998 0.5
vt 0.9374999999999998 0.625
vt 1 0.625
vt 1 0.5
vt 0.9375000000000002 0.625
vt 0.9375000000000002 0.5
vt 0.875 0.5
vt 0.875 0.625
vn 0.9289339828711284 -0.1274117760878186 0.34763183798571984
vn 0.02500585102606168 0.9308385267502793 0.364574196195825
vn 0.008922508248617676 -0.9319973369860368 -0.362355285179462
vn -0.41612395376030753 -0.3129182286545686 0.8537698971517893
vn 0.36029714172485106 0.3210154521676729 -0.8758624601696816
vn -0.9723570898320514 -0.08035345468956195 0.21923734210393192
vn -0.02646507069113078 0.9321734789371962 0.3610432179108731
vn -0.009542016073958522 -0.9315004571706526 -0.3636149724916584
vn 0.41612395376031097 -0.3129182286545681 0.8537698971517876
vn -0.36029714172485494 0.32101545216767235 -0.8758624601696804
usemtl m_94e1734c-6c91-8aac-9210-58f9e87c9eaf
f 150/537/141 148/538/141 147/539/141 149/540/141
f 148/541/142 151/542/142 154/543/142 147/544/142
f 149/545/143 153/546/143 152/547/143 150/548/143
f 147/549/144 154/550/144 153/551/144 149/552/144
f 150/553/145 152/554/145 151/555/145 148/556/145
f 155/557/146 156/558/146 158/559/146 157/560/146
f 154/561/147 151/562/147 156/563/147 155/564/147
f 152/565/148 153/566/148 157/567/148 158/568/148
f 153/569/149 154/570/149 155/571/149 157/572/149
f 151/573/150 152/574/150 158/575/150 156/576/150
o cube
v -0.02492329852860378 0.23312031002583963 -0.04097222222222215
v -0.08843238197433027 0.255729236374496 -0.06784003342168589
v -0.034013215750488476 0.2083192694312572 -0.04097222222222215
v -0.09752229919621498 0.23092819577991364 -0.0678400334216859
v -0.11037703550796857 0.2660031129246407 -0.005340033421685778
v -0.11946695272985325 0.2412020723300583 -0.005340033421685781
v -0.051618017809224925 0.2147716677816932 1.9824729116884518e-16
v -0.04252810058734023 0.2395727083762756 2.002656582471798e-16
v -0.0249232985286038 0.23312031002583963 0.04097222222222214
v -0.0884323819743303 0.255729236374496 0.057159966578313584
v -0.03401321575048849 0.2083192694312572 0.04097222222222214
v -0.09752229919621501 0.23092819577991364 0.057159966578313584
vt 1 0.5
vt 1 0.625
vt 0.875 0.625
vt 0.875 0.5
vt 1 0.625
vt 0.9374999999999998 0.625
vt 0.9374999999999998 0.5
vt 1 0.5
vt 1 0.625
vt 0.9374999999999998 0.625
vt 0.9374999999999998 0.5
vt 1 0.5
vt 1 0.625
vt 0.9374999999999998 0.625
vt 0.9374999999999998 0.5
vt 1 0.5
vt 0.875 0.5
vt 0.9375000000000002 0.5
vt 0.9375000000000002 0.625
vt 0.875 0.625
vt 0.875 0.625
vt 1 0.625
vt 1 0.5
vt 0.875 0.5
vt 0.9374999999999998 0.5
vt 0.9374999999999998 0.625
vt 1 0.625
vt 1 0.5
vt 0.9374999999999998 0.5
vt 0.9374999999999998 0.625
vt 1 0.625
vt 1 0.5
vt 0.9374999999999998 0.5
vt 0.9374999999999998 0.625
vt 1 0.625
vt 1 0.5
vt 0.9375000000000002 0.625
vt 0.9375000000000002 0.5
vt 0.875 0.5
vt 0.875 0.625
vn 0.34763183798572006 -0.1274117760878186 -0.9289339828711283
vn 0.364574196195825 0.9308385267502793 -0.0250058510260616
vn -0.362355285179462 -0.9319973369860368 -0.008922508248617756
vn 0.8537698971517892 -0.3129182286545686 0.4161239537603077
vn -0.8758624601696815 0.3210154521676729 -0.3602971417248513
vn 0.21923734210393175 -0.08035345468956197 0.9723570898320516
vn 0.3610432179108731 0.9321734789371962 0.02646507069113086
vn -0.3636149724916585 -0.9315004571706528 0.009542016073958442
vn 0.8537698971517877 -0.3129182286545681 -0.4161239537603108
vn -0.8758624601696805 0.32101545216767235 0.3602971417248547
usemtl m_94e1734c-6c91-8aac-9210-58f9e87c9eaf
f 162/577/151 160/578/151 159/579/151 161/580/151
f 160/581/152 163/582/152 166/583/152 159/584/152
f 161/585/153 165/586/153 164/587/153 162/588/153
f 159/589/154 166/590/154 165/591/154 161/592/154
f 162/593/155 164/594/155 163/595/155 160/596/155
f 167/597/156 168/598/156 170/599/156 169/600/156
f 166/601/157 163/602/157 168/603/157 167/604/157
f 164/605/158 165/606/158 169/607/158 170/608/158
f 165/609/159 166/610/159 167/611/159 169/612/159
f 163/613/160 164/614/160 170/615/160 168/616/160
o cube
v 0.0249232985286038 0.23312031002583963 0.04097222222222214
v 0.0884323819743303 0.255729236374496 0.06784003342168586
v 0.03401321575048849 0.2083192694312572 0.04097222222222214
v 0.09752229919621501 0.23092819577991364 0.06784003342168585
v 0.11037703550796857 0.2660031129246407 0.00534003342168573
v 0.11946695272985325 0.2412020723300583 0.005340033421685727
v 0.051618017809224925 0.2147716677816932 -2.2117029591177034e-16
v 0.04252810058734023 0.2395727083762756 -2.1915192883343572e-16
v 0.02492329852860378 0.23312031002583963 -0.04097222222222215
v 0.08843238197433027 0.255729236374496 -0.057159966578313626
v 0.034013215750488476 0.2083192694312572 -0.04097222222222215
v 0.09752229919621498 0.23092819577991364 -0.057159966578313626
vt 1 0.5
vt 1 0.625
vt 0.875 0.625
vt 0.875 0.5
vt 1 0.625
vt 0.9374999999999998 0.625
vt 0.9374999999999998 0.5
vt 1 0.5
vt 1 0.625
vt 0.9374999999999998 0.625
vt 0.9374999999999998 0.5
vt 1 0.5
vt 1 0.625
vt 0.9374999999999998 0.625
vt 0.9374999999999998 0.5
vt 1 0.5
vt 0.875 0.5
vt 0.9375000000000002 0.5
vt 0.9375000000000002 0.625
vt 0.875 0.625
vt 0.875 0.625
vt 1 0.625
vt 1 0.5
vt 0.875 0.5
vt 0.9374999999999998 0.5
vt 0.9374999999999998 0.625
vt 1 0.625
vt 1 0.5
vt 0.9374999999999998 0.5
vt 0.9374999999999998 0.625
vt 1 0.625
vt 1 0.5
vt 0.9374999999999998 0.5
vt 0.9374999999999998 0.625
vt 1 0.625
vt 1 0.5
vt 0.9375000000000002 0.625
vt 0.9375000000000002 0.5
vt 0.875 0.5
vt 0.875 0.625
vn -0.3476318379857196 -0.1274117760878186 0.9289339828711285
vn -0.364574196195825 0.9308385267502793 0.02500585102606176
vn 0.362355285179462 -0.9319973369860368 0.008922508248617596
vn -0.8537698971517894 -0.3129182286545686 -0.41612395376030736
vn 0.8758624601696817 0.3210154521676729 0.36029714172485083
vn -0.21923734210393214 -0.08035345468956195 -0.9723570898320514
vn -0.3610432179108731 0.9321734789371962 -0.0264650706911307
vn 0.3636149724916585 -0.9315004571706528 -0.009542016073958605
vn -0.8537698971517875 -0.3129182286545681 0.41612395376031114
vn 0.8758624601696803 0.32101545216767235 -0.36029714172485516
usemtl m_94e1734c-6c91-8aac-9210-58f9e87c9eaf
f 174/617/161 172/618/161 171/619/161 173/620/161
f 172/621/162 175/622/162 178/623/162 171/624/162
f 173/625/163 177/626/163 176/627/163 174/628/163
f 171/629/164 178/630/164 177/631/164 173/632/164
f 174/633/165 176/634/165 175/635/165 172/636/165
f 179/637/166 180/638/166 182/639/166 181/640/166
f 178/641/167 175/642/167 180/643/167 179/644/167
f 176/645/168 177/646/168 181/647/168 182/648/168
f 177/649/169 178/650/169 179/651/169 181/652/169
f 175/653/170 176/654/170 182/655/170 180/656/170
o cube
v -0.040972222222222146 0.23312031002583963 0.024923298528603793
v -0.06784003342168586 0.255729236374496 0.0884323819743303
v -0.04097222222222214 0.2083192694312572 0.03401321575048849
v -0.06784003342168586 0.23092819577991364 0.09752229919621501
v -0.00534003342168574 0.2660031129246407 0.11037703550796857
v -0.005340033421685739 0.2412020723300583 0.11946695272985325
v 2.160301775691476e-16 0.2147716677816932 0.051618017809224925
v 2.1491698376611806e-16 0.2395727083762756 0.04252810058734023
v 0.040972222222222146 0.23312031002583963 0.024923298528603786
v 0.05715996657831362 0.255729236374496 0.08843238197433027
v 0.04097222222222215 0.2083192694312572 0.034013215750488476
v 0.05715996657831362 0.23092819577991364 0.09752229919621498
vt 1 0.5
vt 1 0.625
vt 0.875 0.625
vt 0.875 0.5
vt 1 0.625
vt 0.9374999999999998 0.625
vt 0.9374999999999998 0.5
vt 1 0.5
vt 1 0.625
vt 0.9374999999999998 0.625
vt 0.9374999999999998 0.5
vt 1 0.5
vt 1 0.625
vt 0.9374999999999998 0.625
vt 0.9374999999999998 0.5
vt 1 0.5
vt 0.875 0.5
vt 0.9375000000000002 0.5
vt 0.9375000000000002 0.625
vt 0.875 0.625
vt 0.875 0.625
vt 1 0.625
vt 1 0.5
vt 0.875 0.5
vt 0.9374999999999998 0.5
vt 0.9374999999999998 0.625
vt 1 0.625
vt 1 0.5
vt 0.9374999999999998 0.5
vt 0.9374999999999998 0.625
vt 1 0.625
vt 1 0.5
vt 0.9374999999999998 0.5
vt 0.9374999999999998 0.625
vt 1 0.625
vt 1 0.5
vt 0.9375000000000002 0.625
vt 0.9375000000000002 0.5
vt 0.875 0.5
vt 0.875 0.625
vn -0.9289339828711284 -0.1274117760878186 -0.3476318379857197
vn -0.025005851026061725 0.9308385267502793 -0.364574196195825
vn -0.00892250824861763 -0.9319973369860368 0.362355285179462
vn 0.4161239537603074 -0.3129182286545686 -0.8537698971517893
vn -0.36029714172485094 0.3210154521676729 0.8758624601696816
vn 0.9723570898320514 -0.08035345468956195 -0.21923734210393203
vn 0.026465070691130736 0.9321734789371962 -0.3610432179108731
vn 0.009542016073958567 -0.9315004571706526 0.3636149724916584
vn -0.4161239537603111 -0.3129182286545681 -0.8537698971517876
vn 0.360297141724855 0.3210154521676723 0.8758624601696802
usemtl m_94e1734c-6c91-8aac-9210-58f9e87c9eaf
f 186/657/171 184/658/171 183/659/171 185/660/171
f 184/661/172 187/662/172 190/663/172 183/664/172
f 185/665/173 189/666/173 188/667/173 186/668/173
f 183/669/174 190/670/174 189/671/174 185/672/174
f 186/673/175 188/674/175 187/675/175 184/676/175
f 191/677/176 192/678/176 194/679/176 193/680/176
f 190/681/177 187/682/177 192/683/177 191/684/177
f 188/685/178 189/686/178 193/687/178 194/688/178
f 189/689/179 190/690/179 191/691/179 193/692/179
f 187/693/180 188/694/180 194/695/180 192/696/180