# Made in Blockbench 4.8.1
mtllib TreeTar.mtl

o cube
v 0.10557789982759158 0.125 0.09156722704109277
v 0.05774247078195538 0.125 -0.0239177145228181
v 0.10557789982759158 0 0.09156722704109277
v 0.05774247078195538 0 -0.0239177145228181
v -0.057742470781955435 0.125 0.0239177145228181
v -0.009907041736319178 0.125 0.13940265608672897
v -0.057742470781955435 0 0.0239177145228181
v -0.009907041736319178 0 0.13940265608672897
vt 0.925 0.925
vt 0.925 0.925
vt 0.925 0.925
vt 0.925 0.925
vt 0.925 0.925
vt 0.925 0.925
vt 0.925 0.925
vt 0.925 0.925
vt 0.925 0.925
vt 0.925 0.925
vt 0.925 0.925
vt 0.925 0.925
vt 0.925 0.925
vt 0.925 0.925
vt 0.925 0.925
vt 0.925 0.925
vt 0.925 0.925
vt 0.925 0.925
vt 0.925 0.925
vt 0.925 0.925
vt 0.925 0.925
vt 0.925 0.925
vt 0.925 0.925
vt 0.925 0.925
vn -0.3826834323650897 0 -0.9238795325112867
vn 0.9238795325112867 0 -0.3826834323650897
vn 0.3826834323650897 0 0.9238795325112867
vn -0.9238795325112867 0 0.3826834323650897
vn 0 1 0
vn 0 -1 0
usemtl m_f86f9ba1-82f5-b518-81ca-8456389f197c
f 4/4/1 7/3/1 5/2/1 2/1/1
f 3/8/2 4/7/2 2/6/2 1/5/2
f 8/12/3 3/11/3 1/10/3 6/9/3
f 7/16/4 8/15/4 6/14/4 5/13/4
f 6/20/5 1/19/5 2/18/5 5/17/5
f 7/24/6 4/23/6 3/22/6 8/21/6
o cube
v -0.0625 0.125 0.0625
v -0.0625 0.125 -0.0625
v -0.0625 0 0.0625
v -0.0625 0 -0.0625
v -0.1875 0.125 -0.0625
v -0.1875 0.125 0.0625
v -0.1875 0 -0.0625
v -0.1875 0 0.0625
vt 0.925 0.925
vt 0.925 0.925
vt 0.925 0.925
vt 0.925 0.925
vt 0.925 0.925
vt 0.925 0.925
vt 0.925 0.925
vt 0.925 0.925
vt 0.925 0.925
vt 0.925 0.925
vt 0.925 0.925
vt 0.925 0.925
vt 0.925 0.925
vt 0.925 0.925
vt 0.925 0.925
vt 0.925 0.925
vt 0.925 0.925
vt 0.925 0.925
vt 0.925 0.925
vt 0.925 0.925
vt 0.925 0.925
vt 0.925 0.925
vt 0.925 0.925
vt 0.925 0.925
vn 0 0 -1
vn 1 0 0
vn 0 0 1
vn -1 0 0
vn 0 1 0
vn 0 -1 0
usemtl m_f86f9ba1-82f5-b518-81ca-8456389f197c
f 12/28/7 15/27/7 13/26/7 10/25/7
f 11/32/8 12/31/8 10/30/8 9/29/8
f 16/36/9 11/35/9 9/34/9 14/33/9
f 15/40/10 16/39/10 14/38/10 13/37/10
f 14/44/11 9/43/11 10/42/11 13/41/11
f 15/48/12 12/47/12 11/46/12 16/45/12
o cube
v 0.08537658773652745 0.125 -0.0228765877365274
v 0.14787658773652734 0.125 -0.13112976320958225
v 0.08537658773652745 0 -0.0228765877365274
v 0.14787658773652734 0 -0.13112976320958225
v 0.039623412263472546 0.125 -0.19362976320958225
v -0.0228765877365274 0.125 -0.0853765877365274
v 0.039623412263472546 0 -0.19362976320958225
v -0.0228765877365274 0 -0.0853765877365274
vt 0.925 0.925
vt 0.925 0.925
vt 0.925 0.925
vt 0.925 0.925
vt 0.925 0.925
vt 0.925 0.925
vt 0.925 0.925
vt 0.925 0.925
vt 0.925 0.925
vt 0.925 0.925
vt 0.925 0.925
vt 0.925 0.925
vt 0.925 0.925
vt 0.925 0.925
vt 0.925 0.925
vt 0.925 0.925
vt 0.925 0.925
vt 0.925 0.925
vt 0.925 0.925
vt 0.925 0.925
vt 0.925 0.925
vt 0.925 0.925
vt 0.925 0.925
vt 0.925 0.925
vn 0.49999999999999994 0 -0.8660254037844387
vn 0.8660254037844387 0 0.49999999999999994
vn -0.49999999999999994 0 0.8660254037844387
vn -0.8660254037844387 0 -0.49999999999999994
vn 0 1 0
vn 0 -1 0
usemtl m_f86f9ba1-82f5-b518-81ca-8456389f197c
f 20/52/13 23/51/13 21/50/13 18/49/13
f 19/56/14 20/55/14 18/54/14 17/53/14
f 24/60/15 19/59/15 17/58/15 22/57/15
f 23/64/16 24/63/16 22/62/16 21/61/16
f 22/68/17 17/67/17 18/66/17 21/65/17
f 23/72/18 20/71/18 19/70/18 24/69/18