# Made in Blockbench 4.8.1
mtllib TreeBranch.mtl

o cube
v 0.11958854869631619 0.0625000237876413 0.28871235866733014
v -0.1195885965317452 0.06249997621234915 -0.28871234915227173
v 0.11958857261403066 2.378764607513517e-8 0.2887123539098009
v -0.11958857261403066 -2.378764607513517e-8 -0.28871235390980093
v -0.17733106731370063 0.062499952294634675 -0.26479463462946556
v 0.0618460779143607 0.062499999869926826 0.31263007319013636
v -0.1773310433959861 -4.770536060627606e-8 -0.2647946393869948
v 0.061846101832075284 -1.3006845600571637e-10 0.3126300684326071
vt 0.875 0.625
vt 0.9375 0.625
vt 0.9375 0.5625
vt 0.875 0.5625
vt 0.875 0.625
vt 1 0.625
vt 1 0.5625
vt 0.875 0.5625
vt 0.875 0.625
vt 0.9375 0.625
vt 0.9375 0.5625
vt 0.875 0.5625
vt 0.875 0.625
vt 1 0.625
vt 1 0.5625
vt 0.875 0.5625
vt 0.875 0.625
vt 0.9375 0.625
vt 0.9375 0.5
vt 0.875 0.5
vt 0.875 0.625
vt 0.9375 0.625
vt 0.9375 0.5
vt 0.875 0.5
vn -0.38268343236489827 -7.612046744860866e-8 -0.9238795325113631
vn 0.9238795325112868 3.8268343216366184e-7 -0.38268343236489816
vn 0.38268343236489827 7.612046744860866e-8 0.9238795325113631
vn -0.9238795325112868 -3.8268343216366184e-7 0.38268343236489816
vn -3.826834321636619e-7 0.999999999999924 7.612046744860856e-8
vn 3.826834321636619e-7 -0.999999999999924 -7.612046744860856e-8
usemtl m_319e1d3e-d6a9-528a-e283-5e4a8337e734
f 4/4/1 7/3/1 5/2/1 2/1/1
f 3/8/2 4/7/2 2/6/2 1/5/2
f 8/12/3 3/11/3 1/10/3 6/9/3
f 7/16/4 8/15/4 6/14/4 5/13/4
f 6/20/5 1/19/5 2/18/5 5/17/5
f 7/24/6 4/23/6 3/22/6 8/21/6
o cube
v 2.3917714475629737e-8 0.062499999999995226 4.757529259435955e-9
v 0.09567088200893914 0.06249998096987841 -0.23096987837031147
v 0 0 0
v 0.09567085809122466 -1.9030116871210367e-8 -0.23096988312784072
v 0.03792841122698376 0.06250000488759289 -0.25488759289311763
v -0.057742446864240904 0.0625000239177097 -0.023917709765276962
v 0.037928387309269285 4.8875976599305204e-9 -0.25488759765064684
v -0.057742470781955435 2.3917714475629737e-8 -0.023917714522806166
vt 0.875 0.625
vt 0.9375 0.625
vt 0.9375 0.5625
vt 0.875 0.5625
vt 0.875 0.625
vt 0.875 0.625
vt 0.875 0.5625
vt 0.875 0.5625
vt 0.875 0.625
vt 0.9375 0.625
vt 0.9375 0.5625
vt 0.875 0.5625
vt 0.875 0.625
vt 0.875 0.625
vt 0.875 0.5625
vt 0.875 0.5625
vt 0.875 0.625
vt 0.9375 0.625
vt 0.9375 0.5
vt 0.875 0.5
vt 0.875 0.625
vt 0.9375 0.625
vt 0.9375 0.5
vt 0.875 0.5
vn 0.3826834323648986 -7.612046744860883e-8 -0.9238795325113628
vn 0.9238795325112868 -3.82683432163662e-7 0.3826834323648987
vn -0.3826834323648986 7.612046744860883e-8 0.9238795325113628
vn -0.9238795325112868 3.82683432163662e-7 -0.3826834323648987
vn 3.82683432163662e-7 0.999999999999924 7.61204674486086e-8
vn -3.82683432163662e-7 -0.999999999999924 -7.61204674486086e-8
usemtl m_319e1d3e-d6a9-528a-e283-5e4a8337e734
f 12/28/7 15/27/7 13/26/7 10/25/7
f 11/32/8 12/31/8 10/30/8 9/29/8
f 16/36/9 11/35/9 9/34/9 14/33/9
f 15/40/10 16/39/10 14/38/10 13/37/10
f 14/44/11 9/43/11 10/42/11 13/41/11
f 15/48/12 12/47/12 11/46/12 16/45/12
o cube
v -0.10557792374528219 0.06249996656722234 -0.09156722228358505
v -0.12949563826808835 0.06249996180969308 -0.1493096930655452
v -0.10557789982756771 -3.3432772938990496e-8 -0.09156722704111425
v -0.12949561435037382 -3.81903021429153e-8 -0.14930969782307446
v -0.1872381090500438 0.06249993789197861 -0.1253919785427391
v -0.16332039452723762 0.062499942649507756 -0.06764950776077888
v -0.18723808513232926 -6.210801667405619e-8 -0.1253919833002683
v -0.1633203706095231 -5.7350487470131384e-8 -0.06764951251830809
vt 0.75 0.875
vt 0.8125 0.875
vt 0.8125 0.8125
vt 0.75 0.8125
vt 0.75 0.875
vt 0.8125 0.875
vt 0.8125 0.8125
vt 0.75 0.8125
vt 0.75 0.875
vt 0.8125 0.875
vt 0.8125 0.8125
vt 0.75 0.8125
vt 0.75 0.875
vt 0.8125 0.875
vt 0.8125 0.8125
vt 0.75 0.8125
vt 0.75 0.875
vt 0.8125 0.875
vt 0.8125 0.8125
vt 0.75 0.8125
vt 0.75 0.875
vt 0.8125 0.875
vt 0.8125 0.8125
vt 0.75 0.8125
vn -0.38268343236489827 -7.612046744860866e-8 -0.9238795325113631
vn 0.9238795325112868 3.8268343216366184e-7 -0.38268343236489816
vn 0.38268343236489827 7.612046744860866e-8 0.9238795325113631
vn -0.9238795325112868 -3.8268343216366184e-7 0.38268343236489816
vn -3.826834321636619e-7 0.999999999999924 7.612046744860856e-8
vn 3.826834321636619e-7 -0.999999999999924 -7.612046744860856e-8
usemtl m_319e1d3e-d6a9-528a-e283-5e4a8337e734
f 20/52/13 23/51/13 21/50/13 18/49/13
f 19/56/14 20/55/14 18/54/14 17/53/14
f 24/60/15 19/59/15 17/58/15 22/57/15
f 23/64/16 24/63/16 22/62/16 21/61/16
f 22/68/17 17/67/17 18/66/17 21/65/17
f 23/72/18 20/71/18 19/70/18 24/69/18