# Made in Blockbench 4.8.1
mtllib WoodLog.mtl

o cube
v 0.125 0.25 0.25
v 0.125 0.25 -0.25
v 0.125 0 0.25
v 0.125 0 -0.25
v -0.125 0.25 0.25
v -0.125 0.25 -0.25
v -0.125 0 0.25
v -0.125 0 -0.25
v -0.125 0.20833333333333331 -0.25
v 0.125 0.20833333333333331 -0.25
v 0.125 0.20833333333333331 0.25
v -0.125 0.20833333333333331 0.25
v -0.125 0.04166666666666667 -0.25
v 0.125 0.04166666666666667 -0.25
v 0.125 0.04166666666666667 0.25
v -0.125 0.04166666666666667 0.25
v -0.08333333333333333 0.04166666666666667 -0.25
v -0.08333333333333333 0.20833333333333331 -0.25
v -0.08333333333333333 0.25 -0.25
v -0.08333333333333333 0.25 0.25
v -0.08333333333333333 0.20833333333333331 0.25
v -0.08333333333333333 0.04166666666666667 0.25
v -0.08333333333333333 0 0.25
v -0.08333333333333333 0 -0.25
v 0.08333333333333333 0.04166666666666667 -0.25
v 0.08333333333333333 0.20833333333333331 -0.25
v 0.08333333333333333 0.25 -0.25
v 0.08333333333333333 0.25 0.25
v 0.08333333333333333 0.20833333333333331 0.25
v 0.08333333333333333 0.04166666666666667 0.25
v 0.08333333333333333 0 0.25
v 0.08333333333333333 0 -0.25
vt 0.90625 0.53125
vt 0.90625 0.53125
vt 0.90625 0.53125
vt 0.90625 0.53125
vt 0.90625 0.53125
vt 0.90625 0.53125
vt 0.90625 0.53125
vt 0.90625 0.53125
vt 0.90625 0.53125
vt 0.90625 0.53125
vt 0.90625 0.53125
vt 0.90625 0.53125
vt 0.90625 0.53125
vt 0.90625 0.53125
vt 0.90625 0.53125
vt 0.90625 0.53125
vt 0.90625 0.53125
vt 0.90625 0.53125
vt 0.90625 0.53125
vt 0.90625 0.53125
vt 0.90625 0.53125
vt 0.90625 0.53125
vt 0.90625 0.53125
vt 0.90625 0.53125
vt 0.90625 0.53125
vt 0.90625 0.53125
vt 0.90625 0.53125
vt 0.90625 0.53125
vt 0.90625 0.53125
vt 0.90625 0.53125
vt 0.90625 0.53125
vt 0.90625 0.53125
vt 0.90625 0.53125
vt 0.90625 0.53125
vt 0.90625 0.53125
vt 0.90625 0.53125
vt 0.90625 0.53125
vt 0.90625 0.53125
vt 0.90625 0.53125
vt 0.90625 0.53125
vt 0.90625 0.53125
vt 0.90625 0.53125
vt 0.90625 0.53125
vt 0.90625 0.53125
vt 0.90625 0.53125
vt 0.90625 0.53125
vt 0.90625 0.53125
vt 0.90625 0.53125
vt 0.90625 0.53125
vt 0.90625 0.53125
vt 0.90625 0.53125
vt 0.90625 0.53125
vt 0.90625 0.53125
vt 0.90625 0.53125
vt 0.90625 0.53125
vt 0.90625 0.53125
vt 0.8541666666666666 0.6041666666666667
vt 0.7708333333333333 0.6041666666666667
vt 0.7708333333333333 0.5208333333333333
vt 0.8541666666666666 0.5208333333333333
vt 0.90625 0.53125
vt 0.90625 0.53125
vt 0.90625 0.53125
vt 0.90625 0.53125
vt 0.90625 0.53125
vt 0.90625 0.53125
vt 0.90625 0.53125
vt 0.90625 0.53125
vt 0.90625 0.53125
vt 0.90625 0.53125
vt 0.90625 0.53125
vt 0.90625 0.53125
vt 0.7708333333333334 0.5208333333333333
vt 0.8541666666666667 0.5208333333333333
vt 0.8541666666666667 0.6041666666666667
vt 0.7708333333333334 0.6041666666666667
vt 0.90625 0.53125
vt 0.90625 0.53125
vt 0.90625 0.53125
vt 0.90625 0.53125
vt 0.90625 0.53125
vt 0.90625 0.53125
vt 0.90625 0.53125
vt 0.90625 0.53125
vt 0.90625 0.53125
vt 0.90625 0.53125
vt 0.90625 0.53125
vt 0.90625 0.53125
vt 0.90625 0.53125
vt 0.90625 0.53125
vt 0.90625 0.53125
vt 0.90625 0.53125
vt 0.90625 0.53125
vt 0.90625 0.53125
vt 0.90625 0.53125
vt 0.90625 0.53125
vt 0.90625 0.53125
vt 0.90625 0.53125
vt 0.90625 0.53125
vt 0.90625 0.53125
vt 0.90625 0.53125
vt 0.90625 0.53125
vt 0.90625 0.53125
vt 0.90625 0.53125
vt 0.90625 0.53125
vt 0.90625 0.53125
vt 0.90625 0.53125
vt 0.90625 0.53125
vt 0.90625 0.53125
vt 0.90625 0.53125
vt 0.90625 0.53125
vt 0.90625 0.53125
vt 0.90625 0.53125
vt 0.90625 0.53125
vt 0.90625 0.53125
vt 0.90625 0.53125
vt 0.90625 0.53125
vt 0.90625 0.53125
vt 0.90625 0.53125
vt 0.90625 0.53125
vn 1 0 0
vn -1 0 0
vn 0 1 0
vn 0 -1 0
vn 0 0 1
vn 0 0 -1
vn 0 0 -1
vn 1 0 0
vn 0 0 1
vn -1 0 0
vn 0 0 -1
vn 1 0 0
vn 0 0 1
vn -1 0 0
vn 0 0 -1
vn 0 0 -1
vn 0 1 0
vn 0 0 1
vn 0 0 1
vn 0 0 1
vn 0 -1 0
vn 0 0 -1
vn 0 0 -1
vn 0 0 -1
vn 0 1 0
vn 0 0 1
vn 0 0 1
vn 0 0 1
vn 0 -1 0
vn 0 0 -1
usemtl m_94f71646-4780-21a3-7e84-90b0b6f54e01
f 1/1/1 11/2/1 10/3/1 2/4/1
f 6/5/2 9/6/2 12/7/2 5/8/2
f 5/9/3 20/10/3 19/11/3 6/12/3
f 8/13/4 24/14/4 23/15/4 7/16/4
f 12/17/5 21/18/5 20/19/5 5/20/5
f 6/21/6 19/22/6 18/23/6 9/24/6
f 9/25/7 18/26/7 17/27/7 13/28/7
f 11/29/8 15/30/8 14/31/8 10/32/8
f 16/33/9 22/34/9 21/35/9 12/36/9
f 9/37/10 13/38/10 16/39/10 12/40/10
f 13/41/11 17/42/11 24/43/11 8/44/11
f 4/45/12 14/46/12 15/47/12 3/48/12
f 7/49/13 23/50/13 22/51/13 16/52/13
f 7/53/14 16/54/14 13/55/14 8/56/14
f 18/57/15 26/58/15 25/59/15 17/60/15
f 19/61/16 27/62/16 26/63/16 18/64/16
f 20/65/17 28/66/17 27/67/17 19/68/17
f 21/69/18 29/70/18 28/71/18 20/72/18
f 22/73/19 30/74/19 29/75/19 21/76/19
f 23/77/20 31/78/20 30/79/20 22/80/20
f 24/81/21 32/82/21 31/83/21 23/84/21
f 17/85/22 25/86/22 32/87/22 24/88/22
f 14/89/23 25/90/23 26/91/23 10/92/23
f 10/93/24 26/94/24 27/95/24 2/96/24
f 2/97/25 27/98/25 28/99/25 1/100/25
f 1/101/26 28/102/26 29/103/26 11/104/26
f 11/105/27 29/106/27 30/107/27 15/108/27
f 15/109/28 30/110/28 31/111/28 3/112/28
f 3/113/29 31/114/29 32/115/29 4/116/29
f 4/117/30 32/118/30 25/119/30 14/120/30