# Made in Blockbench 4.8.1
mtllib WoodBucket-Water.mtl

o cylinder
v -3.9650822308041295e-18 0 0
v 0.06472086912079611 0 0.15625
v 0.09060921676911454 0.375 0.21875
v 0.15625 0 0.06472086912079611
v 0.21875 0.375 0.09060921676911454
v 0.15625 0 -0.0647208691207961
v 0.21875 0.375 -0.09060921676911453
v 0.06472086912079611 0 -0.15625
v 0.09060921676911456 0.375 -0.21875
v -0.06472086912079608 0 -0.15625
v -0.09060921676911451 0.375 -0.21875
v -0.15624999999999992 0 -0.06472086912079619
v -0.2187499999999999 0.375 -0.09060921676911467
v -0.15625 0 0.06472086912079615
v -0.21875 0.375 0.09060921676911461
v -0.0647208691207962 0 0.15624999999999994
v -0.0906092167691147 0.375 0.21874999999999992
v 0.17187578815517998 0.375 0.07119365560248889
v 0.07119199264274245 0.375 0.17187421184482002
v -0.0711928933915197 0.375 0.17187421184481996
v -0.17187421184482002 0.375 0.07119262956831096
v -0.17187421184481994 0.375 -0.071192629568311
v -0.07119289339151956 0.375 -0.17187421184482002
v 0.07119199264274247 0.375 -0.17187421184482002
v 0.1718733110960429 0.375 -0.07119262956831089
v 0.05085142331624462 0.0625 -0.12276729417487145
v -3.9650822308041295e-18 0.0625 0
v 0.12276665078288779 0.0625 -0.05085187826307921
v 0.12276842011084285 0.0625 0.05085261114463492
v 0.05085142331624461 0.0625 0.12276729417487145
v -0.05085206670822836 0.0625 0.12276729417487141
v -0.12276729417487145 0.0625 0.050851878263079256
v -0.12276729417487138 0.0625 -0.05085187826307929
v -0.050852066708228255 0.0625 -0.12276729417487145
v 0.19824760747776546 0.2519856448665928 0.08211684772530828
v 0.08211684772530828 0.2519856448665928 0.19824760747776546
v -0.0821168477253084 0.2519856448665928 0.1982476074777654
v -0.19824760747776546 0.2519856448665928 0.08211684772530833
v -0.19824760747776538 0.2519856448665928 -0.08211684772530839
v -0.08211684772530825 0.2519856448665928 -0.19824760747776546
v 0.08211684772530828 0.2519856448665928 -0.19824760747776546
v 0.19824760747776546 0.2519856448665928 -0.08211684772530826
v 0.1879964112166482 0.1904784672998892 0.07787066320340515
v 0.07787066320340515 0.1904784672998892 0.1879964112166482
v -0.07787066320340526 0.1904784672998892 0.18799641121664815
v -0.1879964112166482 0.1904784672998892 0.07787066320340519
v -0.18799641121664812 0.1904784672998892 -0.07787066320340524
v -0.07787066320340512 0.1904784672998892 -0.1879964112166482
v 0.07787066320340515 0.1904784672998892 -0.1879964112166482
v 0.1879964112166482 0.1904784672998892 -0.07787066320340513
v 0.2226338305495083 0.18020353059330438 0.09221795205667985
v 0.09221795205667983 0.18020353059330438 0.2226338305495083
v -0.09221795205667996 0.18020353059330438 0.22263383054950822
v -0.2226338305495083 0.18020353059330438 0.09221795205667985
v -0.22263383054950822 0.18020353059330438 -0.09221795205667996
v -0.0922179520566798 0.18020353059330438 -0.2226338305495083
v 0.09221795205667985 0.18020353059330438 -0.2226338305495083
v 0.2226338305495083 0.18020353059330438 -0.09221795205667983
v 0.23211884986198603 0.24171070816000798 0.09614677569527887
v 0.23211884986198614 0.24171070816000798 -0.09614677569527885
v 0.09614677569527888 0.24171070816000798 -0.23211884986198605
v -0.09614677569527884 0.24171070816000798 -0.2321188498619861
v -0.23211884986198597 0.24171070816000798 -0.096146775695279
v -0.23211884986198608 0.24171070816000798 0.0961467756952789
v -0.096146775695279 0.24171070816000798 0.232118849861986
v 0.09614677569527887 0.24171070816000798 0.2321188498619861
vt 0.8125000000000003 0.5624999999999998
vt 0.8125000000000003 0.5624999999999998
vt 0.8125000000000003 0.5624999999999998
vt 0.8125000000000003 0.5624999999999998
vt 0.8125000000000003 0.5624999999999998
vt 0.8125000000000003 0.5624999999999998
vt 0.8125000000000003 0.5624999999999998
vt 0.8125000000000003 0.5624999999999998
vt 0.8125000000000003 0.5624999999999998
vt 0.8125000000000003 0.5624999999999998
vt 0.8125000000000003 0.5624999999999998
vt 0.8125000000000003 0.5624999999999998
vt 0.8125000000000003 0.5624999999999998
vt 0.8125000000000003 0.5624999999999998
vt 0.8125000000000003 0.5624999999999998
vt 0.8125000000000003 0.5624999999999998
vt 0.8125000000000003 0.5624999999999998
vt 0.8125000000000003 0.5624999999999998
vt 0.8125000000000003 0.5624999999999998
vt 0.8125000000000003 0.5624999999999998
vt 0.8125000000000003 0.5624999999999998
vt 0.8125000000000003 0.5624999999999998
vt 0.8125000000000003 0.5624999999999998
vt 0.8125000000000003 0.5624999999999998
vt 0.8125000000000003 0.5624999999999998
vt 0.8125000000000003 0.5624999999999998
vt 0.8125000000000003 0.5624999999999998
vt 0.8125000000000003 0.5624999999999998
vt 0.8125000000000003 0.5624999999999998
vt 0.8125000000000003 0.5624999999999998
vt 0.8125000000000003 0.5624999999999998
vt 0.8125000000000003 0.5624999999999998
vt 0.8125000000000003 0.5624999999999998
vt 0.8125000000000003 0.5624999999999998
vt 0.8125000000000003 0.5624999999999998
vt 0.8125000000000003 0.5624999999999998
vt 0.8125000000000003 0.5624999999999998
vt 0.8125000000000003 0.5624999999999998
vt 0.8125000000000003 0.5624999999999998
vt 0.8125000000000003 0.5624999999999998
vt 0.8125000000000003 0.5624999999999998
vt 0.8125000000000003 0.5624999999999998
vt 0.8125000000000003 0.5624999999999998
vt 0.8125000000000003 0.5624999999999998
vt 0.8125000000000003 0.5624999999999998
vt 0.8125000000000003 0.5624999999999998
vt 0.8125000000000003 0.5624999999999998
vt 0.8125000000000003 0.5624999999999998
vt 0.8125000000000003 0.5624999999999998
vt 0.8125000000000003 0.5624999999999998
vt 0.8125000000000003 0.5624999999999998
vt 0.8125000000000003 0.5624999999999998
vt 0.8125000000000003 0.5624999999999998
vt 0.8125000000000003 0.5624999999999998
vt 0.8125000000000003 0.5624999999999998
vt 0.8125000000000003 0.5624999999999998
vt 0.8125000000000003 0.5624999999999998
vt 0.8125000000000003 0.5624999999999998
vt 0.8125000000000003 0.5624999999999998
vt 0.8125000000000003 0.5624999999999998
vt 0.8125000000000003 0.5624999999999998
vt 0.8125000000000003 0.5624999999999998
vt 0.8125000000000003 0.5624999999999998
vt 0.8125000000000003 0.5624999999999998
vt 0.8125000000000003 0.5624999999999998
vt 0.8125000000000003 0.5624999999999998
vt 0.8125000000000003 0.5624999999999998
vt 0.8125000000000003 0.5624999999999998
vt 0.8125000000000003 0.5624999999999998
vt 0.8125000000000003 0.5624999999999998
vt 0.8125000000000003 0.5624999999999998
vt 0.8125000000000003 0.5624999999999998
vt 0.8125000000000003 0.5624999999999998
vt 0.8125000000000003 0.5624999999999998
vt 0.8125000000000003 0.5624999999999998
vt 0.8125000000000003 0.5624999999999998
vt 0.8125000000000003 0.5624999999999998
vt 0.8125000000000003 0.5624999999999998
vt 0.8125000000000003 0.5624999999999998
vt 0.8125000000000003 0.5624999999999998
vt 0.8125000000000003 0.5624999999999998
vt 0.8125000000000003 0.5624999999999998
vt 0.8125000000000003 0.5624999999999998
vt 0.8125000000000003 0.5624999999999998
vt 0.8125000000000003 0.5624999999999998
vt 0.8125000000000003 0.5624999999999998
vt 0.8125000000000003 0.5624999999999998
vt 0.8125000000000003 0.5624999999999998
vt 0.8125000000000003 0.5624999999999998
vt 0.8125000000000003 0.5624999999999998
vt 0.8125000000000003 0.5624999999999998
vt 0.8125000000000003 0.5624999999999998
vt 0.8125000000000003 0.5624999999999998
vt 0.8125000000000003 0.5624999999999998
vt 0.8125000000000003 0.5624999999999998
vt 0.8125000000000003 0.5624999999999998
vt 0.8125000000000003 0.5624999999999998
vt 0.8125000000000003 0.5624999999999998
vt 0.8125000000000003 0.5624999999999998
vt 0.8125000000000003 0.5624999999999998
vt 0.8125000000000003 0.5624999999999998
vt 0.8125000000000003 0.5624999999999998
vt 0.8125000000000003 0.5624999999999998
vt 0.8125000000000003 0.5624999999999998
vt 0.8125000000000003 0.5624999999999998
vt 0.8125000000000003 0.5624999999999998
vt 0.8125000000000003 0.5624999999999998
vt 0.8125000000000003 0.5624999999999998
vt 0.8125000000000003 0.5624999999999998
vt 0.8125000000000003 0.5624999999999998
vt 0.8125000000000003 0.5624999999999998
vt 0.8125000000000003 0.5624999999999998
vt 0.8125000000000003 0.5624999999999998
vt 0.8125000000000003 0.5624999999999998
vt 0.8125000000000003 0.5624999999999998
vt 0.8125000000000003 0.5624999999999998
vt 0.8125000000000003 0.5624999999999998
vt 0.8125000000000003 0.5624999999999998
vt 0.8125000000000003 0.5624999999999998
vt 0.8125000000000003 0.5624999999999998
vt 0.8125000000000003 0.5624999999999998
vt 0.8125000000000003 0.5624999999999998
vt 0.8125000000000003 0.5624999999999998
vt 0.8125000000000003 0.5624999999999998
vt 0.8125000000000003 0.5624999999999998
vt 0.8125000000000003 0.5624999999999998
vt 0.8125000000000003 0.5624999999999998
vt 0.8125000000000003 0.5624999999999998
vt 0.8125000000000003 0.5624999999999998
vt 0.8125000000000003 0.5624999999999998
vt 0.8125000000000003 0.5624999999999998
vt 0.8125000000000003 0.5624999999999998
vt 0.8125000000000003 0.5624999999999998
vt 0.8125000000000003 0.5624999999999998
vt 0.8125000000000003 0.5624999999999998
vt 0.8125000000000003 0.5624999999999998
vt 0.8125000000000003 0.5624999999999998
vt 0.8125000000000003 0.5624999999999998
vt 0.8125000000000003 0.5624999999999998
vt 0.8125000000000003 0.5624999999999998
vt 0.8125000000000003 0.5624999999999998
vt 0.8125000000000003 0.5624999999999998
vt 0.8125000000000003 0.5624999999999998
vt 0.8125000000000003 0.5624999999999998
vt 0.9249999999999999 0.5624999999999998
vt 0.9249999999999999 0.5624999999999998
vt 0.9249999999999999 0.5624999999999998
vt 0.9249999999999999 0.5624999999999998
vt 0.9249999999999999 0.5624999999999998
vt 0.9249999999999999 0.5624999999999998
vt 0.9249999999999999 0.5624999999999998
vt 0.9249999999999999 0.5624999999999998
vt 0.9249999999999999 0.5624999999999998
vt 0.9249999999999999 0.5624999999999998
vt 0.9249999999999999 0.5624999999999998
vt 0.9249999999999999 0.5624999999999998
vt 0.9249999999999999 0.5624999999999998
vt 0.9249999999999999 0.5624999999999998
vt 0.9249999999999999 0.5624999999999998
vt 0.9249999999999999 0.5624999999999998
vt 0.9249999999999999 0.5624999999999998
vt 0.9249999999999999 0.5624999999999998
vt 0.9249999999999999 0.5624999999999998
vt 0.9249999999999999 0.5624999999999998
vt 0.9249999999999999 0.5624999999999998
vt 0.9249999999999999 0.5624999999999998
vt 0.9249999999999999 0.5624999999999998
vt 0.9249999999999999 0.5624999999999998
vt 0.9249999999999999 0.5624999999999998
vt 0.9249999999999999 0.5624999999999998
vt 0.9249999999999999 0.5624999999999998
vt 0.9249999999999999 0.5624999999999998
vt 0.9249999999999999 0.5624999999999998
vt 0.9249999999999999 0.5624999999999998
vt 0.9249999999999999 0.5624999999999998
vt 0.9249999999999999 0.5624999999999998
vt 0.8125000000000003 0.5624999999999998
vt 0.8125000000000003 0.5624999999999998
vt 0.8125000000000003 0.5624999999999998
vt 0.8125000000000003 0.5624999999999998
vt 0.8125000000000003 0.5624999999999998
vt 0.8125000000000003 0.5624999999999998
vt 0.8125000000000003 0.5624999999999998
vt 0.8125000000000003 0.5624999999999998
vt 0.8125000000000003 0.5624999999999998
vt 0.8125000000000003 0.5624999999999998
vt 0.8125000000000003 0.5624999999999998
vt 0.8125000000000003 0.5624999999999998
vt 0.8125000000000003 0.5624999999999998
vt 0.8125000000000003 0.5624999999999998
vt 0.8125000000000003 0.5624999999999998
vt 0.8125000000000003 0.5624999999999998
vt 0.8125000000000003 0.5624999999999998
vt 0.8125000000000003 0.5624999999999998
vt 0.8125000000000003 0.5624999999999998
vt 0.8125000000000003 0.5624999999999998
vt 0.8125000000000003 0.5624999999999998
vt 0.8125000000000003 0.5624999999999998
vt 0.8125000000000003 0.5624999999999998
vt 0.8125000000000003 0.5624999999999998
vt 0.8125000000000003 0.5624999999999998
vt 0.8125000000000003 0.5624999999999998
vt 0.8125000000000003 0.5624999999999998
vt 0.8125000000000003 0.5624999999999998
vt 0.8125000000000003 0.5624999999999998
vt 0.8125000000000003 0.5624999999999998
vt 0.8125000000000003 0.5624999999999998
vt 0.8125000000000003 0.5624999999999998
vt 0.9249999999999999 0.5624999999999998
vt 0.9249999999999999 0.5624999999999998
vt 0.9249999999999999 0.5624999999999998
vt 0.9249999999999999 0.5624999999999998
vt 0.9249999999999999 0.5624999999999998
vt 0.9249999999999999 0.5624999999999998
vt 0.9249999999999999 0.5624999999999998
vt 0.9249999999999999 0.5624999999999998
vt 0.9249999999999999 0.5624999999999998
vt 0.9249999999999999 0.5624999999999998
vt 0.9249999999999999 0.5624999999999998
vt 0.9249999999999999 0.5624999999999998
vt 0.9249999999999999 0.5624999999999998
vt 0.9249999999999999 0.5624999999999998
vt 0.9249999999999999 0.5624999999999998
vt 0.9249999999999999 0.5624999999999998
vt 0.9249999999999999 0.5624999999999998
vt 0.9249999999999999 0.5624999999999998
vt 0.9249999999999999 0.5624999999999998
vt 0.9249999999999999 0.5624999999999998
vt 0.9249999999999999 0.5624999999999998
vt 0.9249999999999999 0.5624999999999998
vt 0.9249999999999999 0.5624999999999998
vt 0.9249999999999999 0.5624999999999998
vt 0.9249999999999999 0.5624999999999998
vt 0.9249999999999999 0.5624999999999998
vt 0.9249999999999999 0.5624999999999998
vt 0.9249999999999999 0.5624999999999998
vt 0.9249999999999999 0.5624999999999998
vt 0.9249999999999999 0.5624999999999998
vt 0.9249999999999999 0.5624999999999998
vt 0.9249999999999999 0.5624999999999998
vt 0.9249999999999999 0.5624999999999998
vt 0.9249999999999999 0.5624999999999998
vt 0.9249999999999999 0.5624999999999998
vt 0.9249999999999999 0.5624999999999998
vt 0.9249999999999999 0.5624999999999998
vt 0.9249999999999999 0.5624999999999998
vt 0.9249999999999999 0.5624999999999998
vt 0.9249999999999999 0.5624999999999998
vt 0.9249999999999999 0.5624999999999998
vt 0.9249999999999999 0.5624999999999998
vt 0.9249999999999999 0.5624999999999998
vt 0.9249999999999999 0.5624999999999998
vt 0.9249999999999999 0.5624999999999998
vt 0.9249999999999999 0.5624999999999998
vt 0.9249999999999999 0.5624999999999998
vt 0.9249999999999999 0.5624999999999998
vt 0.9249999999999999 0.5624999999999998
vt 0.9249999999999999 0.5624999999999998
vt 0.9249999999999999 0.5624999999999998
vt 0.9249999999999999 0.5624999999999998
vt 0.9249999999999999 0.5624999999999998
vt 0.9249999999999999 0.5624999999999998
vt 0.9249999999999999 0.5624999999999998
vt 0.9249999999999999 0.5624999999999998
vt 0.9249999999999999 0.5624999999999998
vt 0.9249999999999999 0.5624999999999998
vt 0.9249999999999999 0.5624999999999998
vt 0.9249999999999999 0.5624999999999998
vt 0.9249999999999999 0.5624999999999998
vt 0.9249999999999999 0.5624999999999998
vt 0.9249999999999999 0.5624999999999998
vt 0.9249999999999999 0.5624999999999998
vn 0 -1 0
vn 0.6974858324629157 -0.16439898730535732 0.6974858324629157
vn 0 1 0
vn 0 -1 0
vn 0.9863939238321439 -0.1643989873053574 0
vn 0 1 0
vn 0 -1 0
vn 0.6974858324629157 -0.16439898730535732 -0.6974858324629156
vn 0 1 0
vn 0 -1 0
vn 0 -0.16439898730535737 -0.9863939238321439
vn 0 1 0
vn 0 -1 0
vn -0.6974858324629155 -0.16439898730535732 -0.697485832462916
vn 0 1 0
vn 0 -1 0
vn -0.9863939238321439 -0.16439898730535718 -4.870016464105897e-16
vn 0 1 0
vn 0 -1 0
vn -0.6974858324629158 -0.16439898730535737 0.6974858324629155
vn 0 1 0
vn 0 -1 0
vn -3.387837540247583e-16 -0.16439898730535718 0.9863939238321439
vn 0 1 0
vn 0 1 0
vn 0 1 0
vn 0 1 0
vn 0 1 0
vn 0 1 0
vn 0 1 0
vn 0 1 0
vn 0 1 0
vn -0.6985356600033585 0.15523666009020343 0.6985338295800075
vn -0.9878771876417254 0.15523743698516163 0.00001718585614503364
vn -0.6985233863447244 0.15523775175735097 -0.6985458604550041
vn 4.043976456935189e-16 0.15523713928376864 -0.9878772345726932
vn 0.698535597621571 0.15523722150022318 -0.6985337671983834
vn 0.9878772345726933 0.15523713928376873 6.739943100353547e-16
vn 0.6985355976215708 0.15523722150022312 0.6985337671983837
vn 0 0.15523713928376867 0.9878772345726932
vn 0.6988460755901439 -0.15240841598976596 0.698846075590144
vn -4.43949316829485e-16 -0.1524084159897656 0.9883175981107949
vn -0.6988460755901441 -0.15240841598976584 0.698846075590144
vn -0.9883175981107949 -0.15240841598976515 -4.43949316829485e-16
vn -0.6988460755901438 -0.152408415989766 -0.6988460755901442
vn 0 -0.15240841598976515 -0.988317598110795
vn 0.698846075590144 -0.15240841598976612 -0.698846075590144
vn 0.988317598110795 -0.1524084159897647 0
vn 0.6974858324629157 -0.16439898730535735 0.6974858324629157
vn -3.460844908334669e-16 -0.16439898730535726 0.9863939238321437
vn -0.6974858324629157 -0.16439898730535735 0.6974858324629157
vn -0.9863939238321437 -0.16439898730535724 -5.191267362502003e-16
vn -0.6974858324629156 -0.16439898730535735 -0.6974858324629158
vn 0 -0.16439898730535726 -0.9863939238321437
vn 0.6974858324629158 -0.16439898730535732 -0.6974858324629156
vn 0.9863939238321437 -0.16439898730535726 0
vn -0.2010966361003842 -0.9587076123084761 -0.20109663610038425
vn 0.2052660626755995 0.956938705992873 0.2052660626755993
vn -0.28439359012077026 -0.9587076123084761 0
vn 0.29029004973075756 0.9569387059928732 1.676014066514839e-16
vn -0.20109663610038425 -0.9587076123084761 0.2010966361003842
vn 0.20526606267559908 0.9569387059928731 -0.20526606267559916
vn 0 -0.9587076123084761 0.2843935901207703
vn 8.380070332574199e-17 0.956938705992873 -0.2902900497307577
vn 0.20109663610038414 -0.9587076123084761 0.20109663610038428
vn -0.2052660626755989 0.9569387059928731 -0.20526606267559896
vn 0.28439359012077026 -0.9587076123084762 1.2839432484380528e-16
vn -0.290290049730758 0.9569387059928731 -1.67601406651484e-16
vn 0.20109663610038434 -0.9587076123084761 -0.2010966361003843
vn -0.20526606267559921 0.956938705992873 0.20526606267559921
vn 1.2839432484380538e-16 -0.9587076123084762 -0.2843935901207705
vn -1.6760140665148387e-16 0.9569387059928731 0.2902900497307578
usemtl m_d6c93742-28cc-fb24-18be-44eb039a2552
f 4/1/1 2/2/1 1/3/1
f 3/4/2 36/5/2 35/6/2 5/7/2
f 18/8/3 19/9/3 3/10/3 5/11/3
f 6/12/4 4/13/4 1/14/4
f 5/15/5 35/16/5 42/17/5 7/18/5
f 25/19/6 18/20/6 5/21/6 7/22/6
f 8/23/7 6/24/7 1/25/7
f 7/26/8 42/27/8 41/28/8 9/29/8
f 24/30/9 25/31/9 7/32/9 9/33/9
f 10/34/10 8/35/10 1/36/10
f 9/37/11 41/38/11 40/39/11 11/40/11
f 23/41/12 24/42/12 9/43/12 11/44/12
f 12/45/13 10/46/13 1/47/13
f 11/48/14 40/49/14 39/50/14 13/51/14
f 22/52/15 23/53/15 11/54/15 13/55/15
f 14/56/16 12/57/16 1/58/16
f 13/59/17 39/60/17 38/61/17 15/62/17
f 21/63/18 22/64/18 13/65/18 15/66/18
f 16/67/19 14/68/19 1/69/19
f 15/70/20 38/71/20 37/72/20 17/73/20
f 20/74/21 21/75/21 15/76/21 17/77/21
f 2/78/22 16/79/22 1/80/22
f 17/81/23 37/82/23 36/83/23 3/84/23
f 19/85/24 20/86/24 17/87/24 3/88/24
f 29/89/25 27/90/25 30/91/25
f 30/92/26 27/93/26 31/94/26
f 31/95/27 27/96/27 32/97/27
f 32/98/28 27/99/28 33/100/28
f 33/101/29 27/102/29 34/103/29
f 34/104/30 27/105/30 26/106/30
f 26/107/31 27/108/31 28/109/31
f 28/110/32 27/111/32 29/112/32
f 26/113/33 28/114/33 25/115/33 24/116/33
f 28/117/34 29/118/34 18/119/34 25/120/34
f 29/121/35 30/122/35 19/123/35 18/124/35
f 30/125/36 31/126/36 20/127/36 19/128/36
f 31/129/37 32/130/37 21/131/37 20/132/37
f 32/133/38 33/134/38 22/135/38 21/136/38
f 33/137/39 34/138/39 23/139/39 22/140/39
f 34/141/40 26/142/40 24/143/40 23/144/40
f 66/145/41 52/146/41 51/147/41 59/148/41
f 65/149/42 53/150/42 52/151/42 66/152/42
f 64/153/43 54/154/43 53/155/43 65/156/43
f 63/157/44 55/158/44 54/159/44 64/160/44
f 62/161/45 56/162/45 55/163/45 63/164/45
f 61/165/46 57/166/46 56/167/46 62/168/46
f 60/169/47 58/170/47 57/171/47 61/172/47
f 59/173/48 51/174/48 58/175/48 60/176/48
f 4/177/49 43/178/49 44/179/49 2/180/49
f 2/181/50 44/182/50 45/183/50 16/184/50
f 16/185/51 45/186/51 46/187/51 14/188/51
f 14/189/52 46/190/52 47/191/52 12/192/52
f 12/193/53 47/194/53 48/195/53 10/196/53
f 10/197/54 48/198/54 49/199/54 8/200/54
f 8/201/55 49/202/55 50/203/55 6/204/55
f 6/205/56 50/206/56 43/207/56 4/208/56
f 51/209/57 52/210/57 44/211/57 43/212/57
f 66/213/58 59/214/58 35/215/58 36/216/58
f 58/217/59 51/218/59 43/219/59 50/220/59
f 59/221/60 60/222/60 42/223/60 35/224/60
f 57/225/61 58/226/61 50/227/61 49/228/61
f 60/229/62 61/230/62 41/231/62 42/232/62
f 56/233/63 57/234/63 49/235/63 48/236/63
f 61/237/64 62/238/64 40/239/64 41/240/64
f 55/241/65 56/242/65 48/243/65 47/244/65
f 62/245/66 63/246/66 39/247/66 40/248/66
f 54/249/67 55/250/67 47/251/67 46/252/67
f 63/253/68 64/254/68 38/255/68 39/256/68
f 53/257/69 54/258/69 46/259/69 45/260/69
f 64/261/70 65/262/70 37/263/70 38/264/70
f 52/265/71 53/266/71 45/267/71 44/268/71
f 65/269/72 66/270/72 36/271/72 37/272/72
o BucketContent
v -1.1513423959075707e-18 0.25 0
v -1.1513423959075707e-18 0.3125 0
v 0.07248737341529164 0.25 0.175
v 0.07248737341529164 0.3125 0.175
v 0.175 0.25 0.07248737341529164
v 0.175 0.3125 0.07248737341529164
v 0.175 0.25 -0.07248737341529163
v 0.175 0.3125 -0.07248737341529163
v 0.07248737341529166 0.25 -0.175
v 0.07248737341529166 0.3125 -0.175
v -0.07248737341529161 0.25 -0.175
v -0.07248737341529161 0.3125 -0.175
v -0.17499999999999993 0.25 -0.07248737341529174
v -0.17499999999999993 0.3125 -0.07248737341529174
v -0.175 0.25 0.0724873734152917
v -0.175 0.3125 0.0724873734152917
v -0.07248737341529175 0.25 0.17499999999999993
v -0.07248737341529175 0.3125 0.17499999999999993
vt 0.18749999999999956 0.8125
vt 0.18749999999999956 0.8125
vt 0.18749999999999956 0.8125
vt 0.18749999999999956 0.8125
vt 0.18749999999999956 0.8125
vt 0.18749999999999956 0.8125
vt 0.18749999999999956 0.8125
vt 0.18749999999999956 0.8125
vt 0.18749999999999956 0.8125
vt 0.18749999999999956 0.8125
vt 0.18749999999999956 0.8125
vt 0.18749999999999956 0.8125
vt 0.18749999999999956 0.8125
vt 0.18749999999999956 0.8125
vt 0.18749999999999956 0.8125
vt 0.18749999999999956 0.8125
vt 0.18749999999999956 0.8125
vt 0.18749999999999956 0.8125
vt 0.18749999999999956 0.8125
vt 0.18749999999999956 0.8125
vt 0.18749999999999956 0.8125
vt 0.18749999999999956 0.8125
vt 0.18749999999999956 0.8125
vt 0.18749999999999956 0.8125
vt 0.18749999999999956 0.8125
vt 0.18749999999999956 0.8125
vt 0.18749999999999956 0.8125
vt 0.18749999999999956 0.8125
vt 0.18749999999999956 0.8125
vt 0.18749999999999956 0.8125
vt 0.18749999999999956 0.8125
vt 0.18749999999999956 0.8125
vt 0.18749999999999956 0.8125
vt 0.18749999999999956 0.8125
vt 0.18749999999999956 0.8125
vt 0.18749999999999956 0.8125
vt 0.18749999999999956 0.8125
vt 0.18749999999999956 0.8125
vt 0.18749999999999956 0.8125
vt 0.18749999999999956 0.8125
vt 0.18749999999999956 0.8125
vt 0.18749999999999956 0.8125
vt 0.18749999999999956 0.8125
vt 0.18749999999999956 0.8125
vt 0.18749999999999956 0.8125
vt 0.18749999999999956 0.8125
vt 0.18749999999999956 0.8125
vt 0.18749999999999956 0.8125
vt 0.18749999999999956 0.8125
vt 0.18749999999999956 0.8125
vt 0.18749999999999956 0.8125
vt 0.18749999999999956 0.8125
vt 0.18749999999999956 0.8125
vt 0.18749999999999956 0.8125
vt 0.18749999999999956 0.8125
vt 0.18749999999999956 0.8125
vt 0.18749999999999956 0.8125
vt 0.18749999999999956 0.8125
vt 0.18749999999999956 0.8125
vt 0.18749999999999956 0.8125
vt 0.18749999999999956 0.8125
vt 0.18749999999999956 0.8125
vt 0.18749999999999956 0.8125
vt 0.18749999999999956 0.8125
vt 0.18749999999999956 0.8125
vt 0.18749999999999956 0.8125
vt 0.18749999999999956 0.8125
vt 0.18749999999999956 0.8125
vt 0.18749999999999956 0.8125
vt 0.18749999999999956 0.8125
vt 0.18749999999999956 0.8125
vt 0.18749999999999956 0.8125
vt 0.18749999999999956 0.8125
vt 0.18749999999999956 0.8125
vt 0.18749999999999956 0.8125
vt 0.18749999999999956 0.8125
vt 0.18749999999999956 0.8125
vt 0.18749999999999956 0.8125
vt 0.18749999999999956 0.8125
vt 0.18749999999999956 0.8125
vn 0 -1 0
vn 0.7071067811865476 0 0.7071067811865476
vn 0 1 0
vn 0 -1 0
vn 1 0 0
vn 0 1 0
vn 0 -1 0
vn 0.7071067811865477 0 -0.7071067811865475
vn 0 1 0
vn 0 -1 0
vn 0 0 -1
vn 0 1 0
vn 0 -1 0
vn -0.7071067811865474 0 -0.7071067811865478
vn 0 1 0
vn 0 -1 0
vn -1 0 -3.8290221190127554e-16
vn 0 1 0
vn 0 -1 0
vn -0.7071067811865476 0 0.7071067811865476
vn 0 1 0
vn 0 -1 0
vn -3.829022119012756e-16 0 1
vn 0 1 0
usemtl m_d6c93742-28cc-fb24-18be-44eb039a2552
f 71/273/73 69/274/73 67/275/73
f 69/276/74 71/277/74 72/278/74 70/279/74
f 70/280/75 72/281/75 68/282/75
f 73/283/76 71/284/76 67/285/76
f 71/286/77 73/287/77 74/288/77 72/289/77
f 72/290/78 74/291/78 68/292/78
f 75/293/79 73/294/79 67/295/79
f 73/296/80 75/297/80 76/298/80 74/299/80
f 74/300/81 76/301/81 68/302/81
f 77/303/82 75/304/82 67/305/82
f 75/306/83 77/307/83 78/308/83 76/309/83
f 76/310/84 78/311/84 68/312/84
f 79/313/85 77/314/85 67/315/85
f 77/316/86 79/317/86 80/318/86 78/319/86
f 78/320/87 80/321/87 68/322/87
f 81/323/88 79/324/88 67/325/88
f 79/326/89 81/327/89 82/328/89 80/329/89
f 80/330/90 82/331/90 68/332/90
f 83/333/91 81/334/91 67/335/91
f 81/336/92 83/337/92 84/338/92 82/339/92
f 82/340/93 84/341/93 68/342/93
f 69/343/94 83/344/94 67/345/94
f 83/346/95 69/347/95 70/348/95 84/349/95
f 84/350/96 70/351/96 68/352/96