# Made in Blockbench 4.8.1
mtllib WoodenCentrifuge.mtl

o Base
v 0.5 0.125 0.5
v 0.5 0.125 -0.5
v 0.5 0 0.5
v 0.5 0 -0.5
v -0.5 0.125 -0.5
v -0.5 0.125 0.5
v -0.5 0 -0.5
v -0.5 0 0.5
vt 0.8125 0.9375000000000001
vt 0.8125 0.9375000000000001
vt 0.8125 0.9375000000000001
vt 0.8125 0.9375000000000001
vt 0.8125 0.9375000000000001
vt 0.8125 0.9375000000000001
vt 0.8125 0.9375000000000001
vt 0.8125 0.9375000000000001
vt 0.8125 0.9375000000000001
vt 0.8125 0.9375000000000001
vt 0.8125 0.9375000000000001
vt 0.8125 0.9375000000000001
vt 0.8125 0.9375000000000001
vt 0.8125 0.9375000000000001
vt 0.8125 0.9375000000000001
vt 0.8125 0.9375000000000001
vt 0.8125 0.9375000000000001
vt 0.8125 0.9375000000000001
vt 0.8125 0.9375000000000001
vt 0.8125 0.9375000000000001
vt 0.8125 0.9375000000000001
vt 0.8125 0.9375000000000001
vt 0.8125 0.9375000000000001
vt 0.8125 0.9375000000000001
vn 0 0 -1
vn 1 0 0
vn 0 0 1
vn -1 0 0
vn 0 1 0
vn 0 -1 0
usemtl m_bf3d503d-6e6c-856f-d9f0-c18bf06c456f
f 4/4/1 7/3/1 5/2/1 2/1/1
f 3/8/2 4/7/2 2/6/2 1/5/2
f 8/12/3 3/11/3 1/10/3 6/9/3
f 7/16/4 8/15/4 6/14/4 5/13/4
f 6/20/5 1/19/5 2/18/5 5/17/5
f 7/24/6 4/23/6 3/22/6 8/21/6
o cube
v 0.375 0.875 0.375
v 0.375 0.875 -0.375
v 0.375 0.125 0.375
v 0.375 0.125 -0.375
v -0.375 0.875 0.375
v -0.375 0.875 -0.375
v -0.375 0.125 0.375
v -0.375 0.125 -0.375
v 0.3125 0.875 -0.3125
v -0.3125 0.875 -0.3125
v 0.3125 0.875 0.3125
v -0.3125 0.875 0.3125
v 0.3125 0.1875 -0.3125
v -0.3125 0.1875 -0.3125
v 0.3125 0.1875 0.3125
v -0.3125 0.1875 0.3125
vt 0.8124999999999998 0.5874999999999999
vt 0.8124999999999998 0.5874999999999999
vt 0.8124999999999998 0.5874999999999999
vt 0.8124999999999998 0.5874999999999999
vt 0.8124999999999998 0.5874999999999999
vt 0.8124999999999998 0.5874999999999999
vt 0.8124999999999998 0.5874999999999999
vt 0.8124999999999998 0.5874999999999999
vt 0.8124999999999998 0.5874999999999999
vt 0.8124999999999998 0.5874999999999999
vt 0.8124999999999998 0.5874999999999999
vt 0.8124999999999998 0.5874999999999999
vt 0.8124999999999998 0.5874999999999999
vt 0.8124999999999998 0.5874999999999999
vt 0.8124999999999998 0.5874999999999999
vt 0.8124999999999998 0.5874999999999999
vt 0.8124999999999998 0.5874999999999999
vt 0.8124999999999998 0.5874999999999999
vt 0.8124999999999998 0.5874999999999999
vt 0.8124999999999998 0.5874999999999999
vt 0.8124999999999998 0.5874999999999999
vt 0.8124999999999998 0.5874999999999999
vt 0.8124999999999998 0.5874999999999999
vt 0.8124999999999998 0.5874999999999999
vt 0.8124999999999998 0.5249999999999999
vt 0.8124999999999998 0.5249999999999999
vt 0.8124999999999998 0.5249999999999999
vt 0.8124999999999998 0.5249999999999999
vt 0.8124999999999998 0.5874999999999999
vt 0.8124999999999998 0.5874999999999999
vt 0.8124999999999998 0.5874999999999999
vt 0.8124999999999998 0.5874999999999999
vt 0.8124999999999998 0.5249999999999999
vt 0.8124999999999998 0.5249999999999999
vt 0.8124999999999998 0.5249999999999999
vt 0.8124999999999998 0.5249999999999999
vt 0.8124999999999998 0.5874999999999999
vt 0.8124999999999998 0.5874999999999999
vt 0.8124999999999998 0.5874999999999999
vt 0.8124999999999998 0.5874999999999999
vt 0.8124999999999998 0.5249999999999999
vt 0.8124999999999998 0.5249999999999999
vt 0.8124999999999998 0.5249999999999999
vt 0.8124999999999998 0.5249999999999999
vt 0.8124999999999998 0.5874999999999999
vt 0.8124999999999998 0.5874999999999999
vt 0.8124999999999998 0.5874999999999999
vt 0.8124999999999998 0.5874999999999999
vt 0.8124999999999998 0.5249999999999999
vt 0.8124999999999998 0.5249999999999999
vt 0.8124999999999998 0.5249999999999999
vt 0.8124999999999998 0.5249999999999999
vt 0.8124999999999998 0.5874999999999999
vt 0.8124999999999998 0.5874999999999999
vt 0.8124999999999998 0.5874999999999999
vt 0.8124999999999998 0.5874999999999999
vn 1 0 0
vn -1 0 0
vn 0 1 0
vn 0 -1 0
vn 0 0 1
vn 0 0 -1
vn 0 1 0
vn 0 1 0
vn 0 1 0
vn 0 1 0
vn -1 0 0
vn 0 0 1
vn 1 0 0
vn 0 0 -1
usemtl m_bf3d503d-6e6c-856f-d9f0-c18bf06c456f
f 12/25/7 10/26/7 9/27/7 11/28/7
f 15/29/8 13/30/8 14/31/8 16/32/8
f 23/33/9 21/34/9 22/35/9 24/36/9
f 12/37/10 11/38/10 15/39/10 16/40/10
f 11/41/11 9/42/11 13/43/11 15/44/11
f 16/45/12 14/46/12 10/47/12 12/48/12
f 17/49/13 19/50/13 9/51/13 10/52/13
f 18/53/14 17/54/14 10/55/14 14/56/14
f 20/57/15 18/58/15 14/59/15 13/60/15
f 19/61/16 20/62/16 13/63/16 9/64/16
f 21/65/17 23/66/17 19/67/17 17/68/17
f 22/69/18 21/70/18 17/71/18 18/72/18
f 24/73/19 22/74/19 18/75/19 20/76/19
f 23/77/20 24/78/20 20/79/20 19/80/20
o cube
v 0.4375 0.5625 0.4375
v 0.4375 0.5625 -0.4375
v 0.4375 0.4375 0.4375
v 0.4375 0.4375 -0.4375
v 0.375 0.5625 -0.4375
v 0.375 0.5625 0.4375
v 0.375 0.4375 -0.4375
v 0.375 0.4375 0.4375
vt 0.9374999999999998 0.5625
vt 0.9374999999999998 0.5625
vt 0.9374999999999998 0.5625
vt 0.9374999999999998 0.5625
vt 0.9374999999999998 0.5625
vt 0.9374999999999998 0.5625
vt 0.9374999999999998 0.5625
vt 0.9374999999999998 0.5625
vt 0.9374999999999998 0.5625
vt 0.9374999999999998 0.5625
vt 0.9374999999999998 0.5625
vt 0.9374999999999998 0.5625
vt 0.9374999999999998 0.5625
vt 0.9374999999999998 0.5625
vt 0.9374999999999998 0.5625
vt 0.9374999999999998 0.5625
vt 0.9374999999999998 0.5625
vt 0.9374999999999998 0.5625
vt 0.9374999999999998 0.5625
vt 0.9374999999999998 0.5625
vt 0.9374999999999998 0.5625
vt 0.9374999999999998 0.5625
vt 0.9374999999999998 0.5625
vt 0.9374999999999998 0.5625
vn 0 0 -1
vn 1 0 0
vn 0 0 1
vn -1 0 0
vn 0 1 0
vn 0 -1 0
usemtl m_bf3d503d-6e6c-856f-d9f0-c18bf06c456f
f 28/84/21 31/83/21 29/82/21 26/81/21
f 27/88/22 28/87/22 26/86/22 25/85/22
f 32/92/23 27/91/23 25/90/23 30/89/23
f 31/96/24 32/95/24 30/94/24 29/93/24
f 30/100/25 25/99/25 26/98/25 29/97/25
f 31/104/26 28/103/26 27/102/26 32/101/26
o cube
v 0.4375 0.8125 0.4375
v 0.4375 0.8125 -0.4375
v 0.4375 0.6875 0.4375
v 0.4375 0.6875 -0.4375
v 0.375 0.8125 -0.4375
v 0.375 0.8125 0.4375
v 0.375 0.6875 -0.4375
v 0.375 0.6875 0.4375
vt 0.9374999999999998 0.5625
vt 0.9374999999999998 0.5625
vt 0.9374999999999998 0.5625
vt 0.9374999999999998 0.5625
vt 0.9374999999999998 0.5625
vt 0.9374999999999998 0.5625
vt 0.9374999999999998 0.5625
vt 0.9374999999999998 0.5625
vt 0.9374999999999998 0.5625
vt 0.9374999999999998 0.5625
vt 0.9374999999999998 0.5625
vt 0.9374999999999998 0.5625
vt 0.9374999999999998 0.5625
vt 0.9374999999999998 0.5625
vt 0.9374999999999998 0.5625
vt 0.9374999999999998 0.5625
vt 0.9374999999999998 0.5625
vt 0.9374999999999998 0.5625
vt 0.9374999999999998 0.5625
vt 0.9374999999999998 0.5625
vt 0.9374999999999998 0.5625
vt 0.9374999999999998 0.5625
vt 0.9374999999999998 0.5625
vt 0.9374999999999998 0.5625
vn 0 0 -1
vn 1 0 0
vn 0 0 1
vn -1 0 0
vn 0 1 0
vn 0 -1 0
usemtl m_bf3d503d-6e6c-856f-d9f0-c18bf06c456f
f 36/108/27 39/107/27 37/106/27 34/105/27
f 35/112/28 36/111/28 34/110/28 33/109/28
f 40/116/29 35/115/29 33/114/29 38/113/29
f 39/120/30 40/119/30 38/118/30 37/117/30
f 38/124/31 33/123/31 34/122/31 37/121/31
f 39/128/32 36/127/32 35/126/32 40/125/32
o cube
v 0.4375 0.3125 0.4375
v 0.4375 0.3125 -0.4375
v 0.4375 0.1875 0.4375
v 0.4375 0.1875 -0.4375
v 0.375 0.3125 -0.4375
v 0.375 0.3125 0.4375
v 0.375 0.1875 -0.4375
v 0.375 0.1875 0.4375
vt 0.9374999999999998 0.5625
vt 0.9374999999999998 0.5625
vt 0.9374999999999998 0.5625
vt 0.9374999999999998 0.5625
vt 0.9374999999999998 0.5625
vt 0.9374999999999998 0.5625
vt 0.9374999999999998 0.5625
vt 0.9374999999999998 0.5625
vt 0.9374999999999998 0.5625
vt 0.9374999999999998 0.5625
vt 0.9374999999999998 0.5625
vt 0.9374999999999998 0.5625
vt 0.9374999999999998 0.5625
vt 0.9374999999999998 0.5625
vt 0.9374999999999998 0.5625
vt 0.9374999999999998 0.5625
vt 0.9374999999999998 0.5625
vt 0.9374999999999998 0.5625
vt 0.9374999999999998 0.5625
vt 0.9374999999999998 0.5625
vt 0.9374999999999998 0.5625
vt 0.9374999999999998 0.5625
vt 0.9374999999999998 0.5625
vt 0.9374999999999998 0.5625
vn 0 0 -1
vn 1 0 0
vn 0 0 1
vn -1 0 0
vn 0 1 0
vn 0 -1 0
usemtl m_bf3d503d-6e6c-856f-d9f0-c18bf06c456f
f 44/132/33 47/131/33 45/130/33 42/129/33
f 43/136/34 44/135/34 42/134/34 41/133/34
f 48/140/35 43/139/35 41/138/35 46/137/35
f 47/144/36 48/143/36 46/142/36 45/141/36
f 46/148/37 41/147/37 42/146/37 45/145/37
f 47/152/38 44/151/38 43/150/38 48/149/38
o cube
v -0.375 0.3125 0.4375
v -0.375 0.3125 -0.4375
v -0.375 0.1875 0.4375
v -0.375 0.1875 -0.4375
v -0.4375 0.3125 -0.4375
v -0.4375 0.3125 0.4375
v -0.4375 0.1875 -0.4375
v -0.4375 0.1875 0.4375
vt 0.9374999999999998 0.5625
vt 0.9374999999999998 0.5625
vt 0.9374999999999998 0.5625
vt 0.9374999999999998 0.5625
vt 0.9374999999999998 0.5625
vt 0.9374999999999998 0.5625
vt 0.9374999999999998 0.5625
vt 0.9374999999999998 0.5625
vt 0.9374999999999998 0.5625
vt 0.9374999999999998 0.5625
vt 0.9374999999999998 0.5625
vt 0.9374999999999998 0.5625
vt 0.9374999999999998 0.5625
vt 0.9374999999999998 0.5625
vt 0.9374999999999998 0.5625
vt 0.9374999999999998 0.5625
vt 0.9374999999999998 0.5625
vt 0.9374999999999998 0.5625
vt 0.9374999999999998 0.5625
vt 0.9374999999999998 0.5625
vt 0.9374999999999998 0.5625
vt 0.9374999999999998 0.5625
vt 0.9374999999999998 0.5625
vt 0.9374999999999998 0.5625
vn 0 0 -1
vn 1 0 0
vn 0 0 1
vn -1 0 0
vn 0 1 0
vn 0 -1 0
usemtl m_bf3d503d-6e6c-856f-d9f0-c18bf06c456f
f 52/156/39 55/155/39 53/154/39 50/153/39
f 51/160/40 52/159/40 50/158/40 49/157/40
f 56/164/41 51/163/41 49/162/41 54/161/41
f 55/168/42 56/167/42 54/166/42 53/165/42
f 54/172/43 49/171/43 50/170/43 53/169/43
f 55/176/44 52/175/44 51/174/44 56/173/44
o cube
v -0.375 0.5625 0.4375
v -0.375 0.5625 -0.4375
v -0.375 0.4375 0.4375
v -0.375 0.4375 -0.4375
v -0.4375 0.5625 -0.4375
v -0.4375 0.5625 0.4375
v -0.4375 0.4375 -0.4375
v -0.4375 0.4375 0.4375
vt 0.9374999999999998 0.5625
vt 0.9374999999999998 0.5625
vt 0.9374999999999998 0.5625
vt 0.9374999999999998 0.5625
vt 0.9374999999999998 0.5625
vt 0.9374999999999998 0.5625
vt 0.9374999999999998 0.5625
vt 0.9374999999999998 0.5625
vt 0.9374999999999998 0.5625
vt 0.9374999999999998 0.5625
vt 0.9374999999999998 0.5625
vt 0.9374999999999998 0.5625
vt 0.9374999999999998 0.5625
vt 0.9374999999999998 0.5625
vt 0.9374999999999998 0.5625
vt 0.9374999999999998 0.5625
vt 0.9374999999999998 0.5625
vt 0.9374999999999998 0.5625
vt 0.9374999999999998 0.5625
vt 0.9374999999999998 0.5625
vt 0.9374999999999998 0.5625
vt 0.9374999999999998 0.5625
vt 0.9374999999999998 0.5625
vt 0.9374999999999998 0.5625
vn 0 0 -1
vn 1 0 0
vn 0 0 1
vn -1 0 0
vn 0 1 0
vn 0 -1 0
usemtl m_bf3d503d-6e6c-856f-d9f0-c18bf06c456f
f 60/180/45 63/179/45 61/178/45 58/177/45
f 59/184/46 60/183/46 58/182/46 57/181/46
f 64/188/47 59/187/47 57/186/47 62/185/47
f 63/192/48 64/191/48 62/190/48 61/189/48
f 62/196/49 57/195/49 58/194/49 61/193/49
f 63/200/50 60/199/50 59/198/50 64/197/50
o cube
v -0.375 0.8125 0.4375
v -0.375 0.8125 -0.4375
v -0.375 0.6875 0.4375
v -0.375 0.6875 -0.4375
v -0.4375 0.8125 -0.4375
v -0.4375 0.8125 0.4375
v -0.4375 0.6875 -0.4375
v -0.4375 0.6875 0.4375
vt 0.9374999999999998 0.5625
vt 0.9374999999999998 0.5625
vt 0.9374999999999998 0.5625
vt 0.9374999999999998 0.5625
vt 0.9374999999999998 0.5625
vt 0.9374999999999998 0.5625
vt 0.9374999999999998 0.5625
vt 0.9374999999999998 0.5625
vt 0.9374999999999998 0.5625
vt 0.9374999999999998 0.5625
vt 0.9374999999999998 0.5625
vt 0.9374999999999998 0.5625
vt 0.9374999999999998 0.5625
vt 0.9374999999999998 0.5625
vt 0.9374999999999998 0.5625
vt 0.9374999999999998 0.5625
vt 0.9374999999999998 0.5625
vt 0.9374999999999998 0.5625
vt 0.9374999999999998 0.5625
vt 0.9374999999999998 0.5625
vt 0.9374999999999998 0.5625
vt 0.9374999999999998 0.5625
vt 0.9374999999999998 0.5625
vt 0.9374999999999998 0.5625
vn 0 0 -1
vn 1 0 0
vn 0 0 1
vn -1 0 0
vn 0 1 0
vn 0 -1 0
usemtl m_bf3d503d-6e6c-856f-d9f0-c18bf06c456f
f 68/204/51 71/203/51 69/202/51 66/201/51
f 67/208/52 68/207/52 66/206/52 65/205/52
f 72/212/53 67/211/53 65/210/53 70/209/53
f 71/216/54 72/215/54 70/214/54 69/213/54
f 70/220/55 65/219/55 66/218/55 69/217/55
f 71/224/56 68/223/56 67/222/56 72/221/56
o cube
v 0.3750000000000001 0.3125 -0.4374999999999999
v -0.3749999999999999 0.3125 -0.4375000000000001
v 0.3750000000000001 0.1875 -0.4374999999999999
v -0.3749999999999999 0.1875 -0.4375000000000001
v -0.3749999999999999 0.3125 -0.3750000000000001
v 0.3750000000000001 0.3125 -0.3749999999999999
v -0.3749999999999999 0.1875 -0.3750000000000001
v 0.3750000000000001 0.1875 -0.3749999999999999
vt 0.9374999999999998 0.5625
vt 0.9374999999999998 0.5625
vt 0.9374999999999998 0.5625
vt 0.9374999999999998 0.5625
vt 0.9374999999999998 0.5625
vt 0.9374999999999998 0.5625
vt 0.9374999999999998 0.5625
vt 0.9374999999999998 0.5625
vt 0.9374999999999998 0.5625
vt 0.9374999999999998 0.5625
vt 0.9374999999999998 0.5625
vt 0.9374999999999998 0.5625
vt 0.9374999999999998 0.5625
vt 0.9374999999999998 0.5625
vt 0.9374999999999998 0.5625
vt 0.9374999999999998 0.5625
vt 0.9374999999999998 0.5625
vt 0.9374999999999998 0.5625
vt 0.9374999999999998 0.5625
vt 0.9374999999999998 0.5625
vt 0.9374999999999998 0.5625
vt 0.9374999999999998 0.5625
vt 0.9374999999999998 0.5625
vt 0.9374999999999998 0.5625
vn -1 0 -2.220446049250313e-16
vn 2.220446049250313e-16 0 -1
vn 1 0 2.220446049250313e-16
vn -2.220446049250313e-16 0 1
vn 0 1 0
vn 0 -1 0
usemtl m_bf3d503d-6e6c-856f-d9f0-c18bf06c456f
f 76/228/57 79/227/57 77/226/57 74/225/57
f 75/232/58 76/231/58 74/230/58 73/229/58
f 80/236/59 75/235/59 73/234/59 78/233/59
f 79/240/60 80/239/60 78/238/60 77/237/60
f 78/244/61 73/243/61 74/242/61 77/241/61
f 79/248/62 76/247/62 75/246/62 80/245/62
o cube
v 0.3750000000000001 0.5625 -0.4374999999999999
v -0.3749999999999999 0.5625 -0.4375000000000001
v 0.3750000000000001 0.4375 -0.4374999999999999
v -0.3749999999999999 0.4375 -0.4375000000000001
v -0.3749999999999999 0.5625 -0.3750000000000001
v 0.3750000000000001 0.5625 -0.3749999999999999
v -0.3749999999999999 0.4375 -0.3750000000000001
v 0.3750000000000001 0.4375 -0.3749999999999999
vt 0.9374999999999998 0.5625
vt 0.9374999999999998 0.5625
vt 0.9374999999999998 0.5625
vt 0.9374999999999998 0.5625
vt 0.9374999999999998 0.5625
vt 0.9374999999999998 0.5625
vt 0.9374999999999998 0.5625
vt 0.9374999999999998 0.5625
vt 0.9374999999999998 0.5625
vt 0.9374999999999998 0.5625
vt 0.9374999999999998 0.5625
vt 0.9374999999999998 0.5625
vt 0.9374999999999998 0.5625
vt 0.9374999999999998 0.5625
vt 0.9374999999999998 0.5625
vt 0.9374999999999998 0.5625
vt 0.9374999999999998 0.5625
vt 0.9374999999999998 0.5625
vt 0.9374999999999998 0.5625
vt 0.9374999999999998 0.5625
vt 0.9374999999999998 0.5625
vt 0.9374999999999998 0.5625
vt 0.9374999999999998 0.5625
vt 0.9374999999999998 0.5625
vn -1 0 -2.220446049250313e-16
vn 2.220446049250313e-16 0 -1
vn 1 0 2.220446049250313e-16
vn -2.220446049250313e-16 0 1
vn 0 1 0
vn 0 -1 0
usemtl m_bf3d503d-6e6c-856f-d9f0-c18bf06c456f
f 84/252/63 87/251/63 85/250/63 82/249/63
f 83/256/64 84/255/64 82/254/64 81/253/64
f 88/260/65 83/259/65 81/258/65 86/257/65
f 87/264/66 88/263/66 86/262/66 85/261/66
f 86/268/67 81/267/67 82/266/67 85/265/67
f 87/272/68 84/271/68 83/270/68 88/269/68
o cube
v 0.3750000000000001 0.8125 -0.4374999999999999
v -0.3749999999999999 0.8125 -0.4375000000000001
v 0.3750000000000001 0.6875 -0.4374999999999999
v -0.3749999999999999 0.6875 -0.4375000000000001
v -0.3749999999999999 0.8125 -0.3750000000000001
v 0.3750000000000001 0.8125 -0.3749999999999999
v -0.3749999999999999 0.6875 -0.3750000000000001
v 0.3750000000000001 0.6875 -0.3749999999999999
vt 0.9374999999999998 0.5625
vt 0.9374999999999998 0.5625
vt 0.9374999999999998 0.5625
vt 0.9374999999999998 0.5625
vt 0.9374999999999998 0.5625
vt 0.9374999999999998 0.5625
vt 0.9374999999999998 0.5625
vt 0.9374999999999998 0.5625
vt 0.9374999999999998 0.5625
vt 0.9374999999999998 0.5625
vt 0.9374999999999998 0.5625
vt 0.9374999999999998 0.5625
vt 0.9374999999999998 0.5625
vt 0.9374999999999998 0.5625
vt 0.9374999999999998 0.5625
vt 0.9374999999999998 0.5625
vt 0.9374999999999998 0.5625
vt 0.9374999999999998 0.5625
vt 0.9374999999999998 0.5625
vt 0.9374999999999998 0.5625
vt 0.9374999999999998 0.5625
vt 0.9374999999999998 0.5625
vt 0.9374999999999998 0.5625
vt 0.9374999999999998 0.5625
vn -1 0 -2.220446049250313e-16
vn 2.220446049250313e-16 0 -1
vn 1 0 2.220446049250313e-16
vn -2.220446049250313e-16 0 1
vn 0 1 0
vn 0 -1 0
usemtl m_bf3d503d-6e6c-856f-d9f0-c18bf06c456f
f 92/276/69 95/275/69 93/274/69 90/273/69
f 91/280/70 92/279/70 90/278/70 89/277/70
f 96/284/71 91/283/71 89/282/71 94/281/71
f 95/288/72 96/287/72 94/286/72 93/285/72
f 94/292/73 89/291/73 90/290/73 93/289/73
f 95/296/74 92/295/74 91/294/74 96/293/74
o cube
v 0.3749999999999999 0.3125 0.3750000000000001
v -0.3750000000000001 0.3125 0.3749999999999999
v 0.3749999999999999 0.1875 0.3750000000000001
v -0.3750000000000001 0.1875 0.3749999999999999
v -0.3750000000000001 0.3125 0.4374999999999999
v 0.3749999999999999 0.3125 0.4375000000000001
v -0.3750000000000001 0.1875 0.4374999999999999
v 0.3749999999999999 0.1875 0.4375000000000001
vt 0.9374999999999998 0.5625
vt 0.9374999999999998 0.5625
vt 0.9374999999999998 0.5625
vt 0.9374999999999998 0.5625
vt 0.9374999999999998 0.5625
vt 0.9374999999999998 0.5625
vt 0.9374999999999998 0.5625
vt 0.9374999999999998 0.5625
vt 0.9374999999999998 0.5625
vt 0.9374999999999998 0.5625
vt 0.9374999999999998 0.5625
vt 0.9374999999999998 0.5625
vt 0.9374999999999998 0.5625
vt 0.9374999999999998 0.5625
vt 0.9374999999999998 0.5625
vt 0.9374999999999998 0.5625
vt 0.9374999999999998 0.5625
vt 0.9374999999999998 0.5625
vt 0.9374999999999998 0.5625
vt 0.9374999999999998 0.5625
vt 0.9374999999999998 0.5625
vt 0.9374999999999998 0.5625
vt 0.9374999999999998 0.5625
vt 0.9374999999999998 0.5625
vn -1 0 -2.220446049250313e-16
vn 2.220446049250313e-16 0 -1
vn 1 0 2.220446049250313e-16
vn -2.220446049250313e-16 0 1
vn 0 1 0
vn 0 -1 0
usemtl m_bf3d503d-6e6c-856f-d9f0-c18bf06c456f
f 100/300/75 103/299/75 101/298/75 98/297/75
f 99/304/76 100/303/76 98/302/76 97/301/76
f 104/308/77 99/307/77 97/306/77 102/305/77
f 103/312/78 104/311/78 102/310/78 101/309/78
f 102/316/79 97/315/79 98/314/79 101/313/79
f 103/320/80 100/319/80 99/318/80 104/317/80
o cube
v 0.3749999999999999 0.5625 0.3750000000000001
v -0.3750000000000001 0.5625 0.3749999999999999
v 0.3749999999999999 0.4375 0.3750000000000001
v -0.3750000000000001 0.4375 0.3749999999999999
v -0.3750000000000001 0.5625 0.4374999999999999
v 0.3749999999999999 0.5625 0.4375000000000001
v -0.3750000000000001 0.4375 0.4374999999999999
v 0.3749999999999999 0.4375 0.4375000000000001
vt 0.9374999999999998 0.5625
vt 0.9374999999999998 0.5625
vt 0.9374999999999998 0.5625
vt 0.9374999999999998 0.5625
vt 0.9374999999999998 0.5625
vt 0.9374999999999998 0.5625
vt 0.9374999999999998 0.5625
vt 0.9374999999999998 0.5625
vt 0.9374999999999998 0.5625
vt 0.9374999999999998 0.5625
vt 0.9374999999999998 0.5625
vt 0.9374999999999998 0.5625
vt 0.9374999999999998 0.5625
vt 0.9374999999999998 0.5625
vt 0.9374999999999998 0.5625
vt 0.9374999999999998 0.5625
vt 0.9374999999999998 0.5625
vt 0.9374999999999998 0.5625
vt 0.9374999999999998 0.5625
vt 0.9374999999999998 0.5625
vt 0.9374999999999998 0.5625
vt 0.9374999999999998 0.5625
vt 0.9374999999999998 0.5625
vt 0.9374999999999998 0.5625
vn -1 0 -2.220446049250313e-16
vn 2.220446049250313e-16 0 -1
vn 1 0 2.220446049250313e-16
vn -2.220446049250313e-16 0 1
vn 0 1 0
vn 0 -1 0
usemtl m_bf3d503d-6e6c-856f-d9f0-c18bf06c456f
f 108/324/81 111/323/81 109/322/81 106/321/81
f 107/328/82 108/327/82 106/326/82 105/325/82
f 112/332/83 107/331/83 105/330/83 110/329/83
f 111/336/84 112/335/84 110/334/84 109/333/84
f 110/340/85 105/339/85 106/338/85 109/337/85
f 111/344/86 108/343/86 107/342/86 112/341/86
o cube
v 0.3749999999999999 0.8125 0.3750000000000001
v -0.3750000000000001 0.8125 0.3749999999999999
v 0.3749999999999999 0.6875 0.3750000000000001
v -0.3750000000000001 0.6875 0.3749999999999999
v -0.3750000000000001 0.8125 0.4374999999999999
v 0.3749999999999999 0.8125 0.4375000000000001
v -0.3750000000000001 0.6875 0.4374999999999999
v 0.3749999999999999 0.6875 0.4375000000000001
vt 0.9374999999999998 0.5625
vt 0.9374999999999998 0.5625
vt 0.9374999999999998 0.5625
vt 0.9374999999999998 0.5625
vt 0.9374999999999998 0.5625
vt 0.9374999999999998 0.5625
vt 0.9374999999999998 0.5625
vt 0.9374999999999998 0.5625
vt 0.9374999999999998 0.5625
vt 0.9374999999999998 0.5625
vt 0.9374999999999998 0.5625
vt 0.9374999999999998 0.5625
vt 0.9374999999999998 0.5625
vt 0.9374999999999998 0.5625
vt 0.9374999999999998 0.5625
vt 0.9374999999999998 0.5625
vt 0.9374999999999998 0.5625
vt 0.9374999999999998 0.5625
vt 0.9374999999999998 0.5625
vt 0.9374999999999998 0.5625
vt 0.9374999999999998 0.5625
vt 0.9374999999999998 0.5625
vt 0.9374999999999998 0.5625
vt 0.9374999999999998 0.5625
vn -1 0 -2.220446049250313e-16
vn 2.220446049250313e-16 0 -1
vn 1 0 2.220446049250313e-16
vn -2.220446049250313e-16 0 1
vn 0 1 0
vn 0 -1 0
usemtl m_bf3d503d-6e6c-856f-d9f0-c18bf06c456f
f 116/348/87 119/347/87 117/346/87 114/345/87
f 115/352/88 116/351/88 114/350/88 113/349/88
f 120/356/89 115/355/89 113/354/89 118/353/89
f 119/360/90 120/359/90 118/358/90 117/357/90
f 118/364/91 113/363/91 114/362/91 117/361/91
f 119/368/92 116/367/92 115/366/92 120/365/92
o Connection
v 0.125 1 0.125
v 0.125 1 -0.125
v 0.125 0.1875 0.125
v 0.125 0.1875 -0.125
v -0.125 1 -0.125
v -0.125 1 0.125
v -0.125 0.1875 -0.125
v -0.125 0.1875 0.125
vt 0.9125 0.5625
vt 0.9125 0.5625
vt 0.9125 0.5625
vt 0.9125 0.5625
vt 0.9125 0.5625
vt 0.9125 0.5625
vt 0.9125 0.5625
vt 0.9125 0.5625
vt 0.9125 0.5625
vt 0.9125 0.5625
vt 0.9125 0.5625
vt 0.9125 0.5625
vt 0.9125 0.5625
vt 0.9125 0.5625
vt 0.9125 0.5625
vt 0.9125 0.5625
vt 0.9125 0.5625
vt 0.9125 0.5625
vt 0.9125 0.5625
vt 0.9125 0.5625
vt 0.9125 0.5625
vt 0.9125 0.5625
vt 0.9125 0.5625
vt 0.9125 0.5625
vn 0 0 -1
vn 1 0 0
vn 0 0 1
vn -1 0 0
vn 0 1 0
vn 0 -1 0
usemtl m_bf3d503d-6e6c-856f-d9f0-c18bf06c456f
f 124/372/93 127/371/93 125/370/93 122/369/93
f 123/376/94 124/375/94 122/374/94 121/373/94
f 128/380/95 123/379/95 121/378/95 126/377/95
f 127/384/96 128/383/96 126/382/96 125/381/96
f 126/388/97 121/387/97 122/386/97 125/385/97
f 127/392/98 124/391/98 123/390/98 128/389/98
o Content
v 0.3125 0.8125 0.3125
v 0.3125 0.8125 -0.3125
v 0.3125 0.75 0.3125
v 0.3125 0.75 -0.3125
v -0.3125 0.8125 -0.3125
v -0.3125 0.8125 0.3125
v -0.3125 0.75 -0.3125
v -0.3125 0.75 0.3125
vt 0.2875 0.8125
vt 0.2875 0.8125
vt 0.2875 0.8125
vt 0.2875 0.8125
vt 0.2875 0.8125
vt 0.2875 0.8125
vt 0.2875 0.8125
vt 0.2875 0.8125
vt 0.2875 0.8125
vt 0.2875 0.8125
vt 0.2875 0.8125
vt 0.2875 0.8125
vt 0.2875 0.8125
vt 0.2875 0.8125
vt 0.2875 0.8125
vt 0.2875 0.8125
vt 0.2875 0.8125
vt 0.2875 0.8125
vt 0.2875 0.8125
vt 0.2875 0.8125
vt 0.2875 0.8125
vt 0.2875 0.8125
vt 0.2875 0.8125
vt 0.2875 0.8125
vn 0 0 -1
vn 1 0 0
vn 0 0 1
vn -1 0 0
vn 0 1 0
vn 0 -1 0
usemtl m_bf3d503d-6e6c-856f-d9f0-c18bf06c456f
f 132/396/99 135/395/99 133/394/99 130/393/99
f 131/400/100 132/399/100 130/398/100 129/397/100
f 136/404/101 131/403/101 129/402/101 134/401/101
f 135/408/102 136/407/102 134/406/102 133/405/102
f 134/412/103 129/411/103 130/410/103 133/409/103
f 135/416/104 132/415/104 131/414/104 136/413/104