# Made in Blockbench 4.7.4
mtllib WoodAxe.mtl

o cube
v 0.06249999999999978 0.0625 -0.3125
v 0.06249999999999989 0.0625 0.3125
v 0.06249999999999978 0 -0.3125
v 0.06249999999999989 0 0.3125
v 0.12499999999999989 0.0625 0.3125
v 0.12499999999999978 0.0625 -0.3125
v 0.12499999999999989 0 0.3125
v 0.12499999999999978 0 -0.3125
vt 0.875 0.625
vt 0.9375 0.625
vt 0.9375 0.5625
vt 0.875 0.5625
vt 0.875 0.625
vt 1 0.625
vt 1 0.5625
vt 0.875 0.5625
vt 0.875 0.625
vt 0.9375 0.625
vt 0.9375 0.5625
vt 0.875 0.5625
vt 0.875 0.625
vt 1 0.625
vt 1 0.5625
vt 0.875 0.5625
vt 0.875 0.625
vt 0.9375 0.625
vt 0.9375 0.5
vt 0.875 0.5
vt 0.875 0.625
vt 0.9375 0.625
vt 0.9375 0.5
vt 0.875 0.5
vn 1.2246467991473532e-16 0 1
vn -1 0 1.2246467991473532e-16
vn -1.2246467991473532e-16 0 -1
vn 1 0 -1.2246467991473532e-16
vn 0 1 0
vn 0 -1 0
usemtl m_06971b39-addd-3d86-66fb-531f8c78eed0
f 4/4/1 7/3/1 5/2/1 2/1/1
f 3/8/2 4/7/2 2/6/2 1/5/2
f 8/12/3 3/11/3 1/10/3 6/9/3
f 7/16/4 8/15/4 6/14/4 5/13/4
f 6/20/5 1/19/5 2/18/5 5/17/5
f 7/24/6 4/23/6 3/22/6 8/21/6
o cube
v 0.03125 0.078125 0.15625
v 0.03125 0.078125 0.28125
v 0.03125 -0.015625 0.15625
v 0.03125 -0.015625 0.28125
v 0.15625 0.078125 0.28125
v 0.15625 0.078125 0.15625
v 0.15625 -0.015625 0.28125
v 0.15625 -0.015625 0.15625
vt 0.375 1
vt 0.5 1
vt 0.5 0.90625
vt 0.375 0.90625
vt 0.375 1
vt 0.5 1
vt 0.5 0.90625
vt 0.375 0.90625
vt 0.375 1
vt 0.5 1
vt 0.5 0.90625
vt 0.375 0.90625
vt 0.375 1
vt 0.5 1
vt 0.5 0.90625
vt 0.375 0.90625
vt 0.375 1
vt 0.5 1
vt 0.5 0.875
vt 0.375 0.875
vt 0.375 1
vt 0.5 1
vt 0.5 0.875
vt 0.375 0.875
vn 1.2246467991473532e-16 0 1
vn -1 0 1.2246467991473532e-16
vn -1.2246467991473532e-16 0 -1
vn 1 0 -1.2246467991473532e-16
vn 0 1 0
vn 0 -1 0
usemtl m_06971b39-addd-3d86-66fb-531f8c78eed0
f 12/28/7 15/27/7 13/26/7 10/25/7
f 11/32/8 12/31/8 10/30/8 9/29/8
f 16/36/9 11/35/9 9/34/9 14/33/9
f 15/40/10 16/39/10 14/38/10 13/37/10
f 14/44/11 9/43/11 10/42/11 13/41/11
f 15/48/12 12/47/12 11/46/12 16/45/12
o cube
v 0.0625 0.046875 0.3125
v 0.0625 0.046875 0.125
v 0.0625 0.015625 0.3125
v 0.0625 0.015625 0.125
v -0.125 0.046875 0.375
v -0.125 0.046875 0.0625
v -0.125 0.015625 0.375
v -0.125 0.015625 0.0625
vt 0.8125 0.6145833333333334
vt 0.8125 0.625
vt 0.75 0.625
vt 0.75 0.6145833333333334
vt 0.8125 0.6145833333333334
vt 0.8125 0.625
vt 0.75 0.625
vt 0.75 0.6145833333333334
vt 0.8125 0.5625
vt 0.8125 0.625
vt 0.75 0.625
vt 0.75 0.5625
vt 0.8125 0.5625
vt 0.8125 0.625
vt 0.75 0.625
vt 0.75 0.5625
vt 0.8125 0.6145833333333334
vt 0.8125 0.625
vt 0.75 0.625
vt 0.75 0.6145833333333334
vt 0.8125 0.6145833333333334
vt 0.8125 0.625
vt 0.75 0.625
vt 0.75 0.6145833333333334
vn 1 0 0
vn -1 0 0
vn 0 1 0
vn 0 -1 0
vn 0.316227766016838 0 0.948683298050514
vn 0.316227766016838 0 -0.948683298050514
usemtl m_06971b39-addd-3d86-66fb-531f8c78eed0
f 20/49/13 18/50/13 17/51/13 19/52/13
f 23/53/14 21/54/14 22/55/14 24/56/14
f 17/57/15 18/58/15 22/59/15 21/60/15
f 20/61/16 19/62/16 23/63/16 24/64/16
f 19/65/17 17/66/17 21/67/17 23/68/17
f 24/69/18 22/70/18 18/71/18 20/72/18